<?xml version="1.0" encoding="UTF-8" standalone="no"?><svg xmlns="http://www.w3.org/2000/svg" xmlns:xlink="http://www.w3.org/1999/xlink" contentStyleType="text/css" height="752px" preserveAspectRatio="none" style="width:2455px;height:752px;background:#FFFFFF;" version="1.1" viewBox="0 0 2455 752" width="2455px" zoomAndPan="magnify"><defs/><g><!--MD5=[fac864e77539af95038f0151207ed802]
cluster API--><g id="cluster_API"><path d="M156.5,6 L183.5,6 A3.75,3.75 0 0 1 186,8.5 L193,28.2969 L2445.5,28.2969 A2.5,2.5 0 0 1 2448,30.7969 L2448,742.5 A2.5,2.5 0 0 1 2445.5,745 L156.5,745 A2.5,2.5 0 0 1 154,742.5 L154,8.5 A2.5,2.5 0 0 1 156.5,6 " style="stroke:#000000;stroke-width:1.5;fill:none;"/><line style="stroke:#000000;stroke-width:1.5;fill:none;" x1="154" x2="193" y1="28.2969" y2="28.2969"/><text fill="#000000" font-family="sans-serif" font-size="14" font-weight="bold" lengthAdjust="spacing" textLength="26" x="158" y="20.9951">API</text></g><!--MD5=[3c2a72b22690c45a0140c2852c333085]
cluster API.libraries--><g id="cluster_API.libraries"><path d="M537.5,137.5 L605.5,137.5 A3.75,3.75 0 0 1 608,140 L615,159.7969 L1017.5,159.7969 A2.5,2.5 0 0 1 1020,162.2969 L1020,315 A2.5,2.5 0 0 1 1017.5,317.5 L537.5,317.5 A2.5,2.5 0 0 1 535,315 L535,140 A2.5,2.5 0 0 1 537.5,137.5 " style="stroke:#000000;stroke-width:1.5;fill:none;"/><line style="stroke:#000000;stroke-width:1.5;fill:none;" x1="535" x2="615" y1="159.7969" y2="159.7969"/><text fill="#000000" font-family="sans-serif" font-size="14" font-weight="bold" lengthAdjust="spacing" textLength="67" x="539" y="152.4951">libraries</text></g><!--MD5=[d58240a2b67c31b29fc97a259ee786bb]
cluster API.models--><g id="cluster_API.models"><path d="M1192.5,105 L1251.5,105 A3.75,3.75 0 0 1 1254,107.5 L1261,127.2969 L2413.5,127.2969 A2.5,2.5 0 0 1 2416,129.7969 L2416,602.5 A2.5,2.5 0 0 1 2413.5,605 L1192.5,605 A2.5,2.5 0 0 1 1190,602.5 L1190,107.5 A2.5,2.5 0 0 1 1192.5,105 " style="stroke:#000000;stroke-width:1.5;fill:none;"/><line style="stroke:#000000;stroke-width:1.5;fill:none;" x1="1190" x2="1261" y1="127.2969" y2="127.2969"/><text fill="#000000" font-family="sans-serif" font-size="14" font-weight="bold" lengthAdjust="spacing" textLength="58" x="1194" y="119.9951">models</text></g><!--MD5=[300fb850c7fdbfce9002bb7819753107]
cluster API.controllers--><g id="cluster_API.controllers"><path d="M188.5,364 L278.5,364 A3.75,3.75 0 0 1 281,366.5 L288,386.2969 L1147.5,386.2969 A2.5,2.5 0 0 1 1150,388.7969 L1150,710.5 A2.5,2.5 0 0 1 1147.5,713 L188.5,713 A2.5,2.5 0 0 1 186,710.5 L186,366.5 A2.5,2.5 0 0 1 188.5,364 " style="stroke:#000000;stroke-width:1.5;fill:none;"/><line style="stroke:#000000;stroke-width:1.5;fill:none;" x1="186" x2="288" y1="386.2969" y2="386.2969"/><text fill="#000000" font-family="sans-serif" font-size="14" font-weight="bold" lengthAdjust="spacing" textLength="89" x="190" y="378.9951">controllers</text></g><g id="elem_API.GMN1148033"><path d="M777,41 L777,81.2656 A0,0 0 0 0 777,81.2656 L905,81.2656 L909,180.235 L913,81.2656 L1041,81.2656 A0,0 0 0 0 1041,81.2656 L1041,51 L1031,41 L777,41 A0,0 0 0 0 777,41 " fill="#FEFFDD" style="stroke:#181818;stroke-width:0.5;"/><path d="M1031,41 L1031,51 L1041,51 L1031,41 " fill="#FEFFDD" style="stroke:#181818;stroke-width:0.5;"/><text fill="#000000" font-family="sans-serif" font-size="13" lengthAdjust="spacing" textLength="243" x="783" y="58.0669">A Library provider by Slim framework,</text><text fill="#000000" font-family="sans-serif" font-size="13" lengthAdjust="spacing" textLength="177" x="787" y="73.1997">and used for DB Operations</text></g><g id="elem_API.GMN1148036"><path d="M172,209.5 L172,264.8984 L334,264.8984 L334,219.5 L324,209.5 L172,209.5 " fill="#FEFFDD" style="stroke:#181818;stroke-width:0.5;"/><path d="M324,209.5 L324,219.5 L334,219.5 L324,209.5 " fill="#FEFFDD" style="stroke:#181818;stroke-width:1.0;"/><text fill="#000000" font-family="sans-serif" font-size="13" lengthAdjust="spacing" textLength="141" x="178" y="226.5669">Validates and process</text><text fill="#000000" font-family="sans-serif" font-size="13" lengthAdjust="spacing" textLength="138" x="178" y="241.6997">requests and retrieve</text><text fill="#000000" font-family="sans-serif" font-size="13" lengthAdjust="spacing" textLength="70" x="178" y="256.8325">responses.</text></g><!--MD5=[5c4bc7c4281ff921ddab9b739816ca9a]
class API.libraries.LogManager--><g id="elem_API.libraries.LogManager"><rect codeLine="5" fill="#F1F1F1" height="129.4844" id="API.libraries.LogManager" rx="2.5" ry="2.5" style="stroke:#181818;stroke-width:0.5;" width="228" x="551" y="172.5"/><ellipse cx="617.25" cy="188.5" fill="#ADD1B2" rx="11" ry="11" style="stroke:#181818;stroke-width:1.0;"/><path d="M619.5938,184.1719 C618.6563,183.7344 618.0625,183.5938 617.1875,183.5938 C614.5625,183.5938 612.5625,185.6719 612.5625,188.3906 L612.5625,189.5156 C612.5625,192.0938 614.6719,193.9844 617.5625,193.9844 C618.7813,193.9844 619.9375,193.6875 620.6875,193.1406 C621.2656,192.7344 621.5938,192.2813 621.5938,191.8906 C621.5938,191.4375 621.2031,191.0469 620.7344,191.0469 C620.5156,191.0469 620.3125,191.125 620.125,191.3125 C619.6719,191.7969 619.6719,191.7969 619.4844,191.8906 C619.0625,192.1563 618.375,192.2813 617.6094,192.2813 C615.5625,192.2813 614.2656,191.1875 614.2656,189.4844 L614.2656,188.3906 C614.2656,186.6094 615.5156,185.2969 617.25,185.2969 C617.8281,185.2969 618.4375,185.4531 618.9063,185.7031 C619.3906,185.9844 619.5625,186.2031 619.6563,186.6094 C619.7188,187.0156 619.75,187.1406 619.8906,187.2656 C620.0313,187.4063 620.2656,187.5156 620.4844,187.5156 C620.75,187.5156 621.0156,187.375 621.1875,187.1563 C621.2969,187 621.3281,186.8125 621.3281,186.3906 L621.3281,184.9688 C621.3281,184.5313 621.3125,184.4063 621.2188,184.25 C621.0625,183.9844 620.7813,183.8438 620.4844,183.8438 C620.1875,183.8438 619.9844,183.9375 619.7656,184.25 L619.5938,184.1719 Z " fill="#000000"/><text fill="#000000" font-family="sans-serif" font-size="14" lengthAdjust="spacing" textLength="87" x="637.75" y="193.3467">LogManager</text><line style="stroke:#181818;stroke-width:0.5;" x1="552" x2="778" y1="204.5" y2="204.5"/><rect fill="none" height="6" style="stroke:#C82930;stroke-width:1.0;" width="6" x="559" y="212.5"/><text fill="#000000" font-family="sans-serif" font-size="14" lengthAdjust="spacing" textLength="105" x="571" y="221.4951">logger: Logger</text><rect fill="none" height="6" style="stroke:#C82930;stroke-width:1.0;" width="6" x="559" y="228.7969"/><text fill="#000000" font-family="sans-serif" font-size="14" lengthAdjust="spacing" textLength="171" x="571" y="237.792">handler: StreamHandler</text><line style="stroke:#181818;stroke-width:0.5;" x1="552" x2="778" y1="245.0938" y2="245.0938"/><ellipse cx="562" cy="256.0938" fill="#84BE84" rx="3" ry="3" style="stroke:#038048;stroke-width:1.0;"/><text fill="#000000" font-family="sans-serif" font-size="14" lengthAdjust="spacing" textLength="131" x="571" y="262.0889">LogManager(class)</text><ellipse cx="562" cy="272.3906" fill="#84BE84" rx="3" ry="3" style="stroke:#038048;stroke-width:1.0;"/><text fill="#000000" font-family="sans-serif" font-size="14" lengthAdjust="spacing" textLength="202" x="571" y="278.3857">log(message, logLevel): void</text><ellipse cx="562" cy="288.6875" fill="#84BE84" rx="3" ry="3" style="stroke:#038048;stroke-width:1.0;"/><text fill="#000000" font-family="sans-serif" font-size="14" lengthAdjust="spacing" textLength="113" x="571" y="294.6826">getFile(): String</text></g><!--MD5=[8ba723f8482fd65af2c3a482a6a2638f]
class API.libraries.Atlas--><g id="elem_API.libraries.Atlas"><rect codeLine="13" fill="#F1F1F1" height="113.1875" id="API.libraries.Atlas" rx="2.5" ry="2.5" style="stroke:#181818;stroke-width:0.5;" width="189" x="814.5" y="180.5"/><ellipse cx="886.75" cy="196.5" fill="#ADD1B2" rx="11" ry="11" style="stroke:#181818;stroke-width:1.0;"/><path d="M889.0938,192.1719 C888.1563,191.7344 887.5625,191.5938 886.6875,191.5938 C884.0625,191.5938 882.0625,193.6719 882.0625,196.3906 L882.0625,197.5156 C882.0625,200.0938 884.1719,201.9844 887.0625,201.9844 C888.2813,201.9844 889.4375,201.6875 890.1875,201.1406 C890.7656,200.7344 891.0938,200.2813 891.0938,199.8906 C891.0938,199.4375 890.7031,199.0469 890.2344,199.0469 C890.0156,199.0469 889.8125,199.125 889.625,199.3125 C889.1719,199.7969 889.1719,199.7969 888.9844,199.8906 C888.5625,200.1563 887.875,200.2813 887.1094,200.2813 C885.0625,200.2813 883.7656,199.1875 883.7656,197.4844 L883.7656,196.3906 C883.7656,194.6094 885.0156,193.2969 886.75,193.2969 C887.3281,193.2969 887.9375,193.4531 888.4063,193.7031 C888.8906,193.9844 889.0625,194.2031 889.1563,194.6094 C889.2188,195.0156 889.25,195.1406 889.3906,195.2656 C889.5313,195.4063 889.7656,195.5156 889.9844,195.5156 C890.25,195.5156 890.5156,195.375 890.6875,195.1563 C890.7969,195 890.8281,194.8125 890.8281,194.3906 L890.8281,192.9688 C890.8281,192.5313 890.8125,192.4063 890.7188,192.25 C890.5625,191.9844 890.2813,191.8438 889.9844,191.8438 C889.6875,191.8438 889.4844,191.9375 889.2656,192.25 L889.0938,192.1719 Z " fill="#000000"/><text fill="#000000" font-family="sans-serif" font-size="14" lengthAdjust="spacing" textLength="36" x="907.25" y="201.3467">Atlas</text><line style="stroke:#181818;stroke-width:0.5;" x1="815.5" x2="1002.5" y1="212.5" y2="212.5"/><rect fill="none" height="6" style="stroke:#C82930;stroke-width:1.0;" width="6" x="822.5" y="220.5"/><text fill="#000000" font-family="sans-serif" font-size="14" lengthAdjust="spacing" textLength="90" x="834.5" y="229.4951">dbPDO: PDO</text><line style="stroke:#181818;stroke-width:0.5;" x1="815.5" x2="1002.5" y1="236.7969" y2="236.7969"/><ellipse cx="825.5" cy="247.7969" fill="#84BE84" rx="3" ry="3" style="stroke:#038048;stroke-width:1.0;"/><text fill="#000000" font-family="sans-serif" font-size="14" lengthAdjust="spacing" textLength="156" x="834.5" y="253.792">select(ModelClass, ...)</text><ellipse cx="825.5" cy="264.0938" fill="#84BE84" rx="3" ry="3" style="stroke:#038048;stroke-width:1.0;"/><text fill="#000000" font-family="sans-serif" font-size="14" lengthAdjust="spacing" textLength="154" x="834.5" y="270.0889">insert(ModelClass, ...)</text><ellipse cx="825.5" cy="280.3906" fill="#84BE84" rx="3" ry="3" style="stroke:#038048;stroke-width:1.0;"/><text fill="#000000" font-family="sans-serif" font-size="14" lengthAdjust="spacing" textLength="163" x="834.5" y="286.3857">update(ModelClass, ...)</text></g><!--MD5=[a2c652940f8e3ca06d73bfe1a6d4de33]
class API.models.Games--><g id="elem_API.models.Games"><rect codeLine="21" fill="#F1F1F1" height="194.6719" id="API.models.Games" rx="2.5" ry="2.5" style="stroke:#181818;stroke-width:0.5;" width="240" x="1650" y="386"/><ellipse cx="1741.25" cy="402" fill="#ADD1B2" rx="11" ry="11" style="stroke:#181818;stroke-width:1.0;"/><path d="M1743.5938,397.6719 C1742.6563,397.2344 1742.0625,397.0938 1741.1875,397.0938 C1738.5625,397.0938 1736.5625,399.1719 1736.5625,401.8906 L1736.5625,403.0156 C1736.5625,405.5938 1738.6719,407.4844 1741.5625,407.4844 C1742.7813,407.4844 1743.9375,407.1875 1744.6875,406.6406 C1745.2656,406.2344 1745.5938,405.7813 1745.5938,405.3906 C1745.5938,404.9375 1745.2031,404.5469 1744.7344,404.5469 C1744.5156,404.5469 1744.3125,404.625 1744.125,404.8125 C1743.6719,405.2969 1743.6719,405.2969 1743.4844,405.3906 C1743.0625,405.6563 1742.375,405.7813 1741.6094,405.7813 C1739.5625,405.7813 1738.2656,404.6875 1738.2656,402.9844 L1738.2656,401.8906 C1738.2656,400.1094 1739.5156,398.7969 1741.25,398.7969 C1741.8281,398.7969 1742.4375,398.9531 1742.9063,399.2031 C1743.3906,399.4844 1743.5625,399.7031 1743.6563,400.1094 C1743.7188,400.5156 1743.75,400.6406 1743.8906,400.7656 C1744.0313,400.9063 1744.2656,401.0156 1744.4844,401.0156 C1744.75,401.0156 1745.0156,400.875 1745.1875,400.6563 C1745.2969,400.5 1745.3281,400.3125 1745.3281,399.8906 L1745.3281,398.4688 C1745.3281,398.0313 1745.3125,397.9063 1745.2188,397.75 C1745.0625,397.4844 1744.7813,397.3438 1744.4844,397.3438 C1744.1875,397.3438 1743.9844,397.4375 1743.7656,397.75 L1743.5938,397.6719 Z " fill="#000000"/><text fill="#000000" font-family="sans-serif" font-size="14" lengthAdjust="spacing" textLength="49" x="1761.75" y="406.8467">Games</text><line style="stroke:#181818;stroke-width:0.5;" x1="1651" x2="1889" y1="418" y2="418"/><rect fill="none" height="6" style="stroke:#C82930;stroke-width:1.0;" width="6" x="1658" y="426"/><text fill="#000000" font-family="sans-serif" font-size="14" lengthAdjust="spacing" textLength="42" x="1670" y="434.9951">id: int</text><rect fill="none" height="6" style="stroke:#C82930;stroke-width:1.0;" width="6" x="1658" y="442.2969"/><text fill="#000000" font-family="sans-serif" font-size="14" lengthAdjust="spacing" textLength="93" x="1670" y="451.292">name: String</text><rect fill="none" height="6" style="stroke:#C82930;stroke-width:1.0;" width="6" x="1658" y="458.5938"/><text fill="#000000" font-family="sans-serif" font-size="14" lengthAdjust="spacing" textLength="135" x="1670" y="467.5889">description: String</text><rect fill="none" height="6" style="stroke:#C82930;stroke-width:1.0;" width="6" x="1658" y="474.8906"/><text fill="#000000" font-family="sans-serif" font-size="14" lengthAdjust="spacing" textLength="211" x="1670" y="483.8857">categories: List&lt;Categories&gt;</text><rect fill="none" height="6" style="stroke:#C82930;stroke-width:1.0;" width="6" x="1658" y="491.1875"/><text fill="#000000" font-family="sans-serif" font-size="14" lengthAdjust="spacing" textLength="213" x="1670" y="500.1826">comments: List&lt;Comments&gt;</text><rect fill="none" height="6" style="stroke:#C82930;stroke-width:1.0;" width="6" x="1658" y="507.4844"/><text fill="#000000" font-family="sans-serif" font-size="14" lengthAdjust="spacing" textLength="157" x="1670" y="516.4795">medias: List&lt;Medias&gt;</text><rect fill="none" height="6" style="stroke:#C82930;stroke-width:1.0;" width="6" x="1658" y="523.7813"/><text fill="#000000" font-family="sans-serif" font-size="14" lengthAdjust="spacing" textLength="214" x="1670" y="532.7764">plataforms: List&lt;Plataforms&gt;</text><line style="stroke:#181818;stroke-width:0.5;" x1="1651" x2="1889" y1="540.0781" y2="540.0781"/><ellipse cx="1661" cy="551.0781" fill="#84BE84" rx="3" ry="3" style="stroke:#038048;stroke-width:1.0;"/><text fill="#000000" font-family="sans-serif" font-size="14" lengthAdjust="spacing" textLength="64" x="1670" y="557.0732">getters()</text><ellipse cx="1661" cy="567.375" fill="#84BE84" rx="3" ry="3" style="stroke:#038048;stroke-width:1.0;"/><text fill="#000000" font-family="sans-serif" font-size="14" lengthAdjust="spacing" textLength="62" x="1670" y="573.3701">setters()</text></g><!--MD5=[9fe8dab1cb254d67ac6a98fb74cef7db]
class API.models.Categories--><g id="elem_API.models.Categories"><rect codeLine="32" fill="#F1F1F1" height="113.1875" id="API.models.Categories" rx="2.5" ry="2.5" style="stroke:#181818;stroke-width:0.5;" width="119" x="2011.5" y="180.5"/><ellipse cx="2030.55" cy="196.5" fill="#ADD1B2" rx="11" ry="11" style="stroke:#181818;stroke-width:1.0;"/><path d="M2032.8938,192.1719 C2031.9563,191.7344 2031.3625,191.5938 2030.4875,191.5938 C2027.8625,191.5938 2025.8625,193.6719 2025.8625,196.3906 L2025.8625,197.5156 C2025.8625,200.0938 2027.9719,201.9844 2030.8625,201.9844 C2032.0813,201.9844 2033.2375,201.6875 2033.9875,201.1406 C2034.5656,200.7344 2034.8938,200.2813 2034.8938,199.8906 C2034.8938,199.4375 2034.5031,199.0469 2034.0344,199.0469 C2033.8156,199.0469 2033.6125,199.125 2033.425,199.3125 C2032.9719,199.7969 2032.9719,199.7969 2032.7844,199.8906 C2032.3625,200.1563 2031.675,200.2813 2030.9094,200.2813 C2028.8625,200.2813 2027.5656,199.1875 2027.5656,197.4844 L2027.5656,196.3906 C2027.5656,194.6094 2028.8156,193.2969 2030.55,193.2969 C2031.1281,193.2969 2031.7375,193.4531 2032.2063,193.7031 C2032.6906,193.9844 2032.8625,194.2031 2032.9563,194.6094 C2033.0188,195.0156 2033.05,195.1406 2033.1906,195.2656 C2033.3313,195.4063 2033.5656,195.5156 2033.7844,195.5156 C2034.05,195.5156 2034.3156,195.375 2034.4875,195.1563 C2034.5969,195 2034.6281,194.8125 2034.6281,194.3906 L2034.6281,192.9688 C2034.6281,192.5313 2034.6125,192.4063 2034.5188,192.25 C2034.3625,191.9844 2034.0813,191.8438 2033.7844,191.8438 C2033.4875,191.8438 2033.2844,191.9375 2033.0656,192.25 L2032.8938,192.1719 Z " fill="#000000"/><text fill="#000000" font-family="sans-serif" font-size="14" lengthAdjust="spacing" textLength="78" x="2045.45" y="201.3467">Categories</text><line style="stroke:#181818;stroke-width:0.5;" x1="2012.5" x2="2129.5" y1="212.5" y2="212.5"/><rect fill="none" height="6" style="stroke:#C82930;stroke-width:1.0;" width="6" x="2019.5" y="220.5"/><text fill="#000000" font-family="sans-serif" font-size="14" lengthAdjust="spacing" textLength="42" x="2031.5" y="229.4951">id: int</text><rect fill="none" height="6" style="stroke:#C82930;stroke-width:1.0;" width="6" x="2019.5" y="236.7969"/><text fill="#000000" font-family="sans-serif" font-size="14" lengthAdjust="spacing" textLength="93" x="2031.5" y="245.792">name: String</text><line style="stroke:#181818;stroke-width:0.5;" x1="2012.5" x2="2129.5" y1="253.0938" y2="253.0938"/><ellipse cx="2022.5" cy="264.0938" fill="#84BE84" rx="3" ry="3" style="stroke:#038048;stroke-width:1.0;"/><text fill="#000000" font-family="sans-serif" font-size="14" lengthAdjust="spacing" textLength="64" x="2031.5" y="270.0889">getters()</text><ellipse cx="2022.5" cy="280.3906" fill="#84BE84" rx="3" ry="3" style="stroke:#038048;stroke-width:1.0;"/><text fill="#000000" font-family="sans-serif" font-size="14" lengthAdjust="spacing" textLength="62" x="2031.5" y="286.3857">setters()</text></g><!--MD5=[f4638e956bf60685da0fc388717c2b1f]
class API.models.Comments--><g id="elem_API.models.Comments"><rect codeLine="38" fill="#F1F1F1" height="145.7813" id="API.models.Comments" rx="2.5" ry="2.5" style="stroke:#181818;stroke-width:0.5;" width="161" x="1387.5" y="164"/><ellipse cx="1425" cy="180" fill="#ADD1B2" rx="11" ry="11" style="stroke:#181818;stroke-width:1.0;"/><path d="M1427.3438,175.6719 C1426.4063,175.2344 1425.8125,175.0938 1424.9375,175.0938 C1422.3125,175.0938 1420.3125,177.1719 1420.3125,179.8906 L1420.3125,181.0156 C1420.3125,183.5938 1422.4219,185.4844 1425.3125,185.4844 C1426.5313,185.4844 1427.6875,185.1875 1428.4375,184.6406 C1429.0156,184.2344 1429.3438,183.7813 1429.3438,183.3906 C1429.3438,182.9375 1428.9531,182.5469 1428.4844,182.5469 C1428.2656,182.5469 1428.0625,182.625 1427.875,182.8125 C1427.4219,183.2969 1427.4219,183.2969 1427.2344,183.3906 C1426.8125,183.6563 1426.125,183.7813 1425.3594,183.7813 C1423.3125,183.7813 1422.0156,182.6875 1422.0156,180.9844 L1422.0156,179.8906 C1422.0156,178.1094 1423.2656,176.7969 1425,176.7969 C1425.5781,176.7969 1426.1875,176.9531 1426.6563,177.2031 C1427.1406,177.4844 1427.3125,177.7031 1427.4063,178.1094 C1427.4688,178.5156 1427.5,178.6406 1427.6406,178.7656 C1427.7813,178.9063 1428.0156,179.0156 1428.2344,179.0156 C1428.5,179.0156 1428.7656,178.875 1428.9375,178.6563 C1429.0469,178.5 1429.0781,178.3125 1429.0781,177.8906 L1429.0781,176.4688 C1429.0781,176.0313 1429.0625,175.9063 1428.9688,175.75 C1428.8125,175.4844 1428.5313,175.3438 1428.2344,175.3438 C1427.9375,175.3438 1427.7344,175.4375 1427.5156,175.75 L1427.3438,175.6719 Z " fill="#000000"/><text fill="#000000" font-family="sans-serif" font-size="14" lengthAdjust="spacing" textLength="79" x="1444" y="184.8467">Comments</text><line style="stroke:#181818;stroke-width:0.5;" x1="1388.5" x2="1547.5" y1="196" y2="196"/><rect fill="none" height="6" style="stroke:#C82930;stroke-width:1.0;" width="6" x="1395.5" y="204"/><text fill="#000000" font-family="sans-serif" font-size="14" lengthAdjust="spacing" textLength="42" x="1407.5" y="212.9951">id: int</text><rect fill="none" height="6" style="stroke:#C82930;stroke-width:1.0;" width="6" x="1395.5" y="220.2969"/><text fill="#000000" font-family="sans-serif" font-size="14" lengthAdjust="spacing" textLength="89" x="1407.5" y="229.292">gamesId: int</text><rect fill="none" height="6" style="stroke:#C82930;stroke-width:1.0;" width="6" x="1395.5" y="236.5938"/><text fill="#000000" font-family="sans-serif" font-size="14" lengthAdjust="spacing" textLength="72" x="1407.5" y="245.5889">userId: int</text><rect fill="none" height="6" style="stroke:#C82930;stroke-width:1.0;" width="6" x="1395.5" y="252.8906"/><text fill="#000000" font-family="sans-serif" font-size="14" lengthAdjust="spacing" textLength="135" x="1407.5" y="261.8857">description: String</text><line style="stroke:#181818;stroke-width:0.5;" x1="1388.5" x2="1547.5" y1="269.1875" y2="269.1875"/><ellipse cx="1398.5" cy="280.1875" fill="#84BE84" rx="3" ry="3" style="stroke:#038048;stroke-width:1.0;"/><text fill="#000000" font-family="sans-serif" font-size="14" lengthAdjust="spacing" textLength="64" x="1407.5" y="286.1826">getters()</text><ellipse cx="1398.5" cy="296.4844" fill="#84BE84" rx="3" ry="3" style="stroke:#038048;stroke-width:1.0;"/><text fill="#000000" font-family="sans-serif" font-size="14" lengthAdjust="spacing" textLength="62" x="1407.5" y="302.4795">setters()</text></g><!--MD5=[420c665dbc51d820a9d49ec30a2dad7f]
class API.models.Medias--><g id="elem_API.models.Medias"><rect codeLine="46" fill="#F1F1F1" height="129.4844" id="API.models.Medias" rx="2.5" ry="2.5" style="stroke:#181818;stroke-width:0.5;" width="159" x="1583.5" y="172.5"/><ellipse cx="1634.25" cy="188.5" fill="#ADD1B2" rx="11" ry="11" style="stroke:#181818;stroke-width:1.0;"/><path d="M1636.5938,184.1719 C1635.6563,183.7344 1635.0625,183.5938 1634.1875,183.5938 C1631.5625,183.5938 1629.5625,185.6719 1629.5625,188.3906 L1629.5625,189.5156 C1629.5625,192.0938 1631.6719,193.9844 1634.5625,193.9844 C1635.7813,193.9844 1636.9375,193.6875 1637.6875,193.1406 C1638.2656,192.7344 1638.5938,192.2813 1638.5938,191.8906 C1638.5938,191.4375 1638.2031,191.0469 1637.7344,191.0469 C1637.5156,191.0469 1637.3125,191.125 1637.125,191.3125 C1636.6719,191.7969 1636.6719,191.7969 1636.4844,191.8906 C1636.0625,192.1563 1635.375,192.2813 1634.6094,192.2813 C1632.5625,192.2813 1631.2656,191.1875 1631.2656,189.4844 L1631.2656,188.3906 C1631.2656,186.6094 1632.5156,185.2969 1634.25,185.2969 C1634.8281,185.2969 1635.4375,185.4531 1635.9063,185.7031 C1636.3906,185.9844 1636.5625,186.2031 1636.6563,186.6094 C1636.7188,187.0156 1636.75,187.1406 1636.8906,187.2656 C1637.0313,187.4063 1637.2656,187.5156 1637.4844,187.5156 C1637.75,187.5156 1638.0156,187.375 1638.1875,187.1563 C1638.2969,187 1638.3281,186.8125 1638.3281,186.3906 L1638.3281,184.9688 C1638.3281,184.5313 1638.3125,184.4063 1638.2188,184.25 C1638.0625,183.9844 1637.7813,183.8438 1637.4844,183.8438 C1637.1875,183.8438 1636.9844,183.9375 1636.7656,184.25 L1636.5938,184.1719 Z " fill="#000000"/><text fill="#000000" font-family="sans-serif" font-size="14" lengthAdjust="spacing" textLength="49" x="1654.75" y="193.3467">Medias</text><line style="stroke:#181818;stroke-width:0.5;" x1="1584.5" x2="1741.5" y1="204.5" y2="204.5"/><rect fill="none" height="6" style="stroke:#C82930;stroke-width:1.0;" width="6" x="1591.5" y="212.5"/><text fill="#000000" font-family="sans-serif" font-size="14" lengthAdjust="spacing" textLength="42" x="1603.5" y="221.4951">id: int</text><rect fill="none" height="6" style="stroke:#C82930;stroke-width:1.0;" width="6" x="1591.5" y="228.7969"/><text fill="#000000" font-family="sans-serif" font-size="14" lengthAdjust="spacing" textLength="89" x="1603.5" y="237.792">gamesId: int</text><rect fill="none" height="6" style="stroke:#C82930;stroke-width:1.0;" width="6" x="1591.5" y="245.0938"/><text fill="#000000" font-family="sans-serif" font-size="14" lengthAdjust="spacing" textLength="133" x="1603.5" y="254.0889">mediaType: String</text><line style="stroke:#181818;stroke-width:0.5;" x1="1584.5" x2="1741.5" y1="261.3906" y2="261.3906"/><ellipse cx="1594.5" cy="272.3906" fill="#84BE84" rx="3" ry="3" style="stroke:#038048;stroke-width:1.0;"/><text fill="#000000" font-family="sans-serif" font-size="14" lengthAdjust="spacing" textLength="64" x="1603.5" y="278.3857">getters()</text><ellipse cx="1594.5" cy="288.6875" fill="#84BE84" rx="3" ry="3" style="stroke:#038048;stroke-width:1.0;"/><text fill="#000000" font-family="sans-serif" font-size="14" lengthAdjust="spacing" textLength="62" x="1603.5" y="294.6826">setters()</text></g><!--MD5=[5f307ca023386e0465b6c641bad3d084]
class API.models.Plataforms--><g id="elem_API.models.Plataforms"><rect codeLine="53" fill="#F1F1F1" height="129.4844" id="API.models.Plataforms" rx="2.5" ry="2.5" style="stroke:#181818;stroke-width:0.5;" width="119" x="1233.5" y="172.5"/><ellipse cx="1252.55" cy="188.5" fill="#ADD1B2" rx="11" ry="11" style="stroke:#181818;stroke-width:1.0;"/><path d="M1254.8938,184.1719 C1253.9563,183.7344 1253.3625,183.5938 1252.4875,183.5938 C1249.8625,183.5938 1247.8625,185.6719 1247.8625,188.3906 L1247.8625,189.5156 C1247.8625,192.0938 1249.9719,193.9844 1252.8625,193.9844 C1254.0813,193.9844 1255.2375,193.6875 1255.9875,193.1406 C1256.5656,192.7344 1256.8938,192.2813 1256.8938,191.8906 C1256.8938,191.4375 1256.5031,191.0469 1256.0344,191.0469 C1255.8156,191.0469 1255.6125,191.125 1255.425,191.3125 C1254.9719,191.7969 1254.9719,191.7969 1254.7844,191.8906 C1254.3625,192.1563 1253.675,192.2813 1252.9094,192.2813 C1250.8625,192.2813 1249.5656,191.1875 1249.5656,189.4844 L1249.5656,188.3906 C1249.5656,186.6094 1250.8156,185.2969 1252.55,185.2969 C1253.1281,185.2969 1253.7375,185.4531 1254.2063,185.7031 C1254.6906,185.9844 1254.8625,186.2031 1254.9563,186.6094 C1255.0188,187.0156 1255.05,187.1406 1255.1906,187.2656 C1255.3313,187.4063 1255.5656,187.5156 1255.7844,187.5156 C1256.05,187.5156 1256.3156,187.375 1256.4875,187.1563 C1256.5969,187 1256.6281,186.8125 1256.6281,186.3906 L1256.6281,184.9688 C1256.6281,184.5313 1256.6125,184.4063 1256.5188,184.25 C1256.3625,183.9844 1256.0813,183.8438 1255.7844,183.8438 C1255.4875,183.8438 1255.2844,183.9375 1255.0656,184.25 L1254.8938,184.1719 Z " fill="#000000"/><text fill="#000000" font-family="sans-serif" font-size="14" lengthAdjust="spacing" textLength="78" x="1267.45" y="193.3467">Plataforms</text><line style="stroke:#181818;stroke-width:0.5;" x1="1234.5" x2="1351.5" y1="204.5" y2="204.5"/><rect fill="none" height="6" style="stroke:#C82930;stroke-width:1.0;" width="6" x="1241.5" y="212.5"/><text fill="#000000" font-family="sans-serif" font-size="14" lengthAdjust="spacing" textLength="42" x="1253.5" y="221.4951">id: int</text><rect fill="none" height="6" style="stroke:#C82930;stroke-width:1.0;" width="6" x="1241.5" y="228.7969"/><text fill="#000000" font-family="sans-serif" font-size="14" lengthAdjust="spacing" textLength="93" x="1253.5" y="237.792">name: String</text><rect fill="none" height="6" style="stroke:#C82930;stroke-width:1.0;" width="6" x="1241.5" y="245.0938"/><text fill="#000000" font-family="sans-serif" font-size="14" lengthAdjust="spacing" textLength="46" x="1253.5" y="254.0889">url: Url</text><line style="stroke:#181818;stroke-width:0.5;" x1="1234.5" x2="1351.5" y1="261.3906" y2="261.3906"/><ellipse cx="1244.5" cy="272.3906" fill="#84BE84" rx="3" ry="3" style="stroke:#038048;stroke-width:1.0;"/><text fill="#000000" font-family="sans-serif" font-size="14" lengthAdjust="spacing" textLength="64" x="1253.5" y="278.3857">getters()</text><ellipse cx="1244.5" cy="288.6875" fill="#84BE84" rx="3" ry="3" style="stroke:#038048;stroke-width:1.0;"/><text fill="#000000" font-family="sans-serif" font-size="14" lengthAdjust="spacing" textLength="62" x="1253.5" y="294.6826">setters()</text></g><!--MD5=[637226d83f7d9446daab9cc019bdd505]
class API.models.GameDataOnPlataform--><g id="elem_API.models.GameDataOnPlataform"><rect codeLine="60" fill="#F1F1F1" height="178.375" id="API.models.GameDataOnPlataform" rx="2.5" ry="2.5" style="stroke:#181818;stroke-width:0.5;" width="199" x="1777.5" y="148"/><ellipse cx="1792.5" cy="164" fill="#ADD1B2" rx="11" ry="11" style="stroke:#181818;stroke-width:1.0;"/><path d="M1794.8438,159.6719 C1793.9063,159.2344 1793.3125,159.0938 1792.4375,159.0938 C1789.8125,159.0938 1787.8125,161.1719 1787.8125,163.8906 L1787.8125,165.0156 C1787.8125,167.5938 1789.9219,169.4844 1792.8125,169.4844 C1794.0313,169.4844 1795.1875,169.1875 1795.9375,168.6406 C1796.5156,168.2344 1796.8438,167.7813 1796.8438,167.3906 C1796.8438,166.9375 1796.4531,166.5469 1795.9844,166.5469 C1795.7656,166.5469 1795.5625,166.625 1795.375,166.8125 C1794.9219,167.2969 1794.9219,167.2969 1794.7344,167.3906 C1794.3125,167.6563 1793.625,167.7813 1792.8594,167.7813 C1790.8125,167.7813 1789.5156,166.6875 1789.5156,164.9844 L1789.5156,163.8906 C1789.5156,162.1094 1790.7656,160.7969 1792.5,160.7969 C1793.0781,160.7969 1793.6875,160.9531 1794.1563,161.2031 C1794.6406,161.4844 1794.8125,161.7031 1794.9063,162.1094 C1794.9688,162.5156 1795,162.6406 1795.1406,162.7656 C1795.2813,162.9063 1795.5156,163.0156 1795.7344,163.0156 C1796,163.0156 1796.2656,162.875 1796.4375,162.6563 C1796.5469,162.5 1796.5781,162.3125 1796.5781,161.8906 L1796.5781,160.4688 C1796.5781,160.0313 1796.5625,159.9063 1796.4688,159.75 C1796.3125,159.4844 1796.0313,159.3438 1795.7344,159.3438 C1795.4375,159.3438 1795.2344,159.4375 1795.0156,159.75 L1794.8438,159.6719 Z " fill="#000000"/><text fill="#000000" font-family="sans-serif" font-size="14" lengthAdjust="spacing" textLength="167" x="1806.5" y="168.8467">GameDataOnPlataform</text><line style="stroke:#181818;stroke-width:0.5;" x1="1778.5" x2="1975.5" y1="180" y2="180"/><rect fill="none" height="6" style="stroke:#C82930;stroke-width:1.0;" width="6" x="1785.5" y="188"/><text fill="#000000" font-family="sans-serif" font-size="14" lengthAdjust="spacing" textLength="121" x="1797.5" y="196.9951">plataformsId: int</text><rect fill="none" height="6" style="stroke:#C82930;stroke-width:1.0;" width="6" x="1785.5" y="204.2969"/><text fill="#000000" font-family="sans-serif" font-size="14" lengthAdjust="spacing" textLength="89" x="1797.5" y="213.292">gamesId: int</text><rect fill="none" height="6" style="stroke:#C82930;stroke-width:1.0;" width="6" x="1785.5" y="220.5938"/><text fill="#000000" font-family="sans-serif" font-size="14" lengthAdjust="spacing" textLength="97" x="1797.5" y="229.5889">price: Double</text><rect fill="none" height="6" style="stroke:#C82930;stroke-width:1.0;" width="6" x="1785.5" y="236.8906"/><text fill="#000000" font-family="sans-serif" font-size="14" lengthAdjust="spacing" textLength="119" x="1797.5" y="245.8857">priceUnit: String</text><rect fill="none" height="6" style="stroke:#C82930;stroke-width:1.0;" width="6" x="1785.5" y="253.1875"/><text fill="#000000" font-family="sans-serif" font-size="14" lengthAdjust="spacing" textLength="106" x="1797.5" y="262.1826">discount: Float</text><rect fill="none" height="6" style="stroke:#C82930;stroke-width:1.0;" width="6" x="1785.5" y="269.4844"/><text fill="#000000" font-family="sans-serif" font-size="14" lengthAdjust="spacing" textLength="136" x="1797.5" y="278.4795">isEnabled: boolean</text><line style="stroke:#181818;stroke-width:0.5;" x1="1778.5" x2="1975.5" y1="285.7813" y2="285.7813"/><ellipse cx="1788.5" cy="296.7813" fill="#84BE84" rx="3" ry="3" style="stroke:#038048;stroke-width:1.0;"/><text fill="#000000" font-family="sans-serif" font-size="14" lengthAdjust="spacing" textLength="64" x="1797.5" y="302.7764">getters()</text><ellipse cx="1788.5" cy="313.0781" fill="#84BE84" rx="3" ry="3" style="stroke:#038048;stroke-width:1.0;"/><text fill="#000000" font-family="sans-serif" font-size="14" lengthAdjust="spacing" textLength="62" x="1797.5" y="319.0732">setters()</text></g><!--MD5=[9c00cd296fcd212f2fc81dae765c9687]
class API.models.Users--><g id="elem_API.models.Users"><rect codeLine="70" fill="#F1F1F1" height="178.375" id="API.models.Users" rx="2.5" ry="2.5" style="stroke:#181818;stroke-width:0.5;" width="226" x="2166" y="148"/><ellipse cx="2255.75" cy="164" fill="#ADD1B2" rx="11" ry="11" style="stroke:#181818;stroke-width:1.0;"/><path d="M2258.0938,159.6719 C2257.1563,159.2344 2256.5625,159.0938 2255.6875,159.0938 C2253.0625,159.0938 2251.0625,161.1719 2251.0625,163.8906 L2251.0625,165.0156 C2251.0625,167.5938 2253.1719,169.4844 2256.0625,169.4844 C2257.2813,169.4844 2258.4375,169.1875 2259.1875,168.6406 C2259.7656,168.2344 2260.0938,167.7813 2260.0938,167.3906 C2260.0938,166.9375 2259.7031,166.5469 2259.2344,166.5469 C2259.0156,166.5469 2258.8125,166.625 2258.625,166.8125 C2258.1719,167.2969 2258.1719,167.2969 2257.9844,167.3906 C2257.5625,167.6563 2256.875,167.7813 2256.1094,167.7813 C2254.0625,167.7813 2252.7656,166.6875 2252.7656,164.9844 L2252.7656,163.8906 C2252.7656,162.1094 2254.0156,160.7969 2255.75,160.7969 C2256.3281,160.7969 2256.9375,160.9531 2257.4063,161.2031 C2257.8906,161.4844 2258.0625,161.7031 2258.1563,162.1094 C2258.2188,162.5156 2258.25,162.6406 2258.3906,162.7656 C2258.5313,162.9063 2258.7656,163.0156 2258.9844,163.0156 C2259.25,163.0156 2259.5156,162.875 2259.6875,162.6563 C2259.7969,162.5 2259.8281,162.3125 2259.8281,161.8906 L2259.8281,160.4688 C2259.8281,160.0313 2259.8125,159.9063 2259.7188,159.75 C2259.5625,159.4844 2259.2813,159.3438 2258.9844,159.3438 C2258.6875,159.3438 2258.4844,159.4375 2258.2656,159.75 L2258.0938,159.6719 Z " fill="#000000"/><text fill="#000000" font-family="sans-serif" font-size="14" lengthAdjust="spacing" textLength="38" x="2276.25" y="168.8467">Users</text><line style="stroke:#181818;stroke-width:0.5;" x1="2167" x2="2391" y1="180" y2="180"/><rect fill="none" height="6" style="stroke:#C82930;stroke-width:1.0;" width="6" x="2174" y="188"/><text fill="#000000" font-family="sans-serif" font-size="14" lengthAdjust="spacing" textLength="42" x="2186" y="196.9951">id: int</text><rect fill="none" height="6" style="stroke:#C82930;stroke-width:1.0;" width="6" x="2174" y="204.2969"/><text fill="#000000" font-family="sans-serif" font-size="14" lengthAdjust="spacing" textLength="93" x="2186" y="213.292">name: String</text><rect fill="none" height="6" style="stroke:#C82930;stroke-width:1.0;" width="6" x="2174" y="220.5938"/><text fill="#000000" font-family="sans-serif" font-size="14" lengthAdjust="spacing" textLength="92" x="2186" y="229.5889">email: String</text><rect fill="none" height="6" style="stroke:#C82930;stroke-width:1.0;" width="6" x="2174" y="236.8906"/><text fill="#000000" font-family="sans-serif" font-size="14" lengthAdjust="spacing" textLength="120" x="2186" y="245.8857">password: String</text><rect fill="none" height="6" style="stroke:#C82930;stroke-width:1.0;" width="6" x="2174" y="253.1875"/><text fill="#000000" font-family="sans-serif" font-size="14" lengthAdjust="spacing" textLength="200" x="2186" y="262.1826">publicityAccepted: boolean</text><rect fill="none" height="6" style="stroke:#C82930;stroke-width:1.0;" width="6" x="2174" y="269.4844"/><text fill="#000000" font-family="sans-serif" font-size="14" lengthAdjust="spacing" textLength="116" x="2186" y="278.4795">imageUrl: String</text><line style="stroke:#181818;stroke-width:0.5;" x1="2167" x2="2391" y1="285.7813" y2="285.7813"/><ellipse cx="2177" cy="296.7813" fill="#84BE84" rx="3" ry="3" style="stroke:#038048;stroke-width:1.0;"/><text fill="#000000" font-family="sans-serif" font-size="14" lengthAdjust="spacing" textLength="64" x="2186" y="302.7764">getters()</text><ellipse cx="2177" cy="313.0781" fill="#84BE84" rx="3" ry="3" style="stroke:#038048;stroke-width:1.0;"/><text fill="#000000" font-family="sans-serif" font-size="14" lengthAdjust="spacing" textLength="62" x="2186" y="319.0732">setters()</text></g><!--MD5=[1a5796cfab70df621ed54a519bc2fbc3]
class API.controllers.BaseController--><g id="elem_API.controllers.BaseController"><rect codeLine="89" fill="#F1F1F1" height="113.1875" id="API.controllers.BaseController" rx="2.5" ry="2.5" style="stroke:#181818;stroke-width:0.5;" width="143" x="593.5" y="427"/><ellipse cx="610.3" cy="443" fill="#ADD1B2" rx="11" ry="11" style="stroke:#181818;stroke-width:1.0;"/><path d="M612.6438,438.6719 C611.7063,438.2344 611.1125,438.0938 610.2375,438.0938 C607.6125,438.0938 605.6125,440.1719 605.6125,442.8906 L605.6125,444.0156 C605.6125,446.5938 607.7219,448.4844 610.6125,448.4844 C611.8313,448.4844 612.9875,448.1875 613.7375,447.6406 C614.3156,447.2344 614.6438,446.7813 614.6438,446.3906 C614.6438,445.9375 614.2531,445.5469 613.7844,445.5469 C613.5656,445.5469 613.3625,445.625 613.175,445.8125 C612.7219,446.2969 612.7219,446.2969 612.5344,446.3906 C612.1125,446.6563 611.425,446.7813 610.6594,446.7813 C608.6125,446.7813 607.3156,445.6875 607.3156,443.9844 L607.3156,442.8906 C607.3156,441.1094 608.5656,439.7969 610.3,439.7969 C610.8781,439.7969 611.4875,439.9531 611.9563,440.2031 C612.4406,440.4844 612.6125,440.7031 612.7063,441.1094 C612.7688,441.5156 612.8,441.6406 612.9406,441.7656 C613.0813,441.9063 613.3156,442.0156 613.5344,442.0156 C613.8,442.0156 614.0656,441.875 614.2375,441.6563 C614.3469,441.5 614.3781,441.3125 614.3781,440.8906 L614.3781,439.4688 C614.3781,439.0313 614.3625,438.9063 614.2688,438.75 C614.1125,438.4844 613.8313,438.3438 613.5344,438.3438 C613.2375,438.3438 613.0344,438.4375 612.8156,438.75 L612.6438,438.6719 Z " fill="#000000"/><text fill="#000000" font-family="sans-serif" font-size="14" lengthAdjust="spacing" textLength="107" x="624.7" y="447.8467">BaseController</text><line style="stroke:#181818;stroke-width:0.5;" x1="594.5" x2="735.5" y1="459" y2="459"/><rect fill="none" height="6" style="stroke:#C82930;stroke-width:1.0;" width="6" x="601.5" y="467"/><text fill="#000000" font-family="sans-serif" font-size="14" lengthAdjust="spacing" textLength="91" x="613.5" y="475.9951">logger: array</text><rect fill="none" height="6" style="stroke:#C82930;stroke-width:1.0;" width="6" x="601.5" y="483.2969"/><text fill="#000000" font-family="sans-serif" font-size="14" lengthAdjust="spacing" textLength="59" x="613.5" y="492.292">db: PDO</text><rect fill="none" height="6" style="stroke:#C82930;stroke-width:1.0;" width="6" x="601.5" y="499.5938"/><text fill="#000000" font-family="sans-serif" font-size="14" lengthAdjust="spacing" textLength="79" x="613.5" y="508.5889">atlas: Atlas</text><line style="stroke:#181818;stroke-width:0.5;" x1="594.5" x2="735.5" y1="515.8906" y2="515.8906"/><ellipse cx="604.5" cy="526.8906" fill="#84BE84" rx="3" ry="3" style="stroke:#038048;stroke-width:1.0;"/><text fill="#000000" font-family="sans-serif" font-size="14" lengthAdjust="spacing" textLength="117" x="613.5" y="532.8857">BaseController()</text></g><polygon fill="none" points="665,540.1875,672,560.1875,658,560.1875" style="stroke:#181818;stroke-width:1.0;"/><line style="stroke:#181818;stroke-width:1.0;" x1="665" x2="665" y1="560.1875" y2="561.5"/><line style="stroke:#181818;stroke-width:1.0;" x1="637.2621" x2="625.26" y1="427" y2="402.512"/><line style="stroke:#181818;stroke-width:1.0;" x1="665" x2="665" y1="427" y2="406.603"/><line style="stroke:#181818;stroke-width:1.0;" x1="720.6763" x2="740.778" y1="427" y2="406.567"/><!--MD5=[14451e3af444179456d3c7892f636b00]
class API.controllers.SelectController--><g id="elem_API.controllers.SelectController"><rect codeLine="96" fill="#F1F1F1" height="48" id="API.controllers.SelectController" rx="2.5" ry="2.5" style="stroke:#181818;stroke-width:0.5;" width="151" x="218.5" y="641"/><ellipse cx="233.5" cy="657" fill="#ADD1B2" rx="11" ry="11" style="stroke:#181818;stroke-width:1.0;"/><path d="M235.8438,652.6719 C234.9063,652.2344 234.3125,652.0938 233.4375,652.0938 C230.8125,652.0938 228.8125,654.1719 228.8125,656.8906 L228.8125,658.0156 C228.8125,660.5938 230.9219,662.4844 233.8125,662.4844 C235.0313,662.4844 236.1875,662.1875 236.9375,661.6406 C237.5156,661.2344 237.8438,660.7813 237.8438,660.3906 C237.8438,659.9375 237.4531,659.5469 236.9844,659.5469 C236.7656,659.5469 236.5625,659.625 236.375,659.8125 C235.9219,660.2969 235.9219,660.2969 235.7344,660.3906 C235.3125,660.6563 234.625,660.7813 233.8594,660.7813 C231.8125,660.7813 230.5156,659.6875 230.5156,657.9844 L230.5156,656.8906 C230.5156,655.1094 231.7656,653.7969 233.5,653.7969 C234.0781,653.7969 234.6875,653.9531 235.1563,654.2031 C235.6406,654.4844 235.8125,654.7031 235.9063,655.1094 C235.9688,655.5156 236,655.6406 236.1406,655.7656 C236.2813,655.9063 236.5156,656.0156 236.7344,656.0156 C237,656.0156 237.2656,655.875 237.4375,655.6563 C237.5469,655.5 237.5781,655.3125 237.5781,654.8906 L237.5781,653.4688 C237.5781,653.0313 237.5625,652.9063 237.4688,652.75 C237.3125,652.4844 237.0313,652.3438 236.7344,652.3438 C236.4375,652.3438 236.2344,652.4375 236.0156,652.75 L235.8438,652.6719 Z " fill="#000000"/><text fill="#000000" font-family="sans-serif" font-size="14" lengthAdjust="spacing" textLength="119" x="247.5" y="661.8467">SelectController</text><line style="stroke:#181818;stroke-width:0.5;" x1="219.5" x2="368.5" y1="673" y2="673"/><line style="stroke:#181818;stroke-width:0.5;" x1="219.5" x2="368.5" y1="681" y2="681"/></g><!--MD5=[22a800ddbb4f9e34aa25ac07b96c0be7]
class API.controllers.InsertController--><g id="elem_API.controllers.InsertController"><rect codeLine="97" fill="#F1F1F1" height="48" id="API.controllers.InsertController" rx="2.5" ry="2.5" style="stroke:#181818;stroke-width:0.5;" width="147" x="404.5" y="641"/><ellipse cx="419.5" cy="657" fill="#ADD1B2" rx="11" ry="11" style="stroke:#181818;stroke-width:1.0;"/><path d="M421.8438,652.6719 C420.9063,652.2344 420.3125,652.0938 419.4375,652.0938 C416.8125,652.0938 414.8125,654.1719 414.8125,656.8906 L414.8125,658.0156 C414.8125,660.5938 416.9219,662.4844 419.8125,662.4844 C421.0313,662.4844 422.1875,662.1875 422.9375,661.6406 C423.5156,661.2344 423.8438,660.7813 423.8438,660.3906 C423.8438,659.9375 423.4531,659.5469 422.9844,659.5469 C422.7656,659.5469 422.5625,659.625 422.375,659.8125 C421.9219,660.2969 421.9219,660.2969 421.7344,660.3906 C421.3125,660.6563 420.625,660.7813 419.8594,660.7813 C417.8125,660.7813 416.5156,659.6875 416.5156,657.9844 L416.5156,656.8906 C416.5156,655.1094 417.7656,653.7969 419.5,653.7969 C420.0781,653.7969 420.6875,653.9531 421.1563,654.2031 C421.6406,654.4844 421.8125,654.7031 421.9063,655.1094 C421.9688,655.5156 422,655.6406 422.1406,655.7656 C422.2813,655.9063 422.5156,656.0156 422.7344,656.0156 C423,656.0156 423.2656,655.875 423.4375,655.6563 C423.5469,655.5 423.5781,655.3125 423.5781,654.8906 L423.5781,653.4688 C423.5781,653.0313 423.5625,652.9063 423.4688,652.75 C423.3125,652.4844 423.0313,652.3438 422.7344,652.3438 C422.4375,652.3438 422.2344,652.4375 422.0156,652.75 L421.8438,652.6719 Z " fill="#000000"/><text fill="#000000" font-family="sans-serif" font-size="14" lengthAdjust="spacing" textLength="115" x="433.5" y="661.8467">InsertController</text><line style="stroke:#181818;stroke-width:0.5;" x1="405.5" x2="550.5" y1="673" y2="673"/><line style="stroke:#181818;stroke-width:0.5;" x1="405.5" x2="550.5" y1="681" y2="681"/></g><!--MD5=[e3d061facce20df536c4f640ebb53982]
class API.controllers.UpdateController--><g id="elem_API.controllers.UpdateController"><rect codeLine="98" fill="#F1F1F1" height="48" id="API.controllers.UpdateController" rx="2.5" ry="2.5" style="stroke:#181818;stroke-width:0.5;" width="157" x="586.5" y="641"/><ellipse cx="601.5" cy="657" fill="#ADD1B2" rx="11" ry="11" style="stroke:#181818;stroke-width:1.0;"/><path d="M603.8438,652.6719 C602.9063,652.2344 602.3125,652.0938 601.4375,652.0938 C598.8125,652.0938 596.8125,654.1719 596.8125,656.8906 L596.8125,658.0156 C596.8125,660.5938 598.9219,662.4844 601.8125,662.4844 C603.0313,662.4844 604.1875,662.1875 604.9375,661.6406 C605.5156,661.2344 605.8438,660.7813 605.8438,660.3906 C605.8438,659.9375 605.4531,659.5469 604.9844,659.5469 C604.7656,659.5469 604.5625,659.625 604.375,659.8125 C603.9219,660.2969 603.9219,660.2969 603.7344,660.3906 C603.3125,660.6563 602.625,660.7813 601.8594,660.7813 C599.8125,660.7813 598.5156,659.6875 598.5156,657.9844 L598.5156,656.8906 C598.5156,655.1094 599.7656,653.7969 601.5,653.7969 C602.0781,653.7969 602.6875,653.9531 603.1563,654.2031 C603.6406,654.4844 603.8125,654.7031 603.9063,655.1094 C603.9688,655.5156 604,655.6406 604.1406,655.7656 C604.2813,655.9063 604.5156,656.0156 604.7344,656.0156 C605,656.0156 605.2656,655.875 605.4375,655.6563 C605.5469,655.5 605.5781,655.3125 605.5781,654.8906 L605.5781,653.4688 C605.5781,653.0313 605.5625,652.9063 605.4688,652.75 C605.3125,652.4844 605.0313,652.3438 604.7344,652.3438 C604.4375,652.3438 604.2344,652.4375 604.0156,652.75 L603.8438,652.6719 Z " fill="#000000"/><text fill="#000000" font-family="sans-serif" font-size="14" lengthAdjust="spacing" textLength="125" x="615.5" y="661.8467">UpdateController</text><line style="stroke:#181818;stroke-width:0.5;" x1="587.5" x2="742.5" y1="673" y2="673"/><line style="stroke:#181818;stroke-width:0.5;" x1="587.5" x2="742.5" y1="681" y2="681"/></g><!--MD5=[7fc12777d76c95bacb9286cf5bb974f9]
class API.controllers.HealthController--><g id="elem_API.controllers.HealthController"><rect codeLine="99" fill="#F1F1F1" height="48" id="API.controllers.HealthController" rx="2.5" ry="2.5" style="stroke:#181818;stroke-width:0.5;" width="152" x="779" y="641"/><ellipse cx="794" cy="657" fill="#ADD1B2" rx="11" ry="11" style="stroke:#181818;stroke-width:1.0;"/><path d="M796.3438,652.6719 C795.4063,652.2344 794.8125,652.0938 793.9375,652.0938 C791.3125,652.0938 789.3125,654.1719 789.3125,656.8906 L789.3125,658.0156 C789.3125,660.5938 791.4219,662.4844 794.3125,662.4844 C795.5313,662.4844 796.6875,662.1875 797.4375,661.6406 C798.0156,661.2344 798.3438,660.7813 798.3438,660.3906 C798.3438,659.9375 797.9531,659.5469 797.4844,659.5469 C797.2656,659.5469 797.0625,659.625 796.875,659.8125 C796.4219,660.2969 796.4219,660.2969 796.2344,660.3906 C795.8125,660.6563 795.125,660.7813 794.3594,660.7813 C792.3125,660.7813 791.0156,659.6875 791.0156,657.9844 L791.0156,656.8906 C791.0156,655.1094 792.2656,653.7969 794,653.7969 C794.5781,653.7969 795.1875,653.9531 795.6563,654.2031 C796.1406,654.4844 796.3125,654.7031 796.4063,655.1094 C796.4688,655.5156 796.5,655.6406 796.6406,655.7656 C796.7813,655.9063 797.0156,656.0156 797.2344,656.0156 C797.5,656.0156 797.7656,655.875 797.9375,655.6563 C798.0469,655.5 798.0781,655.3125 798.0781,654.8906 L798.0781,653.4688 C798.0781,653.0313 798.0625,652.9063 797.9688,652.75 C797.8125,652.4844 797.5313,652.3438 797.2344,652.3438 C796.9375,652.3438 796.7344,652.4375 796.5156,652.75 L796.3438,652.6719 Z " fill="#000000"/><text fill="#000000" font-family="sans-serif" font-size="14" lengthAdjust="spacing" textLength="120" x="808" y="661.8467">HealthController</text><line style="stroke:#181818;stroke-width:0.5;" x1="780" x2="930" y1="673" y2="673"/><line style="stroke:#181818;stroke-width:0.5;" x1="780" x2="930" y1="681" y2="681"/></g><!--MD5=[5868c165899a2433eed87b915e717e60]
class API.controllers.SessionController--><g id="elem_API.controllers.SessionController"><rect codeLine="100" fill="#F1F1F1" height="48" id="API.controllers.SessionController" rx="2.5" ry="2.5" style="stroke:#181818;stroke-width:0.5;" width="159" x="966.5" y="641"/><ellipse cx="981.5" cy="657" fill="#ADD1B2" rx="11" ry="11" style="stroke:#181818;stroke-width:1.0;"/><path d="M983.8438,652.6719 C982.9063,652.2344 982.3125,652.0938 981.4375,652.0938 C978.8125,652.0938 976.8125,654.1719 976.8125,656.8906 L976.8125,658.0156 C976.8125,660.5938 978.9219,662.4844 981.8125,662.4844 C983.0313,662.4844 984.1875,662.1875 984.9375,661.6406 C985.5156,661.2344 985.8438,660.7813 985.8438,660.3906 C985.8438,659.9375 985.4531,659.5469 984.9844,659.5469 C984.7656,659.5469 984.5625,659.625 984.375,659.8125 C983.9219,660.2969 983.9219,660.2969 983.7344,660.3906 C983.3125,660.6563 982.625,660.7813 981.8594,660.7813 C979.8125,660.7813 978.5156,659.6875 978.5156,657.9844 L978.5156,656.8906 C978.5156,655.1094 979.7656,653.7969 981.5,653.7969 C982.0781,653.7969 982.6875,653.9531 983.1563,654.2031 C983.6406,654.4844 983.8125,654.7031 983.9063,655.1094 C983.9688,655.5156 984,655.6406 984.1406,655.7656 C984.2813,655.9063 984.5156,656.0156 984.7344,656.0156 C985,656.0156 985.2656,655.875 985.4375,655.6563 C985.5469,655.5 985.5781,655.3125 985.5781,654.8906 L985.5781,653.4688 C985.5781,653.0313 985.5625,652.9063 985.4688,652.75 C985.3125,652.4844 985.0313,652.3438 984.7344,652.3438 C984.4375,652.3438 984.2344,652.4375 984.0156,652.75 L983.8438,652.6719 Z " fill="#000000"/><text fill="#000000" font-family="sans-serif" font-size="14" lengthAdjust="spacing" textLength="127" x="995.5" y="661.8467">SessionController</text><line style="stroke:#181818;stroke-width:0.5;" x1="967.5" x2="1124.5" y1="673" y2="673"/><line style="stroke:#181818;stroke-width:0.5;" x1="967.5" x2="1124.5" y1="681" y2="681"/></g><!--MD5=[d60232bea8c5e5076c43b26e4f13b8fd]
class PostRequests--><g id="elem_PostRequests"><rect codeLine="2" fill="#F1F1F1" height="48" id="PostRequests" rx="2.5" ry="2.5" style="stroke:#181818;stroke-width:0.5;" width="130" x="7" y="213"/><ellipse cx="22" cy="229" fill="#ADD1B2" rx="11" ry="11" style="stroke:#181818;stroke-width:1.0;"/><path d="M24.3438,224.6719 C23.4063,224.2344 22.8125,224.0938 21.9375,224.0938 C19.3125,224.0938 17.3125,226.1719 17.3125,228.8906 L17.3125,230.0156 C17.3125,232.5938 19.4219,234.4844 22.3125,234.4844 C23.5313,234.4844 24.6875,234.1875 25.4375,233.6406 C26.0156,233.2344 26.3438,232.7813 26.3438,232.3906 C26.3438,231.9375 25.9531,231.5469 25.4844,231.5469 C25.2656,231.5469 25.0625,231.625 24.875,231.8125 C24.4219,232.2969 24.4219,232.2969 24.2344,232.3906 C23.8125,232.6563 23.125,232.7813 22.3594,232.7813 C20.3125,232.7813 19.0156,231.6875 19.0156,229.9844 L19.0156,228.8906 C19.0156,227.1094 20.2656,225.7969 22,225.7969 C22.5781,225.7969 23.1875,225.9531 23.6563,226.2031 C24.1406,226.4844 24.3125,226.7031 24.4063,227.1094 C24.4688,227.5156 24.5,227.6406 24.6406,227.7656 C24.7813,227.9063 25.0156,228.0156 25.2344,228.0156 C25.5,228.0156 25.7656,227.875 25.9375,227.6563 C26.0469,227.5 26.0781,227.3125 26.0781,226.8906 L26.0781,225.4688 C26.0781,225.0313 26.0625,224.9063 25.9688,224.75 C25.8125,224.4844 25.5313,224.3438 25.2344,224.3438 C24.9375,224.3438 24.7344,224.4375 24.5156,224.75 L24.3438,224.6719 Z " fill="#000000"/><text fill="#000000" font-family="sans-serif" font-size="14" lengthAdjust="spacing" textLength="98" x="36" y="233.8467">PostRequests</text><line style="stroke:#181818;stroke-width:0.5;" x1="8" x2="136" y1="245" y2="245"/><line style="stroke:#181818;stroke-width:0.5;" x1="8" x2="136" y1="253" y2="253"/></g><!--MD5=[55f2f54d4896aeb1b49a7cd42cda5d80]
link API.models.GameDataOnPlataform to API.models.Games--><g id="link_API.models.GameDataOnPlataform_API.models.Games"><path codeLine="80" d="M1833.5599,337.2638 C1833.5599,337.2638 1817.189,374.6757 1817.189,374.6757 " fill="none" id="API.models.GameDataOnPlataform-API.models.Games" style="stroke:#181818;stroke-width:1.0;"/><polygon fill="#181818" points="1812.38,385.67,1818.4492,381.7759,1817.189,374.6757,1811.1197,378.5699,1812.38,385.67" style="stroke:#181818;stroke-width:1.0;"/><polygon fill="none" points="1838.37,326.27,1832.3004,330.1635,1833.5599,337.2638,1839.6295,333.3703,1838.37,326.27" style="stroke:#181818;stroke-width:1.0;"/></g><!--MD5=[636c0ffe0fccb2a2db030f8bdc1dd300]
link API.models.Plataforms to API.models.GameDataOnPlataform--><g id="link_API.models.Plataforms_API.models.GameDataOnPlataform"><path codeLine="81" d="M1317.3531,161.1771 C1317.3531,161.1771 1346.75,106.964 1370,89 C1376.31,84.122 1379.57,85.895 1387.5,85 C1426.7,80.578 1703.3,80.578 1742.5,85 C1775.88,88.767 1824.7963,138.0364 1824.7963,138.0364 " fill="none" id="API.models.Plataforms-API.models.GameDataOnPlataform" style="stroke:#181818;stroke-width:1.0;"/><polygon fill="none" points="1832.03,147.611,1831.6047,140.4125,1824.7963,138.0364,1825.2216,145.2349,1832.03,147.611" style="stroke:#181818;stroke-width:1.0;"/><polygon fill="#181818" points="1312.58,172.187,1318.6365,168.2731,1317.3531,161.1771,1311.2966,165.091,1312.58,172.187" style="stroke:#181818;stroke-width:1.0;"/></g><!--MD5=[509b0cefce1d8a80f877e8afa99fd0db]
link API.models.Categories to API.models.Games--><g id="link_API.models.Categories_API.models.Games"><path codeLine="82" d="M2017.5875,302.7441 C2017.5875,302.7441 2001.74,319.063 1994,326 C1965.36,351.678 1899.8586,399.7097 1899.8586,399.7097 " fill="none" id="API.models.Categories-API.models.Games" style="stroke:#181818;stroke-width:1.0;"/><polygon fill="none" points="1890.02,406.58,1897.2294,406.4244,1899.8586,399.7097,1892.6492,399.8653,1890.02,406.58" style="stroke:#181818;stroke-width:1.0;"/><polygon fill="none" points="2025.71,293.911,2018.7044,295.6201,2017.5875,302.7441,2024.5931,301.0351,2025.71,293.911" style="stroke:#181818;stroke-width:1.0;"/></g><!--MD5=[4b4283700bbeebe195ffa34f842e6880]
reverse link API.models.Comments to API.models.Games--><g id="link_API.models.Comments_API.models.Games"><path codeLine="83" d="M1557.26,318.664 C1560.2,321.152 1563.11,323.603 1566,326 C1592.7,348.173 1622,371.313 1649.85,392.788 " fill="none" id="API.models.Comments-backto-API.models.Games" style="stroke:#181818;stroke-width:1.0;"/><polygon fill="none" points="1547.24,310.083,1549.195,317.024,1556.3541,317.889,1554.399,310.948,1547.24,310.083" style="stroke:#181818;stroke-width:1.0;"/></g><!--MD5=[ccfa9386891228a9ae4489618c8e8a5a]
reverse link API.models.Comments to API.models.Users--><g id="link_API.models.Comments_API.models.Users"><path codeLine="84" d="M1508.45,152.42 C1523.5,128.753 1542.7,105.122 1566,89 C1572.56,84.46 1575.57,85.895 1583.5,85 C1613.7,81.593 2100.3,81.593 2130.5,85 C2170.09,89.467 2202.71,117.218 2227.19,147.812 " fill="none" id="API.models.Comments-backto-API.models.Users" style="stroke:#181818;stroke-width:1.0;"/><polygon fill="none" points="1501.62,163.638,1508.158,160.5959,1507.8646,153.3908,1501.3266,156.4329,1501.62,163.638" style="stroke:#181818;stroke-width:1.0;"/></g><!--MD5=[9478490d8e6f75145c55146e285872bd]
reverse link API.models.Medias to API.models.Games--><g id="link_API.models.Medias_API.models.Games"><path codeLine="85" d="M1696.08,313.597 C1706.04,336.342 1717.1,361.622 1727.57,385.55 " fill="none" id="API.models.Medias-backto-API.models.Games" style="stroke:#181818;stroke-width:1.0;"/><polygon fill="none" points="1690.83,301.601,1689.5729,308.7017,1695.6438,312.5931,1696.901,305.4925,1690.83,301.601" style="stroke:#181818;stroke-width:1.0;"/></g><!--MD5=[d57fedc241867a95fa5caf6fc4e74f71]
reverse link API.controllers.BaseController to API.controllers.SelectController--><g id="link_API.controllers.BaseController_API.controllers.SelectController"><path d="M665,561.5 C665,561.5 616.454,604.632 569,621 C492.072,647.535 467.119,626.756 387,641 C381.35,642.004 375.535,643.156 369.7,644.396 " fill="none" id="API.controllers.BaseController-backto-API.controllers.SelectController" style="stroke:#181818;stroke-width:1.0;"/></g><!--MD5=[0aa80887ca67a201fd804355d9b3023d]
reverse link API.controllers.BaseController to API.controllers.InsertController--><g id="link_API.controllers.BaseController_API.controllers.InsertController"><path d="M665,561.5 C665,561.5 613.097,597.016 569,621 C556.413,627.846 542.553,634.718 529.527,640.897 " fill="none" id="API.controllers.BaseController-backto-API.controllers.InsertController" style="stroke:#181818;stroke-width:1.0;"/></g><!--MD5=[bfa27bee3123549b13aef37eca2b3374]
reverse link API.controllers.BaseController to API.controllers.UpdateController--><g id="link_API.controllers.BaseController_API.controllers.UpdateController"><path d="M665,561.5 C665,561.5 665,610.777 665,640.997 " fill="none" id="API.controllers.BaseController-backto-API.controllers.UpdateController" style="stroke:#181818;stroke-width:1.0;"/></g><!--MD5=[25c17d0db913c794f676c80066510af5]
reverse link API.controllers.BaseController to API.controllers.HealthController--><g id="link_API.controllers.BaseController_API.controllers.HealthController"><path d="M665,561.5 C665,561.5 756.342,610.777 812.36,640.997 " fill="none" id="API.controllers.BaseController-backto-API.controllers.HealthController" style="stroke:#181818;stroke-width:1.0;"/></g><!--MD5=[a699e8d1d4b043c89382007cb922abb2]
reverse link API.controllers.BaseController to API.controllers.SessionController--><g id="link_API.controllers.BaseController_API.controllers.SessionController"><path d="M665,561.5 C665,561.5 854.408,612.456 966.13,642.513 " fill="none" id="API.controllers.BaseController-backto-API.controllers.SessionController" style="stroke:#181818;stroke-width:1.0;"/></g><!--MD5=[9359455b34ab352b5178761ff57db762]
link PostRequests to API.controllers.BaseController--><g id="link_PostRequests_API.controllers.BaseController"><path codeLine="102" d="M85.9767,261.08 C100.1822,282.174 124.293,312.13 154,326 C237.68,365.07 488.039,303.568 569,348 C591.871,360.552 610.607,381.158 625.26,402.512 " fill="none" id="PostRequests-to-API.controllers.BaseController" style="stroke:#181818;stroke-width:1.0;"/><polygon fill="#181818" points="628.136,406.791,626.4342,397.0903,625.3464,402.6415,619.7951,401.5537,628.136,406.791" style="stroke:#181818;stroke-width:1.0;"/></g><!--MD5=[c0082073f8dd156976c2ed600eacd516]
reverse link API.libraries.LogManager to API.controllers.BaseController--><g id="link_API.libraries.LogManager_API.controllers.BaseController"><path codeLine="103" d="M665,306.932 C665,337.991 665,374.76 665,406.603 " fill="none" id="API.libraries.LogManager-backto-API.controllers.BaseController" style="stroke:#181818;stroke-width:1.0;"/><polygon fill="#181818" points="665,301.601,661,310.601,665,306.601,669,310.601,665,301.601" style="stroke:#181818;stroke-width:1.0;"/></g><!--MD5=[10db76033b63c7b8e7e46b04a53574a9]
reverse link API.libraries.Atlas to API.controllers.BaseController--><g id="link_API.libraries.Atlas_API.controllers.BaseController"><path codeLine="104" d="M849.777,297.344 C816.989,330.199 775.887,371.386 740.778,406.567 " fill="none" id="API.libraries.Atlas-backto-API.controllers.BaseController" style="stroke:#181818;stroke-width:1.0;"/><polygon fill="#181818" points="853.327,293.787,844.1382,297.3318,849.795,297.3261,849.8008,302.983,853.327,293.787" style="stroke:#181818;stroke-width:1.0;"/></g><!--MD5=[674e0c708c3f3bee3b72a28ffd6f58ea]
link API.libraries.Atlas to API.models--><g id="link_API.libraries.Atlas_API.models"><path codeLine="106" d="M1003.546,237 C1035.893,237 1068.239,237 1100.5845,237 C1116.7573,237 1132.9299,237 1149.1024,237 C1157.1887,237 1165.275,237 1173.3612,237 C1177.4044,237 1181.4475,237 1185.4906,237 C1186.5014,237 1187.5122,237 1188.523,237 C1188.7757,237 1189.0284,237 1189.2811,237 " fill="none" id="API.libraries.Atlas-to-API.models" style="stroke:#181818;stroke-width:1.0;"/><polygon fill="#181818" points="1189.2811,237,1180.2811,233,1184.2811,237,1180.2811,241,1189.2811,237" style="stroke:#181818;stroke-width:1.0;"/></g><!--MD5=[317aa458e6f630194354f1b7048c6f79]
link API.GMN1148036 to API.controllers--><g id="link_API.GMN1148036_API.controllers"><path d="M237.247,264.525 C225.253,286.178 209.559,317.994 202,348 C201.1,351.5726 200.2805,355.2148 199.5349,358.9043 C199.3485,359.8267 199.1667,360.752 198.9895,361.68 C198.9009,362.144 198.8134,362.6086 198.727,363.0739 C198.6838,363.3065 198.6409,363.5393 198.5983,363.7722 " fill="none" id="API.GMN1148036-API.controllers" style="stroke:#181818;stroke-width:1.0;stroke-dasharray:7.0,7.0;"/></g><!--MD5=[6121901bbdd102e2566b05b783e42462]
@startuml
skinparam groupInheritance 3
class PostRequests {}
namespace API {
 namespace libraries {
  class LogManager {
   -logger: Logger
   -handler: StreamHandler
   +LogManager(class)
   +log(message, logLevel): void
   +getFile(): String
  }

  class Atlas {
    -dbPDO: PDO
    +select(ModelClass, ...)
    +insert(ModelClass, ...)
    +update(ModelClass, ...)
  }
 }
 namespace models {
  class Games {
   -id: int
   -name: String
   -description: String
   -categories: List<Categories>
   -comments: List<Comments>
   -medias: List<Medias>
   -plataforms: List<Plataforms>
   +getters()
   +setters()
  }
  class Categories {
   -id: int
   -name: String
   +getters()
   +setters()
  }
  class Comments {
   -id: int
   -gamesId: int
   -userId: int
   -description: String
   +getters()
   +setters()
  }
  class Medias {
   -id: int
   -gamesId: int
   -mediaType: String
   +getters()
   +setters()
  }
  class Plataforms {
   -id: int
   -name: String
   -url: Url
   +getters()
   +setters()
  }
  class GameDataOnPlataform {
   -plataformsId: int
   -gamesId: int
   -price: Double
   -priceUnit: String
   -discount: Float
   -isEnabled: boolean
   +getters()
   +setters()
  }
  class Users {
   -id: int
   -name: String
   -email: String
   -password: String
   -publicityAccepted: boolean
   -imageUrl: String
   +getters()
   +setters()
  }
  GameDataOnPlataform o- -* Games
  Plataforms *-r-o GameDataOnPlataform 
  Categories o- -o Games
  Comments o- - Games
  Comments o-r- Users 
  Medias o- - Games
 }

 namespace controllers {
  class BaseController {
   -logger: array
   -db: PDO
   -atlas: Atlas
   +BaseController()
  }

  class SelectController extends BaseController {}
  class InsertController extends BaseController {}
  class UpdateController extends BaseController {}
  class HealthController extends BaseController {}
  class SessionController extends BaseController {}

  .PostRequests - -> BaseController 
  API.libraries.LogManager <- - BaseController 
  API.libraries.Atlas <- - BaseController 

  API.libraries.Atlas -r-> API.models
 }
 
 note top of API.libraries.Atlas: A Library provider by Slim framework,\n and used for DB Operations
 note top of API.controllers: Validates and process\nrequests and retrieve\nresponses.
}
@enduml

PlantUML version 1.2022.6beta5(Unknown compile time)
(GPL source distribution)
Java Runtime: Java(TM) SE Runtime Environment
JVM: Java HotSpot(TM) 64-Bit Server VM
Default Encoding: UTF-8
Language: en
Country: US
--></g></svg>