<?xml version="1.0" encoding="UTF-8" standalone="no"?><svg xmlns="http://www.w3.org/2000/svg" xmlns:xlink="http://www.w3.org/1999/xlink" contentStyleType="text/css" height="1572px" preserveAspectRatio="none" style="width:877px;height:1572px;background:#FFFFFF;" version="1.1" viewBox="0 0 877 1572" width="877px" zoomAndPan="magnify"><defs/><g><!--MD5=[a500572fe9fdc701d0d4c727d9134cca]
cluster Desktop--><g id="cluster_Desktop"><path d="M8.5,71 L75.5,71 A3.75,3.75 0 0 1 78,73.5 L85,93.2969 L867.5,93.2969 A2.5,2.5 0 0 1 870,95.7969 L870,1562.5 A2.5,2.5 0 0 1 867.5,1565 L8.5,1565 A2.5,2.5 0 0 1 6,1562.5 L6,73.5 A2.5,2.5 0 0 1 8.5,71 " style="stroke:#000000;stroke-width:1.5;fill:none;"/><line style="stroke:#000000;stroke-width:1.5;fill:none;" x1="6" x2="85" y1="93.2969" y2="93.2969"/><text fill="#000000" font-family="sans-serif" font-size="14" font-weight="bold" lengthAdjust="spacing" textLength="66" x="10" y="85.9951">Desktop</text></g><!--MD5=[83cc3761370491bf52278442dffdabb9]
cluster Desktop.pages--><g id="cluster_Desktop.pages"><path d="M262.5,475 L311.5,475 A3.75,3.75 0 0 1 314,477.5 L321,497.2969 L550.5,497.2969 A2.5,2.5 0 0 1 553,499.7969 L553,769 A2.5,2.5 0 0 1 550.5,771.5 L262.5,771.5 A2.5,2.5 0 0 1 260,769 L260,477.5 A2.5,2.5 0 0 1 262.5,475 " style="stroke:#000000;stroke-width:1.5;fill:none;"/><line style="stroke:#000000;stroke-width:1.5;fill:none;" x1="260" x2="321" y1="497.2969" y2="497.2969"/><text fill="#000000" font-family="sans-serif" font-size="14" font-weight="bold" lengthAdjust="spacing" textLength="48" x="264" y="489.9951">pages</text></g><!--MD5=[17d86b2c5a0ae24fde9fd4540775d18f]
cluster Desktop.models--><g id="cluster_Desktop.models"><path d="M40.5,844 L99.5,844 A3.75,3.75 0 0 1 102,846.5 L109,866.2969 L835.5,866.2969 A2.5,2.5 0 0 1 838,868.7969 L838,1530.5 A2.5,2.5 0 0 1 835.5,1533 L40.5,1533 A2.5,2.5 0 0 1 38,1530.5 L38,846.5 A2.5,2.5 0 0 1 40.5,844 " style="stroke:#000000;stroke-width:1.5;fill:none;"/><line style="stroke:#000000;stroke-width:1.5;fill:none;" x1="38" x2="109" y1="866.2969" y2="866.2969"/><text fill="#000000" font-family="sans-serif" font-size="14" font-weight="bold" lengthAdjust="spacing" textLength="58" x="42" y="858.9951">models</text></g><!--MD5=[7546ec5fc10dc6ee2881dfdbadce84d8]
cluster Desktop.domain--><g id="cluster_Desktop.domain"><path d="M579.5,632 L640.5,632 A3.75,3.75 0 0 1 643,634.5 L650,654.2969 L754.5,654.2969 A2.5,2.5 0 0 1 757,656.7969 L757,809.5 A2.5,2.5 0 0 1 754.5,812 L579.5,812 A2.5,2.5 0 0 1 577,809.5 L577,634.5 A2.5,2.5 0 0 1 579.5,632 " style="stroke:#000000;stroke-width:1.5;fill:none;"/><line style="stroke:#000000;stroke-width:1.5;fill:none;" x1="577" x2="650" y1="654.2969" y2="654.2969"/><text fill="#000000" font-family="sans-serif" font-size="14" font-weight="bold" lengthAdjust="spacing" textLength="60" x="581" y="646.9951">domain</text></g><!--MD5=[a7c788eced8dc8a9052ac156c6fb1915]
cluster Desktop.services--><g id="cluster_Desktop.services"><path d="M50.5,114 L117.5,114 A3.75,3.75 0 0 1 120,116.5 L127,136.2969 L560.5,136.2969 A2.5,2.5 0 0 1 563,138.7969 L563,448.5 A2.5,2.5 0 0 1 560.5,451 L50.5,451 A2.5,2.5 0 0 1 48,448.5 L48,116.5 A2.5,2.5 0 0 1 50.5,114 " style="stroke:#000000;stroke-width:1.5;fill:none;"/><line style="stroke:#000000;stroke-width:1.5;fill:none;" x1="48" x2="127" y1="136.2969" y2="136.2969"/><text fill="#000000" font-family="sans-serif" font-size="14" font-weight="bold" lengthAdjust="spacing" textLength="66" x="52" y="128.9951">services</text></g><!--MD5=[5b612881c6f04885929e5a9269182fbb]
class Desktop.App--><g id="elem_Desktop.App"><rect codeLine="125" fill="#F1F1F1" height="80.5938" id="Desktop.App" rx="2.5" ry="2.5" style="stroke:#181818;stroke-width:0.5;" width="173" x="70.5" y="518"/><ellipse cx="137.75" cy="534" fill="#ADD1B2" rx="11" ry="11" style="stroke:#181818;stroke-width:1.0;"/><path d="M140.0938,529.6719 C139.1563,529.2344 138.5625,529.0938 137.6875,529.0938 C135.0625,529.0938 133.0625,531.1719 133.0625,533.8906 L133.0625,535.0156 C133.0625,537.5938 135.1719,539.4844 138.0625,539.4844 C139.2813,539.4844 140.4375,539.1875 141.1875,538.6406 C141.7656,538.2344 142.0938,537.7813 142.0938,537.3906 C142.0938,536.9375 141.7031,536.5469 141.2344,536.5469 C141.0156,536.5469 140.8125,536.625 140.625,536.8125 C140.1719,537.2969 140.1719,537.2969 139.9844,537.3906 C139.5625,537.6563 138.875,537.7813 138.1094,537.7813 C136.0625,537.7813 134.7656,536.6875 134.7656,534.9844 L134.7656,533.8906 C134.7656,532.1094 136.0156,530.7969 137.75,530.7969 C138.3281,530.7969 138.9375,530.9531 139.4063,531.2031 C139.8906,531.4844 140.0625,531.7031 140.1563,532.1094 C140.2188,532.5156 140.25,532.6406 140.3906,532.7656 C140.5313,532.9063 140.7656,533.0156 140.9844,533.0156 C141.25,533.0156 141.5156,532.875 141.6875,532.6563 C141.7969,532.5 141.8281,532.3125 141.8281,531.8906 L141.8281,530.4688 C141.8281,530.0313 141.8125,529.9063 141.7188,529.75 C141.5625,529.4844 141.2813,529.3438 140.9844,529.3438 C140.6875,529.3438 140.4844,529.4375 140.2656,529.75 L140.0938,529.6719 Z " fill="#000000"/><text fill="#000000" font-family="sans-serif" font-size="14" lengthAdjust="spacing" textLength="30" x="158.25" y="538.8467">App</text><line style="stroke:#181818;stroke-width:0.5;" x1="71.5" x2="242.5" y1="550" y2="550"/><rect fill="none" height="6" style="stroke:#C82930;stroke-width:1.0;" width="6" x="78.5" y="558"/><text fill="#000000" font-family="sans-serif" font-size="14" lengthAdjust="spacing" textLength="147" x="90.5" y="566.9951">displayedPage: Page</text><line style="stroke:#181818;stroke-width:0.5;" x1="71.5" x2="242.5" y1="574.2969" y2="574.2969"/><ellipse cx="81.5" cy="585.2969" fill="#84BE84" rx="3" ry="3" style="stroke:#038048;stroke-width:1.0;"/><text fill="#000000" font-family="sans-serif" font-size="14" lengthAdjust="spacing" textLength="45" x="90.5" y="591.292">start()</text></g><!--MD5=[ef9b6ad1b4629545e8cc154317805003]
class Desktop.pages.Page--><g id="elem_Desktop.pages.Page"><rect codeLine="7" fill="#F1F1F1" height="96.8906" id="Desktop.pages.Page" rx="2.5" ry="2.5" style="stroke:#181818;stroke-width:0.5;" width="250" x="287" y="510"/><ellipse cx="390.25" cy="526" fill="#B4A7E5" rx="11" ry="11" style="stroke:#181818;stroke-width:1.0;"/><path d="M391.2031,522.7813 L392.9219,522.7813 C393.3125,522.7813 393.5,522.75 393.625,522.6719 C393.8906,522.5156 394.0313,522.2344 394.0313,521.9375 C394.0313,521.6719 393.9219,521.4063 393.6875,521.2344 C393.5156,521.125 393.375,521.0938 392.9219,521.0938 L387.7813,521.0938 C387.3438,521.0938 387.2188,521.1094 387.0625,521.2031 C386.8125,521.3594 386.6563,521.6563 386.6563,521.9375 C386.6563,522.2188 386.7969,522.4688 387.0156,522.6406 C387.1719,522.75 387.3594,522.7813 387.7813,522.7813 L389.5,522.7813 L389.5,529.2969 L387.7813,529.2969 C387.3438,529.2969 387.2188,529.3125 387.0625,529.4219 C386.8125,529.5781 386.6563,529.8594 386.6563,530.1563 C386.6563,530.4063 386.7969,530.6719 387.0156,530.8281 C387.1719,530.9531 387.375,531 387.7813,531 L392.9219,531 C393.6719,531 394.0313,530.7188 394.0313,530.1563 C394.0313,529.875 393.9219,529.625 393.6875,529.4531 C393.5156,529.3281 393.375,529.2969 392.9219,529.2969 L391.2031,529.2969 L391.2031,522.7813 Z " fill="#000000"/><text fill="#000000" font-family="sans-serif" font-size="14" font-style="italic" lengthAdjust="spacing" textLength="35" x="410.75" y="530.8467">Page</text><line style="stroke:#181818;stroke-width:0.5;" x1="288" x2="536" y1="542" y2="542"/><line style="stroke:#181818;stroke-width:0.5;" x1="288" x2="536" y1="550" y2="550"/><ellipse cx="298" cy="561" fill="#84BE84" rx="3" ry="3" style="stroke:#038048;stroke-width:1.0;"/><text fill="#000000" font-family="sans-serif" font-size="14" lengthAdjust="spacing" textLength="100" x="307" y="566.9951">update(): void</text><polygon fill="#FFFF44" points="298,572.2969,302,576.2969,298,580.2969,294,576.2969" style="stroke:#B38D22;stroke-width:1.0;"/><text fill="#000000" font-family="sans-serif" font-size="14" lengthAdjust="spacing" textLength="204" x="307" y="583.292">componentWillMount(): void</text><polygon fill="#FFFF44" points="298,588.5938,302,592.5938,298,596.5938,294,592.5938" style="stroke:#B38D22;stroke-width:1.0;"/><text fill="#000000" font-family="sans-serif" font-size="14" lengthAdjust="spacing" textLength="224" x="307" y="599.5889">componentWillUnmount(): void</text></g><!--MD5=[a0b2fab5f9ca8caa569a69ca3ec7d106]
class Desktop.pages.HomePage--><g id="elem_Desktop.pages.HomePage"><rect codeLine="12" fill="#F1F1F1" height="48" id="Desktop.pages.HomePage" rx="2.5" ry="2.5" style="stroke:#181818;stroke-width:0.5;" width="109" x="276.5" y="707.5"/><ellipse cx="291.5" cy="723.5" fill="#ADD1B2" rx="11" ry="11" style="stroke:#181818;stroke-width:1.0;"/><path d="M293.8438,719.1719 C292.9063,718.7344 292.3125,718.5938 291.4375,718.5938 C288.8125,718.5938 286.8125,720.6719 286.8125,723.3906 L286.8125,724.5156 C286.8125,727.0938 288.9219,728.9844 291.8125,728.9844 C293.0313,728.9844 294.1875,728.6875 294.9375,728.1406 C295.5156,727.7344 295.8438,727.2813 295.8438,726.8906 C295.8438,726.4375 295.4531,726.0469 294.9844,726.0469 C294.7656,726.0469 294.5625,726.125 294.375,726.3125 C293.9219,726.7969 293.9219,726.7969 293.7344,726.8906 C293.3125,727.1563 292.625,727.2813 291.8594,727.2813 C289.8125,727.2813 288.5156,726.1875 288.5156,724.4844 L288.5156,723.3906 C288.5156,721.6094 289.7656,720.2969 291.5,720.2969 C292.0781,720.2969 292.6875,720.4531 293.1563,720.7031 C293.6406,720.9844 293.8125,721.2031 293.9063,721.6094 C293.9688,722.0156 294,722.1406 294.1406,722.2656 C294.2813,722.4063 294.5156,722.5156 294.7344,722.5156 C295,722.5156 295.2656,722.375 295.4375,722.1563 C295.5469,722 295.5781,721.8125 295.5781,721.3906 L295.5781,719.9688 C295.5781,719.5313 295.5625,719.4063 295.4688,719.25 C295.3125,718.9844 295.0313,718.8438 294.7344,718.8438 C294.4375,718.8438 294.2344,718.9375 294.0156,719.25 L293.8438,719.1719 Z " fill="#000000"/><text fill="#000000" font-family="sans-serif" font-size="14" lengthAdjust="spacing" textLength="77" x="305.5" y="728.3467">HomePage</text><line style="stroke:#181818;stroke-width:0.5;" x1="277.5" x2="384.5" y1="739.5" y2="739.5"/><line style="stroke:#181818;stroke-width:0.5;" x1="277.5" x2="384.5" y1="747.5" y2="747.5"/></g><!--MD5=[3feef39dc80aa7fd8655d601ec8df186]
class Desktop.pages.GamesPage--><g id="elem_Desktop.pages.GamesPage"><rect codeLine="13" fill="#F1F1F1" height="48" id="Desktop.pages.GamesPage" rx="2.5" ry="2.5" style="stroke:#181818;stroke-width:0.5;" width="116" x="421" y="707.5"/><ellipse cx="436" cy="723.5" fill="#ADD1B2" rx="11" ry="11" style="stroke:#181818;stroke-width:1.0;"/><path d="M438.3438,719.1719 C437.4063,718.7344 436.8125,718.5938 435.9375,718.5938 C433.3125,718.5938 431.3125,720.6719 431.3125,723.3906 L431.3125,724.5156 C431.3125,727.0938 433.4219,728.9844 436.3125,728.9844 C437.5313,728.9844 438.6875,728.6875 439.4375,728.1406 C440.0156,727.7344 440.3438,727.2813 440.3438,726.8906 C440.3438,726.4375 439.9531,726.0469 439.4844,726.0469 C439.2656,726.0469 439.0625,726.125 438.875,726.3125 C438.4219,726.7969 438.4219,726.7969 438.2344,726.8906 C437.8125,727.1563 437.125,727.2813 436.3594,727.2813 C434.3125,727.2813 433.0156,726.1875 433.0156,724.4844 L433.0156,723.3906 C433.0156,721.6094 434.2656,720.2969 436,720.2969 C436.5781,720.2969 437.1875,720.4531 437.6563,720.7031 C438.1406,720.9844 438.3125,721.2031 438.4063,721.6094 C438.4688,722.0156 438.5,722.1406 438.6406,722.2656 C438.7813,722.4063 439.0156,722.5156 439.2344,722.5156 C439.5,722.5156 439.7656,722.375 439.9375,722.1563 C440.0469,722 440.0781,721.8125 440.0781,721.3906 L440.0781,719.9688 C440.0781,719.5313 440.0625,719.4063 439.9688,719.25 C439.8125,718.9844 439.5313,718.8438 439.2344,718.8438 C438.9375,718.8438 438.7344,718.9375 438.5156,719.25 L438.3438,719.1719 Z " fill="#000000"/><text fill="#000000" font-family="sans-serif" font-size="14" lengthAdjust="spacing" textLength="84" x="450" y="728.3467">GamesPage</text><line style="stroke:#181818;stroke-width:0.5;" x1="422" x2="536" y1="739.5" y2="739.5"/><line style="stroke:#181818;stroke-width:0.5;" x1="422" x2="536" y1="747.5" y2="747.5"/></g><!--MD5=[d9e8eab182553b5eb6e502b3cac18190]
class Desktop.models.Games--><g id="elem_Desktop.models.Games"><rect codeLine="16" fill="#F1F1F1" height="194.6719" id="Desktop.models.Games" rx="2.5" ry="2.5" style="stroke:#181818;stroke-width:0.5;" width="240" x="359" y="887"/><ellipse cx="450.25" cy="903" fill="#ADD1B2" rx="11" ry="11" style="stroke:#181818;stroke-width:1.0;"/><path d="M452.5938,898.6719 C451.6563,898.2344 451.0625,898.0938 450.1875,898.0938 C447.5625,898.0938 445.5625,900.1719 445.5625,902.8906 L445.5625,904.0156 C445.5625,906.5938 447.6719,908.4844 450.5625,908.4844 C451.7813,908.4844 452.9375,908.1875 453.6875,907.6406 C454.2656,907.2344 454.5938,906.7813 454.5938,906.3906 C454.5938,905.9375 454.2031,905.5469 453.7344,905.5469 C453.5156,905.5469 453.3125,905.625 453.125,905.8125 C452.6719,906.2969 452.6719,906.2969 452.4844,906.3906 C452.0625,906.6563 451.375,906.7813 450.6094,906.7813 C448.5625,906.7813 447.2656,905.6875 447.2656,903.9844 L447.2656,902.8906 C447.2656,901.1094 448.5156,899.7969 450.25,899.7969 C450.8281,899.7969 451.4375,899.9531 451.9063,900.2031 C452.3906,900.4844 452.5625,900.7031 452.6563,901.1094 C452.7188,901.5156 452.75,901.6406 452.8906,901.7656 C453.0313,901.9063 453.2656,902.0156 453.4844,902.0156 C453.75,902.0156 454.0156,901.875 454.1875,901.6563 C454.2969,901.5 454.3281,901.3125 454.3281,900.8906 L454.3281,899.4688 C454.3281,899.0313 454.3125,898.9063 454.2188,898.75 C454.0625,898.4844 453.7813,898.3438 453.4844,898.3438 C453.1875,898.3438 452.9844,898.4375 452.7656,898.75 L452.5938,898.6719 Z " fill="#000000"/><text fill="#000000" font-family="sans-serif" font-size="14" lengthAdjust="spacing" textLength="49" x="470.75" y="907.8467">Games</text><line style="stroke:#181818;stroke-width:0.5;" x1="360" x2="598" y1="919" y2="919"/><rect fill="none" height="6" style="stroke:#C82930;stroke-width:1.0;" width="6" x="367" y="927"/><text fill="#000000" font-family="sans-serif" font-size="14" lengthAdjust="spacing" textLength="42" x="379" y="935.9951">id: int</text><rect fill="none" height="6" style="stroke:#C82930;stroke-width:1.0;" width="6" x="367" y="943.2969"/><text fill="#000000" font-family="sans-serif" font-size="14" lengthAdjust="spacing" textLength="93" x="379" y="952.292">name: String</text><rect fill="none" height="6" style="stroke:#C82930;stroke-width:1.0;" width="6" x="367" y="959.5938"/><text fill="#000000" font-family="sans-serif" font-size="14" lengthAdjust="spacing" textLength="135" x="379" y="968.5889">description: String</text><rect fill="none" height="6" style="stroke:#C82930;stroke-width:1.0;" width="6" x="367" y="975.8906"/><text fill="#000000" font-family="sans-serif" font-size="14" lengthAdjust="spacing" textLength="211" x="379" y="984.8857">categories: List&lt;Categories&gt;</text><rect fill="none" height="6" style="stroke:#C82930;stroke-width:1.0;" width="6" x="367" y="992.1875"/><text fill="#000000" font-family="sans-serif" font-size="14" lengthAdjust="spacing" textLength="213" x="379" y="1001.1826">comments: List&lt;Comments&gt;</text><rect fill="none" height="6" style="stroke:#C82930;stroke-width:1.0;" width="6" x="367" y="1008.4844"/><text fill="#000000" font-family="sans-serif" font-size="14" lengthAdjust="spacing" textLength="157" x="379" y="1017.4795">medias: List&lt;Medias&gt;</text><rect fill="none" height="6" style="stroke:#C82930;stroke-width:1.0;" width="6" x="367" y="1024.7813"/><text fill="#000000" font-family="sans-serif" font-size="14" lengthAdjust="spacing" textLength="214" x="379" y="1033.7764">plataforms: List&lt;Plataforms&gt;</text><line style="stroke:#181818;stroke-width:0.5;" x1="360" x2="598" y1="1041.0781" y2="1041.0781"/><ellipse cx="370" cy="1052.0781" fill="#84BE84" rx="3" ry="3" style="stroke:#038048;stroke-width:1.0;"/><text fill="#000000" font-family="sans-serif" font-size="14" lengthAdjust="spacing" textLength="64" x="379" y="1058.0732">getters()</text><ellipse cx="370" cy="1068.375" fill="#84BE84" rx="3" ry="3" style="stroke:#038048;stroke-width:1.0;"/><text fill="#000000" font-family="sans-serif" font-size="14" lengthAdjust="spacing" textLength="62" x="379" y="1074.3701">setters()</text></g><!--MD5=[ce1a63c981e911dcb990e791637a1010]
class Desktop.models.Categories--><g id="elem_Desktop.models.Categories"><rect codeLine="27" fill="#F1F1F1" height="113.1875" id="Desktop.models.Categories" rx="2.5" ry="2.5" style="stroke:#181818;stroke-width:0.5;" width="119" x="258.5" y="1174.5"/><ellipse cx="277.55" cy="1190.5" fill="#ADD1B2" rx="11" ry="11" style="stroke:#181818;stroke-width:1.0;"/><path d="M279.8938,1186.1719 C278.9563,1185.7344 278.3625,1185.5938 277.4875,1185.5938 C274.8625,1185.5938 272.8625,1187.6719 272.8625,1190.3906 L272.8625,1191.5156 C272.8625,1194.0938 274.9719,1195.9844 277.8625,1195.9844 C279.0813,1195.9844 280.2375,1195.6875 280.9875,1195.1406 C281.5656,1194.7344 281.8938,1194.2813 281.8938,1193.8906 C281.8938,1193.4375 281.5031,1193.0469 281.0344,1193.0469 C280.8156,1193.0469 280.6125,1193.125 280.425,1193.3125 C279.9719,1193.7969 279.9719,1193.7969 279.7844,1193.8906 C279.3625,1194.1563 278.675,1194.2813 277.9094,1194.2813 C275.8625,1194.2813 274.5656,1193.1875 274.5656,1191.4844 L274.5656,1190.3906 C274.5656,1188.6094 275.8156,1187.2969 277.55,1187.2969 C278.1281,1187.2969 278.7375,1187.4531 279.2063,1187.7031 C279.6906,1187.9844 279.8625,1188.2031 279.9563,1188.6094 C280.0188,1189.0156 280.05,1189.1406 280.1906,1189.2656 C280.3313,1189.4063 280.5656,1189.5156 280.7844,1189.5156 C281.05,1189.5156 281.3156,1189.375 281.4875,1189.1563 C281.5969,1189 281.6281,1188.8125 281.6281,1188.3906 L281.6281,1186.9688 C281.6281,1186.5313 281.6125,1186.4063 281.5188,1186.25 C281.3625,1185.9844 281.0813,1185.8438 280.7844,1185.8438 C280.4875,1185.8438 280.2844,1185.9375 280.0656,1186.25 L279.8938,1186.1719 Z " fill="#000000"/><text fill="#000000" font-family="sans-serif" font-size="14" lengthAdjust="spacing" textLength="78" x="292.45" y="1195.3467">Categories</text><line style="stroke:#181818;stroke-width:0.5;" x1="259.5" x2="376.5" y1="1206.5" y2="1206.5"/><rect fill="none" height="6" style="stroke:#C82930;stroke-width:1.0;" width="6" x="266.5" y="1214.5"/><text fill="#000000" font-family="sans-serif" font-size="14" lengthAdjust="spacing" textLength="42" x="278.5" y="1223.4951">id: int</text><rect fill="none" height="6" style="stroke:#C82930;stroke-width:1.0;" width="6" x="266.5" y="1230.7969"/><text fill="#000000" font-family="sans-serif" font-size="14" lengthAdjust="spacing" textLength="93" x="278.5" y="1239.792">name: String</text><line style="stroke:#181818;stroke-width:0.5;" x1="259.5" x2="376.5" y1="1247.0938" y2="1247.0938"/><ellipse cx="269.5" cy="1258.0938" fill="#84BE84" rx="3" ry="3" style="stroke:#038048;stroke-width:1.0;"/><text fill="#000000" font-family="sans-serif" font-size="14" lengthAdjust="spacing" textLength="64" x="278.5" y="1264.0889">getters()</text><ellipse cx="269.5" cy="1274.3906" fill="#84BE84" rx="3" ry="3" style="stroke:#038048;stroke-width:1.0;"/><text fill="#000000" font-family="sans-serif" font-size="14" lengthAdjust="spacing" textLength="62" x="278.5" y="1280.3857">setters()</text></g><!--MD5=[ae4ad1e261b393473fcd615d4ff30c01]
class Desktop.models.Comments--><g id="elem_Desktop.models.Comments"><rect codeLine="33" fill="#F1F1F1" height="145.7813" id="Desktop.models.Comments" rx="2.5" ry="2.5" style="stroke:#181818;stroke-width:0.5;" width="161" x="62.5" y="1158"/><ellipse cx="100" cy="1174" fill="#ADD1B2" rx="11" ry="11" style="stroke:#181818;stroke-width:1.0;"/><path d="M102.3438,1169.6719 C101.4063,1169.2344 100.8125,1169.0938 99.9375,1169.0938 C97.3125,1169.0938 95.3125,1171.1719 95.3125,1173.8906 L95.3125,1175.0156 C95.3125,1177.5938 97.4219,1179.4844 100.3125,1179.4844 C101.5313,1179.4844 102.6875,1179.1875 103.4375,1178.6406 C104.0156,1178.2344 104.3438,1177.7813 104.3438,1177.3906 C104.3438,1176.9375 103.9531,1176.5469 103.4844,1176.5469 C103.2656,1176.5469 103.0625,1176.625 102.875,1176.8125 C102.4219,1177.2969 102.4219,1177.2969 102.2344,1177.3906 C101.8125,1177.6563 101.125,1177.7813 100.3594,1177.7813 C98.3125,1177.7813 97.0156,1176.6875 97.0156,1174.9844 L97.0156,1173.8906 C97.0156,1172.1094 98.2656,1170.7969 100,1170.7969 C100.5781,1170.7969 101.1875,1170.9531 101.6563,1171.2031 C102.1406,1171.4844 102.3125,1171.7031 102.4063,1172.1094 C102.4688,1172.5156 102.5,1172.6406 102.6406,1172.7656 C102.7813,1172.9063 103.0156,1173.0156 103.2344,1173.0156 C103.5,1173.0156 103.7656,1172.875 103.9375,1172.6563 C104.0469,1172.5 104.0781,1172.3125 104.0781,1171.8906 L104.0781,1170.4688 C104.0781,1170.0313 104.0625,1169.9063 103.9688,1169.75 C103.8125,1169.4844 103.5313,1169.3438 103.2344,1169.3438 C102.9375,1169.3438 102.7344,1169.4375 102.5156,1169.75 L102.3438,1169.6719 Z " fill="#000000"/><text fill="#000000" font-family="sans-serif" font-size="14" lengthAdjust="spacing" textLength="79" x="119" y="1178.8467">Comments</text><line style="stroke:#181818;stroke-width:0.5;" x1="63.5" x2="222.5" y1="1190" y2="1190"/><rect fill="none" height="6" style="stroke:#C82930;stroke-width:1.0;" width="6" x="70.5" y="1198"/><text fill="#000000" font-family="sans-serif" font-size="14" lengthAdjust="spacing" textLength="42" x="82.5" y="1206.9951">id: int</text><rect fill="none" height="6" style="stroke:#C82930;stroke-width:1.0;" width="6" x="70.5" y="1214.2969"/><text fill="#000000" font-family="sans-serif" font-size="14" lengthAdjust="spacing" textLength="89" x="82.5" y="1223.292">gamesId: int</text><rect fill="none" height="6" style="stroke:#C82930;stroke-width:1.0;" width="6" x="70.5" y="1230.5938"/><text fill="#000000" font-family="sans-serif" font-size="14" lengthAdjust="spacing" textLength="72" x="82.5" y="1239.5889">userId: int</text><rect fill="none" height="6" style="stroke:#C82930;stroke-width:1.0;" width="6" x="70.5" y="1246.8906"/><text fill="#000000" font-family="sans-serif" font-size="14" lengthAdjust="spacing" textLength="135" x="82.5" y="1255.8857">description: String</text><line style="stroke:#181818;stroke-width:0.5;" x1="63.5" x2="222.5" y1="1263.1875" y2="1263.1875"/><ellipse cx="73.5" cy="1274.1875" fill="#84BE84" rx="3" ry="3" style="stroke:#038048;stroke-width:1.0;"/><text fill="#000000" font-family="sans-serif" font-size="14" lengthAdjust="spacing" textLength="64" x="82.5" y="1280.1826">getters()</text><ellipse cx="73.5" cy="1290.4844" fill="#84BE84" rx="3" ry="3" style="stroke:#038048;stroke-width:1.0;"/><text fill="#000000" font-family="sans-serif" font-size="14" lengthAdjust="spacing" textLength="62" x="82.5" y="1296.4795">setters()</text></g><!--MD5=[0f56d2100571d90f0d297d2398ec52a1]
class Desktop.models.Medias--><g id="elem_Desktop.models.Medias"><rect codeLine="41" fill="#F1F1F1" height="129.4844" id="Desktop.models.Medias" rx="2.5" ry="2.5" style="stroke:#181818;stroke-width:0.5;" width="159" x="412.5" y="1166.5"/><ellipse cx="463.25" cy="1182.5" fill="#ADD1B2" rx="11" ry="11" style="stroke:#181818;stroke-width:1.0;"/><path d="M465.5938,1178.1719 C464.6563,1177.7344 464.0625,1177.5938 463.1875,1177.5938 C460.5625,1177.5938 458.5625,1179.6719 458.5625,1182.3906 L458.5625,1183.5156 C458.5625,1186.0938 460.6719,1187.9844 463.5625,1187.9844 C464.7813,1187.9844 465.9375,1187.6875 466.6875,1187.1406 C467.2656,1186.7344 467.5938,1186.2813 467.5938,1185.8906 C467.5938,1185.4375 467.2031,1185.0469 466.7344,1185.0469 C466.5156,1185.0469 466.3125,1185.125 466.125,1185.3125 C465.6719,1185.7969 465.6719,1185.7969 465.4844,1185.8906 C465.0625,1186.1563 464.375,1186.2813 463.6094,1186.2813 C461.5625,1186.2813 460.2656,1185.1875 460.2656,1183.4844 L460.2656,1182.3906 C460.2656,1180.6094 461.5156,1179.2969 463.25,1179.2969 C463.8281,1179.2969 464.4375,1179.4531 464.9063,1179.7031 C465.3906,1179.9844 465.5625,1180.2031 465.6563,1180.6094 C465.7188,1181.0156 465.75,1181.1406 465.8906,1181.2656 C466.0313,1181.4063 466.2656,1181.5156 466.4844,1181.5156 C466.75,1181.5156 467.0156,1181.375 467.1875,1181.1563 C467.2969,1181 467.3281,1180.8125 467.3281,1180.3906 L467.3281,1178.9688 C467.3281,1178.5313 467.3125,1178.4063 467.2188,1178.25 C467.0625,1177.9844 466.7813,1177.8438 466.4844,1177.8438 C466.1875,1177.8438 465.9844,1177.9375 465.7656,1178.25 L465.5938,1178.1719 Z " fill="#000000"/><text fill="#000000" font-family="sans-serif" font-size="14" lengthAdjust="spacing" textLength="49" x="483.75" y="1187.3467">Medias</text><line style="stroke:#181818;stroke-width:0.5;" x1="413.5" x2="570.5" y1="1198.5" y2="1198.5"/><rect fill="none" height="6" style="stroke:#C82930;stroke-width:1.0;" width="6" x="420.5" y="1206.5"/><text fill="#000000" font-family="sans-serif" font-size="14" lengthAdjust="spacing" textLength="42" x="432.5" y="1215.4951">id: int</text><rect fill="none" height="6" style="stroke:#C82930;stroke-width:1.0;" width="6" x="420.5" y="1222.7969"/><text fill="#000000" font-family="sans-serif" font-size="14" lengthAdjust="spacing" textLength="89" x="432.5" y="1231.792">gamesId: int</text><rect fill="none" height="6" style="stroke:#C82930;stroke-width:1.0;" width="6" x="420.5" y="1239.0938"/><text fill="#000000" font-family="sans-serif" font-size="14" lengthAdjust="spacing" textLength="133" x="432.5" y="1248.0889">mediaType: String</text><line style="stroke:#181818;stroke-width:0.5;" x1="413.5" x2="570.5" y1="1255.3906" y2="1255.3906"/><ellipse cx="423.5" cy="1266.3906" fill="#84BE84" rx="3" ry="3" style="stroke:#038048;stroke-width:1.0;"/><text fill="#000000" font-family="sans-serif" font-size="14" lengthAdjust="spacing" textLength="64" x="432.5" y="1272.3857">getters()</text><ellipse cx="423.5" cy="1282.6875" fill="#84BE84" rx="3" ry="3" style="stroke:#038048;stroke-width:1.0;"/><text fill="#000000" font-family="sans-serif" font-size="14" lengthAdjust="spacing" textLength="62" x="432.5" y="1288.6826">setters()</text></g><!--MD5=[78373ad862942298a8c64cc4f5e95f13]
class Desktop.models.GameDataOnPlataform--><g id="elem_Desktop.models.GameDataOnPlataform"><rect codeLine="48" fill="#F1F1F1" height="178.375" id="Desktop.models.GameDataOnPlataform" rx="2.5" ry="2.5" style="stroke:#181818;stroke-width:0.5;" width="199" x="606.5" y="1142"/><ellipse cx="621.5" cy="1158" fill="#ADD1B2" rx="11" ry="11" style="stroke:#181818;stroke-width:1.0;"/><path d="M623.8438,1153.6719 C622.9063,1153.2344 622.3125,1153.0938 621.4375,1153.0938 C618.8125,1153.0938 616.8125,1155.1719 616.8125,1157.8906 L616.8125,1159.0156 C616.8125,1161.5938 618.9219,1163.4844 621.8125,1163.4844 C623.0313,1163.4844 624.1875,1163.1875 624.9375,1162.6406 C625.5156,1162.2344 625.8438,1161.7813 625.8438,1161.3906 C625.8438,1160.9375 625.4531,1160.5469 624.9844,1160.5469 C624.7656,1160.5469 624.5625,1160.625 624.375,1160.8125 C623.9219,1161.2969 623.9219,1161.2969 623.7344,1161.3906 C623.3125,1161.6563 622.625,1161.7813 621.8594,1161.7813 C619.8125,1161.7813 618.5156,1160.6875 618.5156,1158.9844 L618.5156,1157.8906 C618.5156,1156.1094 619.7656,1154.7969 621.5,1154.7969 C622.0781,1154.7969 622.6875,1154.9531 623.1563,1155.2031 C623.6406,1155.4844 623.8125,1155.7031 623.9063,1156.1094 C623.9688,1156.5156 624,1156.6406 624.1406,1156.7656 C624.2813,1156.9063 624.5156,1157.0156 624.7344,1157.0156 C625,1157.0156 625.2656,1156.875 625.4375,1156.6563 C625.5469,1156.5 625.5781,1156.3125 625.5781,1155.8906 L625.5781,1154.4688 C625.5781,1154.0313 625.5625,1153.9063 625.4688,1153.75 C625.3125,1153.4844 625.0313,1153.3438 624.7344,1153.3438 C624.4375,1153.3438 624.2344,1153.4375 624.0156,1153.75 L623.8438,1153.6719 Z " fill="#000000"/><text fill="#000000" font-family="sans-serif" font-size="14" lengthAdjust="spacing" textLength="167" x="635.5" y="1162.8467">GameDataOnPlataform</text><line style="stroke:#181818;stroke-width:0.5;" x1="607.5" x2="804.5" y1="1174" y2="1174"/><rect fill="none" height="6" style="stroke:#C82930;stroke-width:1.0;" width="6" x="614.5" y="1182"/><text fill="#000000" font-family="sans-serif" font-size="14" lengthAdjust="spacing" textLength="121" x="626.5" y="1190.9951">plataformsId: int</text><rect fill="none" height="6" style="stroke:#C82930;stroke-width:1.0;" width="6" x="614.5" y="1198.2969"/><text fill="#000000" font-family="sans-serif" font-size="14" lengthAdjust="spacing" textLength="89" x="626.5" y="1207.292">gamesId: int</text><rect fill="none" height="6" style="stroke:#C82930;stroke-width:1.0;" width="6" x="614.5" y="1214.5938"/><text fill="#000000" font-family="sans-serif" font-size="14" lengthAdjust="spacing" textLength="97" x="626.5" y="1223.5889">price: Double</text><rect fill="none" height="6" style="stroke:#C82930;stroke-width:1.0;" width="6" x="614.5" y="1230.8906"/><text fill="#000000" font-family="sans-serif" font-size="14" lengthAdjust="spacing" textLength="119" x="626.5" y="1239.8857">priceUnit: String</text><rect fill="none" height="6" style="stroke:#C82930;stroke-width:1.0;" width="6" x="614.5" y="1247.1875"/><text fill="#000000" font-family="sans-serif" font-size="14" lengthAdjust="spacing" textLength="106" x="626.5" y="1256.1826">discount: Float</text><rect fill="none" height="6" style="stroke:#C82930;stroke-width:1.0;" width="6" x="614.5" y="1263.4844"/><text fill="#000000" font-family="sans-serif" font-size="14" lengthAdjust="spacing" textLength="136" x="626.5" y="1272.4795">isEnabled: boolean</text><line style="stroke:#181818;stroke-width:0.5;" x1="607.5" x2="804.5" y1="1279.7813" y2="1279.7813"/><ellipse cx="617.5" cy="1290.7813" fill="#84BE84" rx="3" ry="3" style="stroke:#038048;stroke-width:1.0;"/><text fill="#000000" font-family="sans-serif" font-size="14" lengthAdjust="spacing" textLength="64" x="626.5" y="1296.7764">getters()</text><ellipse cx="617.5" cy="1307.0781" fill="#84BE84" rx="3" ry="3" style="stroke:#038048;stroke-width:1.0;"/><text fill="#000000" font-family="sans-serif" font-size="14" lengthAdjust="spacing" textLength="62" x="626.5" y="1313.0732">setters()</text></g><!--MD5=[8cd2ee16af47b2bd7e7de93daa011793]
class Desktop.models.Plataforms--><g id="elem_Desktop.models.Plataforms"><rect codeLine="58" fill="#F1F1F1" height="129.4844" id="Desktop.models.Plataforms" rx="2.5" ry="2.5" style="stroke:#181818;stroke-width:0.5;" width="119" x="646.5" y="1380"/><ellipse cx="665.55" cy="1396" fill="#ADD1B2" rx="11" ry="11" style="stroke:#181818;stroke-width:1.0;"/><path d="M667.8938,1391.6719 C666.9563,1391.2344 666.3625,1391.0938 665.4875,1391.0938 C662.8625,1391.0938 660.8625,1393.1719 660.8625,1395.8906 L660.8625,1397.0156 C660.8625,1399.5938 662.9719,1401.4844 665.8625,1401.4844 C667.0813,1401.4844 668.2375,1401.1875 668.9875,1400.6406 C669.5656,1400.2344 669.8938,1399.7813 669.8938,1399.3906 C669.8938,1398.9375 669.5031,1398.5469 669.0344,1398.5469 C668.8156,1398.5469 668.6125,1398.625 668.425,1398.8125 C667.9719,1399.2969 667.9719,1399.2969 667.7844,1399.3906 C667.3625,1399.6563 666.675,1399.7813 665.9094,1399.7813 C663.8625,1399.7813 662.5656,1398.6875 662.5656,1396.9844 L662.5656,1395.8906 C662.5656,1394.1094 663.8156,1392.7969 665.55,1392.7969 C666.1281,1392.7969 666.7375,1392.9531 667.2063,1393.2031 C667.6906,1393.4844 667.8625,1393.7031 667.9563,1394.1094 C668.0188,1394.5156 668.05,1394.6406 668.1906,1394.7656 C668.3313,1394.9063 668.5656,1395.0156 668.7844,1395.0156 C669.05,1395.0156 669.3156,1394.875 669.4875,1394.6563 C669.5969,1394.5 669.6281,1394.3125 669.6281,1393.8906 L669.6281,1392.4688 C669.6281,1392.0313 669.6125,1391.9063 669.5188,1391.75 C669.3625,1391.4844 669.0813,1391.3438 668.7844,1391.3438 C668.4875,1391.3438 668.2844,1391.4375 668.0656,1391.75 L667.8938,1391.6719 Z " fill="#000000"/><text fill="#000000" font-family="sans-serif" font-size="14" lengthAdjust="spacing" textLength="78" x="680.45" y="1400.8467">Plataforms</text><line style="stroke:#181818;stroke-width:0.5;" x1="647.5" x2="764.5" y1="1412" y2="1412"/><rect fill="none" height="6" style="stroke:#C82930;stroke-width:1.0;" width="6" x="654.5" y="1420"/><text fill="#000000" font-family="sans-serif" font-size="14" lengthAdjust="spacing" textLength="42" x="666.5" y="1428.9951">id: int</text><rect fill="none" height="6" style="stroke:#C82930;stroke-width:1.0;" width="6" x="654.5" y="1436.2969"/><text fill="#000000" font-family="sans-serif" font-size="14" lengthAdjust="spacing" textLength="93" x="666.5" y="1445.292">name: String</text><rect fill="none" height="6" style="stroke:#C82930;stroke-width:1.0;" width="6" x="654.5" y="1452.5938"/><text fill="#000000" font-family="sans-serif" font-size="14" lengthAdjust="spacing" textLength="46" x="666.5" y="1461.5889">url: Url</text><line style="stroke:#181818;stroke-width:0.5;" x1="647.5" x2="764.5" y1="1468.8906" y2="1468.8906"/><ellipse cx="657.5" cy="1479.8906" fill="#84BE84" rx="3" ry="3" style="stroke:#038048;stroke-width:1.0;"/><text fill="#000000" font-family="sans-serif" font-size="14" lengthAdjust="spacing" textLength="64" x="666.5" y="1485.8857">getters()</text><ellipse cx="657.5" cy="1496.1875" fill="#84BE84" rx="3" ry="3" style="stroke:#038048;stroke-width:1.0;"/><text fill="#000000" font-family="sans-serif" font-size="14" lengthAdjust="spacing" textLength="62" x="666.5" y="1502.1826">setters()</text></g><!--MD5=[5d73a355f43f4a0978f2777ffb189052]
class Desktop.models.Users--><g id="elem_Desktop.models.Users"><rect codeLine="65" fill="#F1F1F1" height="178.375" id="Desktop.models.Users" rx="2.5" ry="2.5" style="stroke:#181818;stroke-width:0.5;" width="226" x="86" y="895.5"/><ellipse cx="175.75" cy="911.5" fill="#ADD1B2" rx="11" ry="11" style="stroke:#181818;stroke-width:1.0;"/><path d="M178.0938,907.1719 C177.1563,906.7344 176.5625,906.5938 175.6875,906.5938 C173.0625,906.5938 171.0625,908.6719 171.0625,911.3906 L171.0625,912.5156 C171.0625,915.0938 173.1719,916.9844 176.0625,916.9844 C177.2813,916.9844 178.4375,916.6875 179.1875,916.1406 C179.7656,915.7344 180.0938,915.2813 180.0938,914.8906 C180.0938,914.4375 179.7031,914.0469 179.2344,914.0469 C179.0156,914.0469 178.8125,914.125 178.625,914.3125 C178.1719,914.7969 178.1719,914.7969 177.9844,914.8906 C177.5625,915.1563 176.875,915.2813 176.1094,915.2813 C174.0625,915.2813 172.7656,914.1875 172.7656,912.4844 L172.7656,911.3906 C172.7656,909.6094 174.0156,908.2969 175.75,908.2969 C176.3281,908.2969 176.9375,908.4531 177.4063,908.7031 C177.8906,908.9844 178.0625,909.2031 178.1563,909.6094 C178.2188,910.0156 178.25,910.1406 178.3906,910.2656 C178.5313,910.4063 178.7656,910.5156 178.9844,910.5156 C179.25,910.5156 179.5156,910.375 179.6875,910.1563 C179.7969,910 179.8281,909.8125 179.8281,909.3906 L179.8281,907.9688 C179.8281,907.5313 179.8125,907.4063 179.7188,907.25 C179.5625,906.9844 179.2813,906.8438 178.9844,906.8438 C178.6875,906.8438 178.4844,906.9375 178.2656,907.25 L178.0938,907.1719 Z " fill="#000000"/><text fill="#000000" font-family="sans-serif" font-size="14" lengthAdjust="spacing" textLength="38" x="196.25" y="916.3467">Users</text><line style="stroke:#181818;stroke-width:0.5;" x1="87" x2="311" y1="927.5" y2="927.5"/><rect fill="none" height="6" style="stroke:#C82930;stroke-width:1.0;" width="6" x="94" y="935.5"/><text fill="#000000" font-family="sans-serif" font-size="14" lengthAdjust="spacing" textLength="42" x="106" y="944.4951">id: int</text><rect fill="none" height="6" style="stroke:#C82930;stroke-width:1.0;" width="6" x="94" y="951.7969"/><text fill="#000000" font-family="sans-serif" font-size="14" lengthAdjust="spacing" textLength="93" x="106" y="960.792">name: String</text><rect fill="none" height="6" style="stroke:#C82930;stroke-width:1.0;" width="6" x="94" y="968.0938"/><text fill="#000000" font-family="sans-serif" font-size="14" lengthAdjust="spacing" textLength="92" x="106" y="977.0889">email: String</text><rect fill="none" height="6" style="stroke:#C82930;stroke-width:1.0;" width="6" x="94" y="984.3906"/><text fill="#000000" font-family="sans-serif" font-size="14" lengthAdjust="spacing" textLength="120" x="106" y="993.3857">password: String</text><rect fill="none" height="6" style="stroke:#C82930;stroke-width:1.0;" width="6" x="94" y="1000.6875"/><text fill="#000000" font-family="sans-serif" font-size="14" lengthAdjust="spacing" textLength="200" x="106" y="1009.6826">publicityAccepted: boolean</text><rect fill="none" height="6" style="stroke:#C82930;stroke-width:1.0;" width="6" x="94" y="1016.9844"/><text fill="#000000" font-family="sans-serif" font-size="14" lengthAdjust="spacing" textLength="116" x="106" y="1025.9795">imageUrl: String</text><line style="stroke:#181818;stroke-width:0.5;" x1="87" x2="311" y1="1033.2813" y2="1033.2813"/><ellipse cx="97" cy="1044.2813" fill="#84BE84" rx="3" ry="3" style="stroke:#038048;stroke-width:1.0;"/><text fill="#000000" font-family="sans-serif" font-size="14" lengthAdjust="spacing" textLength="64" x="106" y="1050.2764">getters()</text><ellipse cx="97" cy="1060.5781" fill="#84BE84" rx="3" ry="3" style="stroke:#038048;stroke-width:1.0;"/><text fill="#000000" font-family="sans-serif" font-size="14" lengthAdjust="spacing" textLength="62" x="106" y="1066.5732">setters()</text></g><!--MD5=[1a07110d53fd599024b3185980f56d8f]
class Desktop.domain.SessionManager--><g id="elem_Desktop.domain.SessionManager"><rect codeLine="83" fill="#F1F1F1" height="129.4844" id="Desktop.domain.SessionManager" rx="2.5" ry="2.5" style="stroke:#181818;stroke-width:0.5;" width="147" x="593.5" y="667"/><ellipse cx="608.5" cy="683" fill="#ADD1B2" rx="11" ry="11" style="stroke:#181818;stroke-width:1.0;"/><path d="M610.8438,678.6719 C609.9063,678.2344 609.3125,678.0938 608.4375,678.0938 C605.8125,678.0938 603.8125,680.1719 603.8125,682.8906 L603.8125,684.0156 C603.8125,686.5938 605.9219,688.4844 608.8125,688.4844 C610.0313,688.4844 611.1875,688.1875 611.9375,687.6406 C612.5156,687.2344 612.8438,686.7813 612.8438,686.3906 C612.8438,685.9375 612.4531,685.5469 611.9844,685.5469 C611.7656,685.5469 611.5625,685.625 611.375,685.8125 C610.9219,686.2969 610.9219,686.2969 610.7344,686.3906 C610.3125,686.6563 609.625,686.7813 608.8594,686.7813 C606.8125,686.7813 605.5156,685.6875 605.5156,683.9844 L605.5156,682.8906 C605.5156,681.1094 606.7656,679.7969 608.5,679.7969 C609.0781,679.7969 609.6875,679.9531 610.1563,680.2031 C610.6406,680.4844 610.8125,680.7031 610.9063,681.1094 C610.9688,681.5156 611,681.6406 611.1406,681.7656 C611.2813,681.9063 611.5156,682.0156 611.7344,682.0156 C612,682.0156 612.2656,681.875 612.4375,681.6563 C612.5469,681.5 612.5781,681.3125 612.5781,680.8906 L612.5781,679.4688 C612.5781,679.0313 612.5625,678.9063 612.4688,678.75 C612.3125,678.4844 612.0313,678.3438 611.7344,678.3438 C611.4375,678.3438 611.2344,678.4375 611.0156,678.75 L610.8438,678.6719 Z " fill="#000000"/><text fill="#000000" font-family="sans-serif" font-size="14" lengthAdjust="spacing" textLength="115" x="622.5" y="687.8467">SessionManager</text><line style="stroke:#181818;stroke-width:0.5;" x1="594.5" x2="739.5" y1="699" y2="699"/><line style="stroke:#181818;stroke-width:0.5;" x1="594.5" x2="739.5" y1="707" y2="707"/><ellipse cx="604.5" cy="718" fill="#84BE84" rx="3" ry="3" style="stroke:#038048;stroke-width:1.0;"/><text fill="#000000" font-family="sans-serif" font-size="14" lengthAdjust="spacing" text-decoration="underline" textLength="96" x="613.5" y="723.9951">getInstance()</text><ellipse cx="604.5" cy="734.2969" fill="#84BE84" rx="3" ry="3" style="stroke:#038048;stroke-width:1.0;"/><text fill="#000000" font-family="sans-serif" font-size="14" lengthAdjust="spacing" textLength="85" x="613.5" y="740.292">open(Users)</text><ellipse cx="604.5" cy="750.5938" fill="#84BE84" rx="3" ry="3" style="stroke:#038048;stroke-width:1.0;"/><text fill="#000000" font-family="sans-serif" font-size="14" lengthAdjust="spacing" textLength="99" x="613.5" y="756.5889">update(Users)</text><ellipse cx="604.5" cy="766.8906" fill="#84BE84" rx="3" ry="3" style="stroke:#038048;stroke-width:1.0;"/><text fill="#000000" font-family="sans-serif" font-size="14" lengthAdjust="spacing" textLength="73" x="613.5" y="772.8857">get(Users)</text><ellipse cx="604.5" cy="783.1875" fill="#84BE84" rx="3" ry="3" style="stroke:#038048;stroke-width:1.0;"/><text fill="#000000" font-family="sans-serif" font-size="14" lengthAdjust="spacing" textLength="85" x="613.5" y="789.1826">close(Users)</text></g><!--MD5=[c76725f06191c4d3cf119ff79101d6b5]
class Desktop.services.SocketRequest--><g id="elem_Desktop.services.SocketRequest"><rect codeLine="92" fill="#F1F1F1" height="129.4844" id="Desktop.services.SocketRequest" rx="2.5" ry="2.5" style="stroke:#181818;stroke-width:0.5;" width="240" x="293" y="149"/><ellipse cx="353.75" cy="165" fill="#ADD1B2" rx="11" ry="11" style="stroke:#181818;stroke-width:1.0;"/><path d="M356.0938,160.6719 C355.1563,160.2344 354.5625,160.0938 353.6875,160.0938 C351.0625,160.0938 349.0625,162.1719 349.0625,164.8906 L349.0625,166.0156 C349.0625,168.5938 351.1719,170.4844 354.0625,170.4844 C355.2813,170.4844 356.4375,170.1875 357.1875,169.6406 C357.7656,169.2344 358.0938,168.7813 358.0938,168.3906 C358.0938,167.9375 357.7031,167.5469 357.2344,167.5469 C357.0156,167.5469 356.8125,167.625 356.625,167.8125 C356.1719,168.2969 356.1719,168.2969 355.9844,168.3906 C355.5625,168.6563 354.875,168.7813 354.1094,168.7813 C352.0625,168.7813 350.7656,167.6875 350.7656,165.9844 L350.7656,164.8906 C350.7656,163.1094 352.0156,161.7969 353.75,161.7969 C354.3281,161.7969 354.9375,161.9531 355.4063,162.2031 C355.8906,162.4844 356.0625,162.7031 356.1563,163.1094 C356.2188,163.5156 356.25,163.6406 356.3906,163.7656 C356.5313,163.9063 356.7656,164.0156 356.9844,164.0156 C357.25,164.0156 357.5156,163.875 357.6875,163.6563 C357.7969,163.5 357.8281,163.3125 357.8281,162.8906 L357.8281,161.4688 C357.8281,161.0313 357.8125,160.9063 357.7188,160.75 C357.5625,160.4844 357.2813,160.3438 356.9844,160.3438 C356.6875,160.3438 356.4844,160.4375 356.2656,160.75 L356.0938,160.6719 Z " fill="#000000"/><text fill="#000000" font-family="sans-serif" font-size="14" lengthAdjust="spacing" textLength="110" x="374.25" y="169.8467">SocketRequest</text><line style="stroke:#181818;stroke-width:0.5;" x1="294" x2="532" y1="181" y2="181"/><rect fill="none" height="6" style="stroke:#C82930;stroke-width:1.0;" width="6" x="301" y="189"/><text fill="#000000" font-family="sans-serif" font-size="14" lengthAdjust="spacing" textLength="71" x="313" y="197.9951">url: String</text><rect fill="none" height="6" style="stroke:#C82930;stroke-width:1.0;" width="6" x="301" y="205.2969"/><text fill="#000000" font-family="sans-serif" font-size="14" lengthAdjust="spacing" textLength="214" x="313" y="214.292">headers: Map&lt;String, String&gt;</text><rect fill="none" height="6" style="stroke:#C82930;stroke-width:1.0;" width="6" x="301" y="221.5938"/><text fill="#000000" font-family="sans-serif" font-size="14" lengthAdjust="spacing" textLength="210" x="313" y="230.5889">params: Map&lt;String, String&gt;</text><line style="stroke:#181818;stroke-width:0.5;" x1="294" x2="532" y1="237.8906" y2="237.8906"/><ellipse cx="304" cy="248.8906" fill="#84BE84" rx="3" ry="3" style="stroke:#038048;stroke-width:1.0;"/><text fill="#000000" font-family="sans-serif" font-size="14" lengthAdjust="spacing" textLength="64" x="313" y="254.8857">getters()</text><ellipse cx="304" cy="265.1875" fill="#84BE84" rx="3" ry="3" style="stroke:#038048;stroke-width:1.0;"/><text fill="#000000" font-family="sans-serif" font-size="14" lengthAdjust="spacing" textLength="62" x="313" y="271.1826">setters()</text></g><!--MD5=[e7f2452ea07a32a3bb1a22ca89efa037]
class Desktop.services.SocketController--><g id="elem_Desktop.services.SocketController"><rect codeLine="99" fill="#F1F1F1" height="96.8906" id="Desktop.services.SocketController" rx="2.5" ry="2.5" style="stroke:#181818;stroke-width:0.5;" width="179" x="78.5" y="165"/><ellipse cx="103.85" cy="181" fill="#ADD1B2" rx="11" ry="11" style="stroke:#181818;stroke-width:1.0;"/><path d="M106.1938,176.6719 C105.2563,176.2344 104.6625,176.0938 103.7875,176.0938 C101.1625,176.0938 99.1625,178.1719 99.1625,180.8906 L99.1625,182.0156 C99.1625,184.5938 101.2719,186.4844 104.1625,186.4844 C105.3813,186.4844 106.5375,186.1875 107.2875,185.6406 C107.8656,185.2344 108.1938,184.7813 108.1938,184.3906 C108.1938,183.9375 107.8031,183.5469 107.3344,183.5469 C107.1156,183.5469 106.9125,183.625 106.725,183.8125 C106.2719,184.2969 106.2719,184.2969 106.0844,184.3906 C105.6625,184.6563 104.975,184.7813 104.2094,184.7813 C102.1625,184.7813 100.8656,183.6875 100.8656,181.9844 L100.8656,180.8906 C100.8656,179.1094 102.1156,177.7969 103.85,177.7969 C104.4281,177.7969 105.0375,177.9531 105.5063,178.2031 C105.9906,178.4844 106.1625,178.7031 106.2563,179.1094 C106.3188,179.5156 106.35,179.6406 106.4906,179.7656 C106.6313,179.9063 106.8656,180.0156 107.0844,180.0156 C107.35,180.0156 107.6156,179.875 107.7875,179.6563 C107.8969,179.5 107.9281,179.3125 107.9281,178.8906 L107.9281,177.4688 C107.9281,177.0313 107.9125,176.9063 107.8188,176.75 C107.6625,176.4844 107.3813,176.3438 107.0844,176.3438 C106.7875,176.3438 106.5844,176.4375 106.3656,176.75 L106.1938,176.6719 Z " fill="#000000"/><text fill="#000000" font-family="sans-serif" font-size="14" lengthAdjust="spacing" textLength="124" x="120.15" y="185.8467">SocketController</text><line style="stroke:#181818;stroke-width:0.5;" x1="79.5" x2="256.5" y1="197" y2="197"/><line style="stroke:#181818;stroke-width:0.5;" x1="79.5" x2="256.5" y1="205" y2="205"/><ellipse cx="89.5" cy="216" fill="#84BE84" rx="3" ry="3" style="stroke:#038048;stroke-width:1.0;"/><text fill="#000000" font-family="sans-serif" font-size="14" lengthAdjust="spacing" text-decoration="underline" textLength="96" x="98.5" y="221.9951">getInstance()</text><ellipse cx="89.5" cy="232.2969" fill="#84BE84" rx="3" ry="3" style="stroke:#038048;stroke-width:1.0;"/><text fill="#000000" font-family="sans-serif" font-size="14" lengthAdjust="spacing" textLength="153" x="98.5" y="238.292">post(SocketRequest)</text><ellipse cx="89.5" cy="248.5938" fill="#84BE84" rx="3" ry="3" style="stroke:#038048;stroke-width:1.0;"/><text fill="#000000" font-family="sans-serif" font-size="14" lengthAdjust="spacing" textLength="145" x="98.5" y="254.5889">get(SocketRequest)</text></g><!--MD5=[aa68f527d46a2471806c7616e8b8dddf]
class Desktop.services.SocketDataProvider--><g id="elem_Desktop.services.SocketDataProvider"><rect codeLine="104" fill="#F1F1F1" height="96.8906" id="Desktop.services.SocketDataProvider" rx="2.5" ry="2.5" style="stroke:#181818;stroke-width:0.5;" width="177" x="64.5" y="338"/><ellipse cx="79.5" cy="354" fill="#ADD1B2" rx="11" ry="11" style="stroke:#181818;stroke-width:1.0;"/><path d="M81.8438,349.6719 C80.9063,349.2344 80.3125,349.0938 79.4375,349.0938 C76.8125,349.0938 74.8125,351.1719 74.8125,353.8906 L74.8125,355.0156 C74.8125,357.5938 76.9219,359.4844 79.8125,359.4844 C81.0313,359.4844 82.1875,359.1875 82.9375,358.6406 C83.5156,358.2344 83.8438,357.7813 83.8438,357.3906 C83.8438,356.9375 83.4531,356.5469 82.9844,356.5469 C82.7656,356.5469 82.5625,356.625 82.375,356.8125 C81.9219,357.2969 81.9219,357.2969 81.7344,357.3906 C81.3125,357.6563 80.625,357.7813 79.8594,357.7813 C77.8125,357.7813 76.5156,356.6875 76.5156,354.9844 L76.5156,353.8906 C76.5156,352.1094 77.7656,350.7969 79.5,350.7969 C80.0781,350.7969 80.6875,350.9531 81.1563,351.2031 C81.6406,351.4844 81.8125,351.7031 81.9063,352.1094 C81.9688,352.5156 82,352.6406 82.1406,352.7656 C82.2813,352.9063 82.5156,353.0156 82.7344,353.0156 C83,353.0156 83.2656,352.875 83.4375,352.6563 C83.5469,352.5 83.5781,352.3125 83.5781,351.8906 L83.5781,350.4688 C83.5781,350.0313 83.5625,349.9063 83.4688,349.75 C83.3125,349.4844 83.0313,349.3438 82.7344,349.3438 C82.4375,349.3438 82.2344,349.4375 82.0156,349.75 L81.8438,349.6719 Z " fill="#000000"/><text fill="#000000" font-family="sans-serif" font-size="14" lengthAdjust="spacing" textLength="145" x="93.5" y="358.8467">SocketDataProvider</text><line style="stroke:#181818;stroke-width:0.5;" x1="65.5" x2="240.5" y1="370" y2="370"/><line style="stroke:#181818;stroke-width:0.5;" x1="65.5" x2="240.5" y1="378" y2="378"/><ellipse cx="75.5" cy="389" fill="#84BE84" rx="3" ry="3" style="stroke:#038048;stroke-width:1.0;"/><text fill="#000000" font-family="sans-serif" font-size="14" lengthAdjust="spacing" text-decoration="underline" textLength="96" x="84.5" y="394.9951">getInstance()</text><ellipse cx="75.5" cy="405.2969" fill="#84BE84" rx="3" ry="3" style="stroke:#038048;stroke-width:1.0;"/><text fill="#000000" font-family="sans-serif" font-size="14" lengthAdjust="spacing" textLength="89" x="84.5" y="411.292">supply(data)</text><ellipse cx="75.5" cy="421.5938" fill="#84BE84" rx="3" ry="3" style="stroke:#038048;stroke-width:1.0;"/><text fill="#000000" font-family="sans-serif" font-size="14" lengthAdjust="spacing" textLength="65" x="84.5" y="427.5889">provide()</text></g><!--MD5=[02024ccf599f58f642bd3c88f79c67f6]
class Desktop.services.SocketObserver--><g id="elem_Desktop.services.SocketObserver"><rect codeLine="109" fill="#F1F1F1" height="96.8906" id="Desktop.services.SocketObserver" rx="2.5" ry="2.5" style="stroke:#181818;stroke-width:0.5;" width="270" x="277" y="338"/><ellipse cx="349.25" cy="354" fill="#ADD1B2" rx="11" ry="11" style="stroke:#181818;stroke-width:1.0;"/><path d="M351.5938,349.6719 C350.6563,349.2344 350.0625,349.0938 349.1875,349.0938 C346.5625,349.0938 344.5625,351.1719 344.5625,353.8906 L344.5625,355.0156 C344.5625,357.5938 346.6719,359.4844 349.5625,359.4844 C350.7813,359.4844 351.9375,359.1875 352.6875,358.6406 C353.2656,358.2344 353.5938,357.7813 353.5938,357.3906 C353.5938,356.9375 353.2031,356.5469 352.7344,356.5469 C352.5156,356.5469 352.3125,356.625 352.125,356.8125 C351.6719,357.2969 351.6719,357.2969 351.4844,357.3906 C351.0625,357.6563 350.375,357.7813 349.6094,357.7813 C347.5625,357.7813 346.2656,356.6875 346.2656,354.9844 L346.2656,353.8906 C346.2656,352.1094 347.5156,350.7969 349.25,350.7969 C349.8281,350.7969 350.4375,350.9531 350.9063,351.2031 C351.3906,351.4844 351.5625,351.7031 351.6563,352.1094 C351.7188,352.5156 351.75,352.6406 351.8906,352.7656 C352.0313,352.9063 352.2656,353.0156 352.4844,353.0156 C352.75,353.0156 353.0156,352.875 353.1875,352.6563 C353.2969,352.5 353.3281,352.3125 353.3281,351.8906 L353.3281,350.4688 C353.3281,350.0313 353.3125,349.9063 353.2188,349.75 C353.0625,349.4844 352.7813,349.3438 352.4844,349.3438 C352.1875,349.3438 351.9844,349.4375 351.7656,349.75 L351.5938,349.6719 Z " fill="#000000"/><text fill="#000000" font-family="sans-serif" font-size="14" lengthAdjust="spacing" textLength="117" x="369.75" y="358.8467">SocketObserver</text><line style="stroke:#181818;stroke-width:0.5;" x1="278" x2="546" y1="370" y2="370"/><line style="stroke:#181818;stroke-width:0.5;" x1="278" x2="546" y1="378" y2="378"/><ellipse cx="288" cy="389" fill="#84BE84" rx="3" ry="3" style="stroke:#038048;stroke-width:1.0;"/><text fill="#000000" font-family="sans-serif" font-size="14" lengthAdjust="spacing" textLength="227" x="297" y="394.9951">subscribe(callback, event): void</text><ellipse cx="288" cy="405.2969" fill="#84BE84" rx="3" ry="3" style="stroke:#038048;stroke-width:1.0;"/><text fill="#000000" font-family="sans-serif" font-size="14" lengthAdjust="spacing" textLength="244" x="297" y="411.292">unsubscribe(callback, event): void</text><ellipse cx="288" cy="421.5938" fill="#84BE84" rx="3" ry="3" style="stroke:#038048;stroke-width:1.0;"/><text fill="#000000" font-family="sans-serif" font-size="14" lengthAdjust="spacing" textLength="134" x="297" y="427.5889">notify(event): void</text></g><!--MD5=[7923f0ef83cfa7fc76aa895bd44f4146]
class Api--><g id="elem_Api"><rect codeLine="3" fill="#F1F1F1" height="48" id="Api" rx="2.5" ry="2.5" style="stroke:#181818;stroke-width:0.5;" width="56" x="140" y="7"/><ellipse cx="155" cy="23" fill="#ADD1B2" rx="11" ry="11" style="stroke:#181818;stroke-width:1.0;"/><path d="M157.3438,18.6719 C156.4063,18.2344 155.8125,18.0938 154.9375,18.0938 C152.3125,18.0938 150.3125,20.1719 150.3125,22.8906 L150.3125,24.0156 C150.3125,26.5938 152.4219,28.4844 155.3125,28.4844 C156.5313,28.4844 157.6875,28.1875 158.4375,27.6406 C159.0156,27.2344 159.3438,26.7813 159.3438,26.3906 C159.3438,25.9375 158.9531,25.5469 158.4844,25.5469 C158.2656,25.5469 158.0625,25.625 157.875,25.8125 C157.4219,26.2969 157.4219,26.2969 157.2344,26.3906 C156.8125,26.6563 156.125,26.7813 155.3594,26.7813 C153.3125,26.7813 152.0156,25.6875 152.0156,23.9844 L152.0156,22.8906 C152.0156,21.1094 153.2656,19.7969 155,19.7969 C155.5781,19.7969 156.1875,19.9531 156.6563,20.2031 C157.1406,20.4844 157.3125,20.7031 157.4063,21.1094 C157.4688,21.5156 157.5,21.6406 157.6406,21.7656 C157.7813,21.9063 158.0156,22.0156 158.2344,22.0156 C158.5,22.0156 158.7656,21.875 158.9375,21.6563 C159.0469,21.5 159.0781,21.3125 159.0781,20.8906 L159.0781,19.4688 C159.0781,19.0313 159.0625,18.9063 158.9688,18.75 C158.8125,18.4844 158.5313,18.3438 158.2344,18.3438 C157.9375,18.3438 157.7344,18.4375 157.5156,18.75 L157.3438,18.6719 Z " fill="#000000"/><text fill="#000000" font-family="sans-serif" font-size="14" lengthAdjust="spacing" textLength="24" x="169" y="27.8467">Api</text><line style="stroke:#181818;stroke-width:0.5;" x1="141" x2="195" y1="39" y2="39"/><line style="stroke:#181818;stroke-width:0.5;" x1="141" x2="195" y1="47" y2="47"/></g><!--MD5=[94832bb44f42b254e2995738761db3fe]
reverse link Desktop.pages.Page to Desktop.pages.HomePage--><g id="link_Desktop.pages.Page_Desktop.pages.HomePage"><path d="M380.757,625.457 C367.118,654.251 351.999,686.169 342.047,707.179 " fill="none" id="Desktop.pages.Page-backto-Desktop.pages.HomePage" style="stroke:#181818;stroke-width:1.0;stroke-dasharray:7.0,7.0;"/><polygon fill="none" points="374.549,622.211,389.437,607.133,387.201,628.204,374.549,622.211" style="stroke:#181818;stroke-width:1.0;"/></g><!--MD5=[5726574782c2e1c3dc42ffc072d1acb3]
reverse link Desktop.pages.Page to Desktop.pages.GamesPage--><g id="link_Desktop.pages.Page_Desktop.pages.GamesPage"><path d="M438.004,625.869 C449.244,654.555 461.67,686.269 469.863,707.179 " fill="none" id="Desktop.pages.Page-backto-Desktop.pages.GamesPage" style="stroke:#181818;stroke-width:1.0;stroke-dasharray:7.0,7.0;"/><polygon fill="none" points="431.442,628.308,430.663,607.133,444.477,623.201,431.442,628.308" style="stroke:#181818;stroke-width:1.0;"/></g><!--MD5=[914071aef27ce1d205cff174ee14915e]
link Desktop.models.Games to Desktop.models.GameDataOnPlataform--><g id="link_Desktop.models.Games_Desktop.models.GameDataOnPlataform"><path codeLine="75" d="M576.881,1090.9269 C576.881,1090.9269 615.7788,1132.8214 615.7788,1132.8214 " fill="none" id="Desktop.models.Games-Desktop.models.GameDataOnPlataform" style="stroke:#181818;stroke-width:1.0;"/><polygon fill="none" points="623.943,1141.616,622.7924,1134.4973,615.7788,1132.8214,616.9293,1139.9401,623.943,1141.616" style="stroke:#181818;stroke-width:1.0;"/><polygon fill="#181818" points="568.716,1082.133,569.8672,1089.2516,576.881,1090.9269,575.7298,1083.8083,568.716,1082.133" style="stroke:#181818;stroke-width:1.0;"/></g><!--MD5=[f02298bc6ff1c93c5f1b66644365114e]
link Desktop.models.GameDataOnPlataform to Desktop.models.Plataforms--><g id="link_Desktop.models.GameDataOnPlataform_Desktop.models.Plataforms"><path codeLine="76" d="M706,1332.164 C706,1332.164 706,1367.958 706,1367.958 " fill="none" id="Desktop.models.GameDataOnPlataform-Desktop.models.Plataforms" style="stroke:#181818;stroke-width:1.0;"/><polygon fill="#181818" points="706,1379.958,710,1373.958,706,1367.958,702,1373.958,706,1379.958" style="stroke:#181818;stroke-width:1.0;"/><polygon fill="none" points="706,1320.164,702,1326.164,706,1332.164,710,1326.164,706,1320.164" style="stroke:#181818;stroke-width:1.0;"/></g><!--MD5=[c5a1331f0e5168db59a7b38ad2802012]
link Desktop.models.Games to Desktop.models.Categories--><g id="link_Desktop.models.Games_Desktop.models.Categories"><path codeLine="77" d="M408.769,1092.155 C408.769,1092.155 361.3531,1164.1624 361.3531,1164.1624 " fill="none" id="Desktop.models.Games-Desktop.models.Categories" style="stroke:#181818;stroke-width:1.0;"/><polygon fill="none" points="354.754,1174.185,361.3944,1171.3734,361.3531,1164.1624,354.7127,1166.974,354.754,1174.185" style="stroke:#181818;stroke-width:1.0;"/><polygon fill="none" points="415.369,1082.133,408.7283,1084.944,408.769,1092.155,415.4097,1089.344,415.369,1082.133" style="stroke:#181818;stroke-width:1.0;"/></g><!--MD5=[3ac57280dff5f878e1f1c1b555737c77]
link Desktop.models.Games to Desktop.models.Comments--><g id="link_Desktop.models.Games_Desktop.models.Comments"><path codeLine="78" d="M358.807,1063.408 C305.779,1097.99 252.75,1132.943 241,1142 C237.842,1144.434 234.659,1146.945 231.47,1149.511 " fill="none" id="Desktop.models.Games-to-Desktop.models.Comments" style="stroke:#181818;stroke-width:1.0;"/><polygon fill="none" points="221.286,1157.866,228.4618,1157.1537,230.5643,1150.2559,223.3884,1150.9682,221.286,1157.866" style="stroke:#181818;stroke-width:1.0;"/></g><!--MD5=[66796d49378a8f4216bcb8202fbfe640]
link Desktop.models.Users to Desktop.models.Comments--><g id="link_Desktop.models.Users_Desktop.models.Comments"><path codeLine="79" d="M178.783,1073.77 C173.468,1096.976 167.746,1121.955 162.472,1144.986 " fill="none" id="Desktop.models.Users-to-Desktop.models.Comments" style="stroke:#181818;stroke-width:1.0;"/><polygon fill="none" points="159.508,1157.923,164.7468,1152.9677,162.1876,1146.226,156.9488,1151.1813,159.508,1157.923" style="stroke:#181818;stroke-width:1.0;"/></g><!--MD5=[aa1b1769a6e0920d8861fdeb720c483d]
link Desktop.models.Games to Desktop.models.Medias--><g id="link_Desktop.models.Games_Desktop.models.Medias"><path codeLine="80" d="M484.138,1082.133 C485.396,1105.788 486.725,1130.783 487.925,1153.356 " fill="none" id="Desktop.models.Games-to-Desktop.models.Medias" style="stroke:#181818;stroke-width:1.0;"/><polygon fill="none" points="488.615,1166.339,492.2909,1160.1351,487.9781,1154.3559,484.3022,1160.5598,488.615,1166.339" style="stroke:#181818;stroke-width:1.0;"/></g><!--MD5=[88cdf2113859918b91091e3950e26b08]
link Desktop.services.SocketController to Desktop.services.SocketRequest--><g id="link_Desktop.services.SocketController_Desktop.services.SocketRequest"><path codeLine="114" d="M257.961,213.5 C267.846,213.5 277.73,213.5 287.615,213.5 " fill="none" id="Desktop.services.SocketController-to-Desktop.services.SocketRequest" style="stroke:#181818;stroke-width:1.0;"/><polygon fill="#181818" points="292.784,213.5,283.784,209.5,287.784,213.5,283.784,217.5,292.784,213.5" style="stroke:#181818;stroke-width:1.0;"/></g><!--MD5=[98cf81e4bb70e8e77b2a6423f7cfd3fd]
link Desktop.services.SocketController to Desktop.services.SocketDataProvider--><g id="link_Desktop.services.SocketController_Desktop.services.SocketDataProvider"><path codeLine="115" d="M163.822,262.13 C161.896,284.09 159.603,310.22 157.625,332.77 " fill="none" id="Desktop.services.SocketController-to-Desktop.services.SocketDataProvider" style="stroke:#181818;stroke-width:1.0;"/><polygon fill="#181818" points="157.182,337.83,161.9635,329.2197,157.6249,332.8497,153.9949,328.5111,157.182,337.83" style="stroke:#181818;stroke-width:1.0;"/></g><!--MD5=[ed3a9aafb0867a0847d01a52caacd1e3]
link Desktop.services.SocketDataProvider to Desktop.services.SocketObserver--><g id="link_Desktop.services.SocketDataProvider_Desktop.services.SocketObserver"><path codeLine="116" d="M241.525,386.5 C251.544,386.5 261.562,386.5 271.58,386.5 " fill="none" id="Desktop.services.SocketDataProvider-to-Desktop.services.SocketObserver" style="stroke:#181818;stroke-width:1.0;"/><polygon fill="#181818" points="276.819,386.5,267.819,382.5,271.819,386.5,267.819,390.5,276.819,386.5" style="stroke:#181818;stroke-width:1.0;"/></g><!--MD5=[7b5260650eafeaa8ee0ebb699f12ae05]
link Desktop.services.SocketObserver to Desktop.pages.Page--><g id="link_Desktop.services.SocketObserver_Desktop.pages.Page"><path codeLine="117" d="M412,435.31 C412,456.85 412,482.37 412,504.5 " fill="none" id="Desktop.services.SocketObserver-to-Desktop.pages.Page" style="stroke:#181818;stroke-width:1.0;"/><polygon fill="#181818" points="412,509.76,416,500.76,412,504.76,408,500.76,412,509.76" style="stroke:#181818;stroke-width:1.0;"/></g><!--MD5=[05c09802a82ce97e10526e217d0e5094]
reverse link Desktop.services.SocketController to Desktop.pages.Page--><g id="link_Desktop.services.SocketController_Desktop.pages.Page"><path codeLine="119" d="M245.387,264.4 C255.123,269.48 265.133,274.17 275,278 C397.299,325.46 481.202,236.25 564,338 C597.942,379.71 589.684,411.75 564,459 C552.887,479.44 535.498,496.3 516.39,509.93 " fill="none" id="Desktop.services.SocketController-backto-Desktop.pages.Page" style="stroke:#181818;stroke-width:1.0;"/><polygon fill="#181818" points="240.935,262.04,247.0114,269.7909,245.3521,264.3829,250.7601,262.7236,240.935,262.04" style="stroke:#181818;stroke-width:1.0;"/></g><!--MD5=[ce443e0c56f973bee240752986acd462]
reverse link Desktop.services.SocketDataProvider to Desktop.pages.Page--><g id="link_Desktop.services.SocketDataProvider_Desktop.pages.Page"><path codeLine="120" d="M221.888,437.85 C233.93,445.51 246.585,452.89 259,459 C269.087,463.97 272.959,461.94 283,467 C306.698,478.94 330.958,494.83 351.952,509.95 " fill="none" id="Desktop.services.SocketDataProvider-backto-Desktop.pages.Page" style="stroke:#181818;stroke-width:1.0;"/><polygon fill="#181818" points="217.482,435.01,222.8836,443.2454,221.6859,437.7168,227.2146,436.5191,217.482,435.01" style="stroke:#181818;stroke-width:1.0;"/></g><!--MD5=[379e2a5fc8a601fac9e1ef97f72990b5]
reverse link Desktop.models to Desktop.pages.Page--><g id="link_Desktop.models_Desktop.pages.Page"><path codeLine="121" d="M838.031,917.1257 C838.098,916.1806 838.1637,915.2281 838.2279,914.2685 C838.3563,912.3491 838.4788,910.4009 838.5947,908.4255 C838.8265,904.4745 839.0316,900.4142 839.2034,896.2564 C839.8906,879.6253 840.0457,861.4339 839.2478,842.436 C836.056,766.4445 817.6165,677.55 757,624 C724.577,595.357 621.974,578.64 537.023,569.44 " fill="none" id="Desktop.models-backto-Desktop.pages.Page" style="stroke:#181818;stroke-width:1.0;"/><polygon fill="#181818" points="838.031,917.1257,842.6576,908.4312,838.3847,912.1382,834.6777,907.8653,838.031,917.1257" style="stroke:#181818;stroke-width:1.0;"/></g><!--MD5=[804a4c83d12d874c9e6cb01a6b19e91e]
link Desktop.pages.Page to Desktop.domain.SessionManager--><g id="link_Desktop.pages.Page_Desktop.domain.SessionManager"><path codeLine="122" d="M525.011,607.17 C534.701,612.455 544.166,618.082 553,624 C570.01,635.395 586.915,649.346 602.293,663.351 " fill="none" id="Desktop.pages.Page-to-Desktop.domain.SessionManager" style="stroke:#181818;stroke-width:1.0;"/><polygon fill="#181818" points="606.169,666.911,602.2467,657.8769,602.4867,663.5286,596.8349,663.7686,606.169,666.911" style="stroke:#181818;stroke-width:1.0;"/></g><!--MD5=[4d1255eb75114980c9b2867338ef0eba]
link Desktop.domain.SessionManager to Desktop.models.Users--><g id="link_Desktop.domain.SessionManager_Desktop.models.Users"><path codeLine="123" d="M597.737,796.1 C583.798,805.761 568.607,814.37 553,820 C508.652,835.996 383.769,808.166 341,828 C310.462,842.162 283.523,866.252 261.543,891.297 " fill="none" id="Desktop.domain.SessionManager-to-Desktop.models.Users" style="stroke:#181818;stroke-width:1.0;"/><polygon fill="#181818" points="258.058,895.323,266.9731,891.1373,261.3309,891.543,260.9251,885.9007,258.058,895.323" style="stroke:#181818;stroke-width:1.0;"/></g><!--MD5=[10e0f16e11e9692c2d1a64f6bf0b9541]
reverse link Desktop.pages.Page to Desktop.App--><g id="link_Desktop.pages.Page_Desktop.App"><path codeLine="129" d="M273.608,558.5 C263.626,558.5 253.643,558.5 243.66,558.5 " fill="none" id="Desktop.pages.Page-backto-Desktop.App" style="stroke:#181818;stroke-width:1.0;"/><polygon fill="none" points="286.731,558.5,280.731,554.5,274.731,558.5,280.731,562.5,286.731,558.5" style="stroke:#181818;stroke-width:1.0;"/></g><!--MD5=[69b181f1819b563f92fa65932db63857]
reverse link Api to Desktop.services.SocketController--><g id="link_Api_Desktop.services.SocketController"><path codeLine="130" d="M158.431,60.25 C154.932,88.16 154.32,131.38 156.593,164.64 " fill="none" id="Api-backto-Desktop.services.SocketController" style="stroke:#181818;stroke-width:1.0;"/><polygon fill="#181818" points="159.118,55.23,153.9219,63.5966,158.4325,60.1828,161.8463,64.6934,159.118,55.23" style="stroke:#181818;stroke-width:1.0;"/></g><!--MD5=[c762bd61a9c4321df7017e1952f6342d]
link Api to Desktop.services.SocketController--><g id="link_Api_Desktop.services.SocketController"><path codeLine="131" d="M177.405,55.23 C181.54,81.46 182.544,124.98 180.415,159.6 " fill="none" id="Api-to-Desktop.services.SocketController" style="stroke:#181818;stroke-width:1.0;"/><polygon fill="#181818" points="180.078,164.64,184.6609,155.9223,180.4066,159.6508,176.6782,155.3966,180.078,164.64" style="stroke:#181818;stroke-width:1.0;"/></g><!--MD5=[f3e7626b029e0958648bae57903ee91e]
@startuml
skinparam groupInheritance 5

class Api {}

namespace Desktop {
 namespace pages {
  interface Page {
    +update(): void
    #componentWillMount(): void
    #componentWillUnmount(): void
  }
  class HomePage implements Page {}
  class GamesPage implements Page {}
 }
 namespace models {
  class Games {
   -id: int
   -name: String
   -description: String
   -categories: List<Categories>
   -comments: List<Comments>
   -medias: List<Medias>
   -plataforms: List<Plataforms>
   +getters()
   +setters()
  }
  class Categories {
   -id: int
   -name: String
   +getters()
   +setters()
  }
  class Comments {
   -id: int
   -gamesId: int
   -userId: int
   -description: String
   +getters()
   +setters()
  }
  class Medias {
   -id: int
   -gamesId: int
   -mediaType: String
   +getters()
   +setters()
  }
  class GameDataOnPlataform {
   -plataformsId: int
   -gamesId: int
   -price: Double
   -priceUnit: String
   -discount: Float
   -isEnabled: boolean
   +getters()
   +setters()
  }
  class Plataforms {
   -id: int
   -name: String
   -url: Url
   +getters()
   +setters()
  }
  class Users {
   -id: int
   -name: String
   -email: String
   -password: String
   -publicityAccepted: boolean
   -imageUrl: String
   +getters()
   +setters()
  }
  Games *- -o GameDataOnPlataform 
  GameDataOnPlataform o- -* Plataforms
  Games o- -o Categories
  Games - -o Comments
  Users - -o Comments
  Games - -o Medias
 }
 namespace domain {
	class SessionManager {
		+{static} getInstance()
		+open(Users)
		+update(Users)
		+get(Users)
		+close(Users)
	}
 }
 namespace services {
	class SocketRequest {
		-url: String
		-headers: Map<String, String> 
		-params: Map<String, String>
		+getters()
		+setters()
    }
	class SocketController {
		+{static} getInstance()
		+post(SocketRequest)
		+get(SocketRequest)
	}
	class SocketDataProvider {
		+{static} getInstance()
		+supply(data)
		+provide()
	}
	class SocketObserver {
		+subscribe(callback, event): void
		+unsubscribe(callback, event): void
		+notify(event): void
	}
	SocketRequest <-l- SocketController
	SocketController -d-> SocketDataProvider 
	SocketDataProvider -r-> SocketObserver
	SocketObserver -d-> Desktop.pages.Page
 }
 Desktop.services.SocketController <- - Desktop.pages.Page
 Desktop.services.SocketDataProvider <- - Desktop.pages.Page
 Desktop.models <- - Desktop.pages.Page
 Desktop.domain.SessionManager <-u- Desktop.pages.Page
 Desktop.domain.SessionManager -d-> Desktop.models.Users
 
 class App {
   -displayedPage: Page
   +start()
 }
 App -l-o Desktop.pages.Page
 Desktop.services.SocketController -u-> .Api 
 Desktop.services.SocketController <-u- .Api 
}
@enduml

PlantUML version 1.2022.6beta5(Unknown compile time)
(GPL source distribution)
Java Runtime: Java(TM) SE Runtime Environment
JVM: Java HotSpot(TM) 64-Bit Server VM
Default Encoding: UTF-8
Language: en
Country: US
--></g></svg>