<?xml version="1.0" encoding="UTF-8" standalone="no"?><svg xmlns="http://www.w3.org/2000/svg" xmlns:xlink="http://www.w3.org/1999/xlink" contentScriptType="application/ecmascript" contentStyleType="text/css" height="1757px" preserveAspectRatio="none" style="width:880px;height:1757px;background:#FFFFFF;" version="1.1" viewBox="0 0 880 1757" width="880px" zoomAndPan="magnify"><defs><filter height="300%" id="f1pnh5qeeirzkz" width="300%" x="-1" y="-1"><feGaussianBlur result="blurOut" stdDeviation="2.0"/><feColorMatrix in="blurOut" result="blurOut2" type="matrix" values="0 0 0 0 0 0 0 0 0 0 0 0 0 0 0 0 0 0 .4 0"/><feOffset dx="4.0" dy="4.0" in="blurOut2" result="blurOut3"/><feBlend in="SourceGraphic" in2="blurOut3" mode="normal"/></filter></defs><g><!--MD5=[a500572fe9fdc701d0d4c727d9134cca]
cluster Desktop--><polygon fill="#FFFFFF" filter="url(#f1pnh5qeeirzkz)" points="16,71,80,71,87,94.6094,863,94.6094,863,1750,16,1750,16,71" style="stroke:#000000;stroke-width:1.5;"/><line style="stroke:#000000;stroke-width:1.5;" x1="16" x2="87" y1="94.6094" y2="94.6094"/><text fill="#000000" font-family="sans-serif" font-size="14" font-weight="bold" lengthAdjust="spacing" textLength="58" x="20" y="87.5332">Desktop</text><!--MD5=[83cc3761370491bf52278442dffdabb9]
cluster Desktop.pages--><polygon fill="#FFFFFF" filter="url(#f1pnh5qeeirzkz)" points="442,458,491,458,498,481.6094,646,481.6094,646,600,442,600,442,458" style="stroke:#000000;stroke-width:1.5;"/><line style="stroke:#000000;stroke-width:1.5;" x1="442" x2="498" y1="481.6094" y2="481.6094"/><text fill="#000000" font-family="sans-serif" font-size="14" font-weight="bold" lengthAdjust="spacing" textLength="43" x="446" y="474.5332">pages</text><!--MD5=[17d86b2c5a0ae24fde9fd4540775d18f]
cluster Desktop.models--><polygon fill="#FFFFFF" filter="url(#f1pnh5qeeirzkz)" points="40,817,97,817,104,840.6094,657,840.6094,657,1438,40,1438,40,817" style="stroke:#000000;stroke-width:1.5;"/><line style="stroke:#000000;stroke-width:1.5;" x1="40" x2="104" y1="840.6094" y2="840.6094"/><text fill="#000000" font-family="sans-serif" font-size="14" font-weight="bold" lengthAdjust="spacing" textLength="51" x="44" y="833.5332">models</text><!--MD5=[400a3d71c0172caad43990abc5552e88]
cluster Desktop.factories--><polygon fill="#FFFFFF" filter="url(#f1pnh5qeeirzkz)" points="40,1462,108,1462,115,1485.6094,826,1485.6094,826,1726,40,1726,40,1462" style="stroke:#000000;stroke-width:1.5;"/><line style="stroke:#000000;stroke-width:1.5;" x1="40" x2="115" y1="1485.6094" y2="1485.6094"/><text fill="#000000" font-family="sans-serif" font-size="14" font-weight="bold" lengthAdjust="spacing" textLength="62" x="44" y="1478.5332">factories</text><!--MD5=[7546ec5fc10dc6ee2881dfdbadce84d8]
cluster Desktop.domain--><polygon fill="#FFFFFF" filter="url(#f1pnh5qeeirzkz)" points="474,624,531,624,538,647.6094,632,647.6094,632,793,474,793,474,624" style="stroke:#000000;stroke-width:1.5;"/><line style="stroke:#000000;stroke-width:1.5;" x1="474" x2="538" y1="647.6094" y2="647.6094"/><text fill="#000000" font-family="sans-serif" font-size="14" font-weight="bold" lengthAdjust="spacing" textLength="51" x="478" y="640.5332">domain</text><!--MD5=[a7c788eced8dc8a9052ac156c6fb1915]
cluster Desktop.services--><polygon fill="#FFFFFF" filter="url(#f1pnh5qeeirzkz)" points="466,115,533,115,540,138.6094,839,138.6094,839,434,466,434,466,115" style="stroke:#000000;stroke-width:1.5;"/><line style="stroke:#000000;stroke-width:1.5;" x1="466" x2="540" y1="138.6094" y2="138.6094"/><text fill="#000000" font-family="sans-serif" font-size="14" font-weight="bold" lengthAdjust="spacing" textLength="61" x="470" y="131.5332">services</text><!--MD5=[5b612881c6f04885929e5a9269182fbb]
class Desktop.App--><rect codeLine="158" fill="#FEFECE" filter="url(#f1pnh5qeeirzkz)" height="75.6719" id="Desktop.App" style="stroke:#A80036;stroke-width:1.5;" width="126" x="294" y="335"/><ellipse cx="342.25" cy="351" fill="#ADD1B2" rx="11" ry="11" style="stroke:#A80036;stroke-width:1.0;"/><path d="M345.0156,346.875 Q345.1719,346.6563 345.3594,346.5469 Q345.5469,346.4375 345.7656,346.4375 Q346.1406,346.4375 346.375,346.7031 Q346.6094,346.9531 346.6094,347.5625 L346.6094,349.0156 Q346.6094,349.625 346.375,349.8906 Q346.1406,350.1563 345.7656,350.1563 Q345.4219,350.1563 345.2188,349.9531 Q345.0156,349.7656 344.9063,349.25 Q344.8594,348.8906 344.6719,348.7031 Q344.3438,348.3281 343.7344,348.1094 Q343.125,347.8906 342.5,347.8906 Q341.7344,347.8906 341.0938,348.2188 Q340.4688,348.5469 339.9688,349.2969 Q339.4844,350.0469 339.4844,351.0781 L339.4844,352.1719 Q339.4844,353.4063 340.375,354.2344 Q341.2656,355.0469 342.8594,355.0469 Q343.7969,355.0469 344.4531,354.7969 Q344.8438,354.6406 345.2656,354.2031 Q345.5313,353.9375 345.6719,353.8594 Q345.8281,353.7813 346.0313,353.7813 Q346.3594,353.7813 346.6094,354.0469 Q346.875,354.2969 346.875,354.6406 Q346.875,354.9844 346.5313,355.3906 Q346.0313,355.9688 345.2344,356.2969 Q344.1563,356.75 342.8594,356.75 Q341.3438,356.75 340.1406,356.125 Q339.1563,355.625 338.4688,354.5625 Q337.7813,353.4844 337.7813,352.2031 L337.7813,351.0469 Q337.7813,349.7188 338.3906,348.5781 Q339.0156,347.4219 340.1094,346.8125 Q341.2031,346.1875 342.4375,346.1875 Q343.1719,346.1875 343.8125,346.3594 Q344.4688,346.5156 345.0156,346.875 Z " fill="#000000"/><text fill="#000000" font-family="sans-serif" font-size="12" lengthAdjust="spacing" textLength="21" x="362.75" y="355.9102">App</text><line style="stroke:#A80036;stroke-width:1.5;" x1="295" x2="419" y1="367" y2="367"/><rect fill="none" height="6" style="stroke:#C82930;stroke-width:1.0;" width="6" x="302" y="375"/><text fill="#000000" font-family="sans-serif" font-size="11" lengthAdjust="spacing" textLength="100" x="314" y="382.4189">displayedPage: Page</text><line style="stroke:#A80036;stroke-width:1.5;" x1="295" x2="419" y1="388.8359" y2="388.8359"/><ellipse cx="305" cy="399.8359" fill="#84BE84" rx="3" ry="3" style="stroke:#038048;stroke-width:1.0;"/><text fill="#000000" font-family="sans-serif" font-size="11" lengthAdjust="spacing" textLength="30" x="314" y="404.2549">start()</text><!--MD5=[ef9b6ad1b4629545e8cc154317805003]
class Desktop.pages.Page--><rect codeLine="7" fill="#FEFECE" filter="url(#f1pnh5qeeirzkz)" height="89.5078" id="Desktop.pages.Page" style="stroke:#A80036;stroke-width:1.5;" width="171" x="458.5" y="494"/><ellipse cx="525.25" cy="510" fill="#B4A7E5" rx="11" ry="11" style="stroke:#A80036;stroke-width:1.0;"/><path d="M526.2031,506.6406 L526.2031,513.2969 L527.9219,513.2969 Q528.5313,513.2969 528.7969,513.5313 Q529.0625,513.7656 529.0625,514.1563 Q529.0625,514.5313 528.7969,514.7656 Q528.5313,515 527.9219,515 L522.7813,515 Q522.1719,515 521.9063,514.7656 Q521.6406,514.5313 521.6406,514.1406 Q521.6406,513.7656 521.9063,513.5313 Q522.1719,513.2969 522.7813,513.2969 L524.5,513.2969 L524.5,506.6406 L522.7813,506.6406 Q522.1719,506.6406 521.9063,506.4063 Q521.6406,506.1719 521.6406,505.7813 Q521.6406,505.4063 521.9063,505.1719 Q522.1719,504.9375 522.7813,504.9375 L527.9219,504.9375 Q528.5313,504.9375 528.7969,505.1719 Q529.0625,505.4063 529.0625,505.7813 Q529.0625,506.1719 528.7969,506.4063 Q528.5313,506.6406 527.9219,506.6406 L526.2031,506.6406 Z " fill="#000000"/><text fill="#000000" font-family="sans-serif" font-size="12" font-style="italic" lengthAdjust="spacing" textLength="29" x="545.75" y="514.9102">Page</text><line style="stroke:#A80036;stroke-width:1.5;" x1="459.5" x2="628.5" y1="526" y2="526"/><line style="stroke:#A80036;stroke-width:1.5;" x1="459.5" x2="628.5" y1="534" y2="534"/><ellipse cx="469.5" cy="545" fill="#84BE84" rx="3" ry="3" style="stroke:#038048;stroke-width:1.0;"/><text fill="#000000" font-family="sans-serif" font-size="11" lengthAdjust="spacing" textLength="67" x="478.5" y="549.4189">update(): void</text><polygon fill="#FFFF44" points="469.5,553.8359,473.5,557.8359,469.5,561.8359,465.5,557.8359" style="stroke:#B38D22;stroke-width:1.0;"/><text fill="#000000" font-family="sans-serif" font-size="11" lengthAdjust="spacing" textLength="132" x="478.5" y="563.2549">componentWillMount(): void</text><polygon fill="#FFFF44" points="469.5,567.6719,473.5,571.6719,469.5,575.6719,465.5,571.6719" style="stroke:#B38D22;stroke-width:1.0;"/><text fill="#000000" font-family="sans-serif" font-size="11" lengthAdjust="spacing" textLength="145" x="478.5" y="577.0908">componentWillUnmount(): void</text><!--MD5=[d9e8eab182553b5eb6e502b3cac18190]
class Desktop.models.Games--><rect codeLine="14" fill="#FEFECE" filter="url(#f1pnh5qeeirzkz)" height="172.5234" id="Desktop.models.Games" style="stroke:#A80036;stroke-width:1.5;" width="164" x="286" y="853"/><ellipse cx="343.25" cy="869" fill="#ADD1B2" rx="11" ry="11" style="stroke:#A80036;stroke-width:1.0;"/><path d="M346.0156,864.875 Q346.1719,864.6563 346.3594,864.5469 Q346.5469,864.4375 346.7656,864.4375 Q347.1406,864.4375 347.375,864.7031 Q347.6094,864.9531 347.6094,865.5625 L347.6094,867.0156 Q347.6094,867.625 347.375,867.8906 Q347.1406,868.1563 346.7656,868.1563 Q346.4219,868.1563 346.2188,867.9531 Q346.0156,867.7656 345.9063,867.25 Q345.8594,866.8906 345.6719,866.7031 Q345.3438,866.3281 344.7344,866.1094 Q344.125,865.8906 343.5,865.8906 Q342.7344,865.8906 342.0938,866.2188 Q341.4688,866.5469 340.9688,867.2969 Q340.4844,868.0469 340.4844,869.0781 L340.4844,870.1719 Q340.4844,871.4063 341.375,872.2344 Q342.2656,873.0469 343.8594,873.0469 Q344.7969,873.0469 345.4531,872.7969 Q345.8438,872.6406 346.2656,872.2031 Q346.5313,871.9375 346.6719,871.8594 Q346.8281,871.7813 347.0313,871.7813 Q347.3594,871.7813 347.6094,872.0469 Q347.875,872.2969 347.875,872.6406 Q347.875,872.9844 347.5313,873.3906 Q347.0313,873.9688 346.2344,874.2969 Q345.1563,874.75 343.8594,874.75 Q342.3438,874.75 341.1406,874.125 Q340.1563,873.625 339.4688,872.5625 Q338.7813,871.4844 338.7813,870.2031 L338.7813,869.0469 Q338.7813,867.7188 339.3906,866.5781 Q340.0156,865.4219 341.1094,864.8125 Q342.2031,864.1875 343.4375,864.1875 Q344.1719,864.1875 344.8125,864.3594 Q345.4688,864.5156 346.0156,864.875 Z " fill="#000000"/><text fill="#000000" font-family="sans-serif" font-size="12" lengthAdjust="spacing" textLength="41" x="363.75" y="873.9102">Games</text><line style="stroke:#A80036;stroke-width:1.5;" x1="287" x2="449" y1="885" y2="885"/><rect fill="none" height="6" style="stroke:#C82930;stroke-width:1.0;" width="6" x="294" y="893"/><text fill="#000000" font-family="sans-serif" font-size="11" lengthAdjust="spacing" textLength="25" x="306" y="900.4189">id: int</text><rect fill="none" height="6" style="stroke:#C82930;stroke-width:1.0;" width="6" x="294" y="906.8359"/><text fill="#000000" font-family="sans-serif" font-size="11" lengthAdjust="spacing" textLength="60" x="306" y="914.2549">name: String</text><rect fill="none" height="6" style="stroke:#C82930;stroke-width:1.0;" width="6" x="294" y="920.6719"/><text fill="#000000" font-family="sans-serif" font-size="11" lengthAdjust="spacing" textLength="87" x="306" y="928.0908">description: String</text><rect fill="none" height="6" style="stroke:#C82930;stroke-width:1.0;" width="6" x="294" y="934.5078"/><text fill="#000000" font-family="sans-serif" font-size="11" lengthAdjust="spacing" textLength="138" x="306" y="941.9268">categories: List&lt;Categories&gt;</text><rect fill="none" height="6" style="stroke:#C82930;stroke-width:1.0;" width="6" x="294" y="948.3438"/><text fill="#000000" font-family="sans-serif" font-size="11" lengthAdjust="spacing" textLength="134" x="306" y="955.7627">comments: List&lt;Comments&gt;</text><rect fill="none" height="6" style="stroke:#C82930;stroke-width:1.0;" width="6" x="294" y="962.1797"/><text fill="#000000" font-family="sans-serif" font-size="11" lengthAdjust="spacing" textLength="103" x="306" y="969.5986">medias: List&lt;Medias&gt;</text><rect fill="none" height="6" style="stroke:#C82930;stroke-width:1.0;" width="6" x="294" y="976.0156"/><text fill="#000000" font-family="sans-serif" font-size="11" lengthAdjust="spacing" textLength="137" x="306" y="983.4346">plataforms: List&lt;Plataforms&gt;</text><line style="stroke:#A80036;stroke-width:1.5;" x1="287" x2="449" y1="989.8516" y2="989.8516"/><ellipse cx="297" cy="1000.8516" fill="#84BE84" rx="3" ry="3" style="stroke:#038048;stroke-width:1.0;"/><text fill="#000000" font-family="sans-serif" font-size="11" lengthAdjust="spacing" textLength="42" x="306" y="1005.2705">getters()</text><ellipse cx="297" cy="1014.6875" fill="#84BE84" rx="3" ry="3" style="stroke:#038048;stroke-width:1.0;"/><text fill="#000000" font-family="sans-serif" font-size="11" lengthAdjust="spacing" textLength="42" x="306" y="1019.1064">setters()</text><!--MD5=[ce1a63c981e911dcb990e791637a1010]
class Desktop.models.Categories--><rect codeLine="25" fill="#FEFECE" filter="url(#f1pnh5qeeirzkz)" height="103.3438" id="Desktop.models.Categories" style="stroke:#A80036;stroke-width:1.5;" width="93" x="399.5" y="1114"/><ellipse cx="414.5" cy="1130" fill="#ADD1B2" rx="11" ry="11" style="stroke:#A80036;stroke-width:1.0;"/><path d="M417.2656,1125.875 Q417.4219,1125.6563 417.6094,1125.5469 Q417.7969,1125.4375 418.0156,1125.4375 Q418.3906,1125.4375 418.625,1125.7031 Q418.8594,1125.9531 418.8594,1126.5625 L418.8594,1128.0156 Q418.8594,1128.625 418.625,1128.8906 Q418.3906,1129.1563 418.0156,1129.1563 Q417.6719,1129.1563 417.4688,1128.9531 Q417.2656,1128.7656 417.1563,1128.25 Q417.1094,1127.8906 416.9219,1127.7031 Q416.5938,1127.3281 415.9844,1127.1094 Q415.375,1126.8906 414.75,1126.8906 Q413.9844,1126.8906 413.3438,1127.2188 Q412.7188,1127.5469 412.2188,1128.2969 Q411.7344,1129.0469 411.7344,1130.0781 L411.7344,1131.1719 Q411.7344,1132.4063 412.625,1133.2344 Q413.5156,1134.0469 415.1094,1134.0469 Q416.0469,1134.0469 416.7031,1133.7969 Q417.0938,1133.6406 417.5156,1133.2031 Q417.7813,1132.9375 417.9219,1132.8594 Q418.0781,1132.7813 418.2813,1132.7813 Q418.6094,1132.7813 418.8594,1133.0469 Q419.125,1133.2969 419.125,1133.6406 Q419.125,1133.9844 418.7813,1134.3906 Q418.2813,1134.9688 417.4844,1135.2969 Q416.4063,1135.75 415.1094,1135.75 Q413.5938,1135.75 412.3906,1135.125 Q411.4063,1134.625 410.7188,1133.5625 Q410.0313,1132.4844 410.0313,1131.2031 L410.0313,1130.0469 Q410.0313,1128.7188 410.6406,1127.5781 Q411.2656,1126.4219 412.3594,1125.8125 Q413.4531,1125.1875 414.6875,1125.1875 Q415.4219,1125.1875 416.0625,1125.3594 Q416.7188,1125.5156 417.2656,1125.875 Z " fill="#000000"/><text fill="#000000" font-family="sans-serif" font-size="12" lengthAdjust="spacing" textLength="61" x="428.5" y="1134.9102">Categories</text><line style="stroke:#A80036;stroke-width:1.5;" x1="400.5" x2="491.5" y1="1146" y2="1146"/><rect fill="none" height="6" style="stroke:#C82930;stroke-width:1.0;" width="6" x="407.5" y="1154"/><text fill="#000000" font-family="sans-serif" font-size="11" lengthAdjust="spacing" textLength="25" x="419.5" y="1161.4189">id: int</text><rect fill="none" height="6" style="stroke:#C82930;stroke-width:1.0;" width="6" x="407.5" y="1167.8359"/><text fill="#000000" font-family="sans-serif" font-size="11" lengthAdjust="spacing" textLength="60" x="419.5" y="1175.2549">name: String</text><line style="stroke:#A80036;stroke-width:1.5;" x1="400.5" x2="491.5" y1="1181.6719" y2="1181.6719"/><ellipse cx="410.5" cy="1192.6719" fill="#84BE84" rx="3" ry="3" style="stroke:#038048;stroke-width:1.0;"/><text fill="#000000" font-family="sans-serif" font-size="11" lengthAdjust="spacing" textLength="42" x="419.5" y="1197.0908">getters()</text><ellipse cx="410.5" cy="1206.5078" fill="#84BE84" rx="3" ry="3" style="stroke:#038048;stroke-width:1.0;"/><text fill="#000000" font-family="sans-serif" font-size="11" lengthAdjust="spacing" textLength="42" x="419.5" y="1210.9268">setters()</text><!--MD5=[ae4ad1e261b393473fcd615d4ff30c01]
class Desktop.models.Comments--><rect codeLine="31" fill="#FEFECE" filter="url(#f1pnh5qeeirzkz)" height="131.0156" id="Desktop.models.Comments" style="stroke:#A80036;stroke-width:1.5;" width="113" x="527.5" y="1100"/><ellipse cx="551.05" cy="1116" fill="#ADD1B2" rx="11" ry="11" style="stroke:#A80036;stroke-width:1.0;"/><path d="M553.8156,1111.875 Q553.9719,1111.6563 554.1594,1111.5469 Q554.3469,1111.4375 554.5656,1111.4375 Q554.9406,1111.4375 555.175,1111.7031 Q555.4094,1111.9531 555.4094,1112.5625 L555.4094,1114.0156 Q555.4094,1114.625 555.175,1114.8906 Q554.9406,1115.1563 554.5656,1115.1563 Q554.2219,1115.1563 554.0188,1114.9531 Q553.8156,1114.7656 553.7063,1114.25 Q553.6594,1113.8906 553.4719,1113.7031 Q553.1438,1113.3281 552.5344,1113.1094 Q551.925,1112.8906 551.3,1112.8906 Q550.5344,1112.8906 549.8938,1113.2188 Q549.2688,1113.5469 548.7688,1114.2969 Q548.2844,1115.0469 548.2844,1116.0781 L548.2844,1117.1719 Q548.2844,1118.4063 549.175,1119.2344 Q550.0656,1120.0469 551.6594,1120.0469 Q552.5969,1120.0469 553.2531,1119.7969 Q553.6438,1119.6406 554.0656,1119.2031 Q554.3313,1118.9375 554.4719,1118.8594 Q554.6281,1118.7813 554.8313,1118.7813 Q555.1594,1118.7813 555.4094,1119.0469 Q555.675,1119.2969 555.675,1119.6406 Q555.675,1119.9844 555.3313,1120.3906 Q554.8313,1120.9688 554.0344,1121.2969 Q552.9563,1121.75 551.6594,1121.75 Q550.1438,1121.75 548.9406,1121.125 Q547.9563,1120.625 547.2688,1119.5625 Q546.5813,1118.4844 546.5813,1117.2031 L546.5813,1116.0469 Q546.5813,1114.7188 547.1906,1113.5781 Q547.8156,1112.4219 548.9094,1111.8125 Q550.0031,1111.1875 551.2375,1111.1875 Q551.9719,1111.1875 552.6125,1111.3594 Q553.2688,1111.5156 553.8156,1111.875 Z " fill="#000000"/><text fill="#000000" font-family="sans-serif" font-size="12" lengthAdjust="spacing" textLength="62" x="566.95" y="1120.9102">Comments</text><line style="stroke:#A80036;stroke-width:1.5;" x1="528.5" x2="639.5" y1="1132" y2="1132"/><rect fill="none" height="6" style="stroke:#C82930;stroke-width:1.0;" width="6" x="535.5" y="1140"/><text fill="#000000" font-family="sans-serif" font-size="11" lengthAdjust="spacing" textLength="25" x="547.5" y="1147.4189">id: int</text><rect fill="none" height="6" style="stroke:#C82930;stroke-width:1.0;" width="6" x="535.5" y="1153.8359"/><text fill="#000000" font-family="sans-serif" font-size="11" lengthAdjust="spacing" textLength="57" x="547.5" y="1161.2549">gamesId: int</text><rect fill="none" height="6" style="stroke:#C82930;stroke-width:1.0;" width="6" x="535.5" y="1167.6719"/><text fill="#000000" font-family="sans-serif" font-size="11" lengthAdjust="spacing" textLength="47" x="547.5" y="1175.0908">userId: int</text><rect fill="none" height="6" style="stroke:#C82930;stroke-width:1.0;" width="6" x="535.5" y="1181.5078"/><text fill="#000000" font-family="sans-serif" font-size="11" lengthAdjust="spacing" textLength="87" x="547.5" y="1188.9268">description: String</text><line style="stroke:#A80036;stroke-width:1.5;" x1="528.5" x2="639.5" y1="1195.3438" y2="1195.3438"/><ellipse cx="538.5" cy="1206.3438" fill="#84BE84" rx="3" ry="3" style="stroke:#038048;stroke-width:1.0;"/><text fill="#000000" font-family="sans-serif" font-size="11" lengthAdjust="spacing" textLength="42" x="547.5" y="1210.7627">getters()</text><ellipse cx="538.5" cy="1220.1797" fill="#84BE84" rx="3" ry="3" style="stroke:#038048;stroke-width:1.0;"/><text fill="#000000" font-family="sans-serif" font-size="11" lengthAdjust="spacing" textLength="42" x="547.5" y="1224.5986">setters()</text><!--MD5=[0f56d2100571d90f0d297d2398ec52a1]
class Desktop.models.Medias--><rect codeLine="39" fill="#FEFECE" filter="url(#f1pnh5qeeirzkz)" height="117.1797" id="Desktop.models.Medias" style="stroke:#A80036;stroke-width:1.5;" width="112" x="56" y="1107"/><ellipse cx="89" cy="1123" fill="#ADD1B2" rx="11" ry="11" style="stroke:#A80036;stroke-width:1.0;"/><path d="M91.7656,1118.875 Q91.9219,1118.6563 92.1094,1118.5469 Q92.2969,1118.4375 92.5156,1118.4375 Q92.8906,1118.4375 93.125,1118.7031 Q93.3594,1118.9531 93.3594,1119.5625 L93.3594,1121.0156 Q93.3594,1121.625 93.125,1121.8906 Q92.8906,1122.1563 92.5156,1122.1563 Q92.1719,1122.1563 91.9688,1121.9531 Q91.7656,1121.7656 91.6563,1121.25 Q91.6094,1120.8906 91.4219,1120.7031 Q91.0938,1120.3281 90.4844,1120.1094 Q89.875,1119.8906 89.25,1119.8906 Q88.4844,1119.8906 87.8438,1120.2188 Q87.2188,1120.5469 86.7188,1121.2969 Q86.2344,1122.0469 86.2344,1123.0781 L86.2344,1124.1719 Q86.2344,1125.4063 87.125,1126.2344 Q88.0156,1127.0469 89.6094,1127.0469 Q90.5469,1127.0469 91.2031,1126.7969 Q91.5938,1126.6406 92.0156,1126.2031 Q92.2813,1125.9375 92.4219,1125.8594 Q92.5781,1125.7813 92.7813,1125.7813 Q93.1094,1125.7813 93.3594,1126.0469 Q93.625,1126.2969 93.625,1126.6406 Q93.625,1126.9844 93.2813,1127.3906 Q92.7813,1127.9688 91.9844,1128.2969 Q90.9063,1128.75 89.6094,1128.75 Q88.0938,1128.75 86.8906,1128.125 Q85.9063,1127.625 85.2188,1126.5625 Q84.5313,1125.4844 84.5313,1124.2031 L84.5313,1123.0469 Q84.5313,1121.7188 85.1406,1120.5781 Q85.7656,1119.4219 86.8594,1118.8125 Q87.9531,1118.1875 89.1875,1118.1875 Q89.9219,1118.1875 90.5625,1118.3594 Q91.2188,1118.5156 91.7656,1118.875 Z " fill="#000000"/><text fill="#000000" font-family="sans-serif" font-size="12" lengthAdjust="spacing" textLength="40" x="107" y="1127.9102">Medias</text><line style="stroke:#A80036;stroke-width:1.5;" x1="57" x2="167" y1="1139" y2="1139"/><rect fill="none" height="6" style="stroke:#C82930;stroke-width:1.0;" width="6" x="64" y="1147"/><text fill="#000000" font-family="sans-serif" font-size="11" lengthAdjust="spacing" textLength="25" x="76" y="1154.4189">id: int</text><rect fill="none" height="6" style="stroke:#C82930;stroke-width:1.0;" width="6" x="64" y="1160.8359"/><text fill="#000000" font-family="sans-serif" font-size="11" lengthAdjust="spacing" textLength="57" x="76" y="1168.2549">gamesId: int</text><rect fill="none" height="6" style="stroke:#C82930;stroke-width:1.0;" width="6" x="64" y="1174.6719"/><text fill="#000000" font-family="sans-serif" font-size="11" lengthAdjust="spacing" textLength="86" x="76" y="1182.0908">mediaType: String</text><line style="stroke:#A80036;stroke-width:1.5;" x1="57" x2="167" y1="1188.5078" y2="1188.5078"/><ellipse cx="67" cy="1199.5078" fill="#84BE84" rx="3" ry="3" style="stroke:#038048;stroke-width:1.0;"/><text fill="#000000" font-family="sans-serif" font-size="11" lengthAdjust="spacing" textLength="42" x="76" y="1203.9268">getters()</text><ellipse cx="67" cy="1213.3438" fill="#84BE84" rx="3" ry="3" style="stroke:#038048;stroke-width:1.0;"/><text fill="#000000" font-family="sans-serif" font-size="11" lengthAdjust="spacing" textLength="42" x="76" y="1217.7627">setters()</text><!--MD5=[78373ad862942298a8c64cc4f5e95f13]
class Desktop.models.GameDataOnPlataform--><rect codeLine="46" fill="#FEFECE" filter="url(#f1pnh5qeeirzkz)" height="158.6875" id="Desktop.models.GameDataOnPlataform" style="stroke:#A80036;stroke-width:1.5;" width="161" x="203.5" y="1086"/><ellipse cx="218.5" cy="1102" fill="#ADD1B2" rx="11" ry="11" style="stroke:#A80036;stroke-width:1.0;"/><path d="M221.2656,1097.875 Q221.4219,1097.6563 221.6094,1097.5469 Q221.7969,1097.4375 222.0156,1097.4375 Q222.3906,1097.4375 222.625,1097.7031 Q222.8594,1097.9531 222.8594,1098.5625 L222.8594,1100.0156 Q222.8594,1100.625 222.625,1100.8906 Q222.3906,1101.1563 222.0156,1101.1563 Q221.6719,1101.1563 221.4688,1100.9531 Q221.2656,1100.7656 221.1563,1100.25 Q221.1094,1099.8906 220.9219,1099.7031 Q220.5938,1099.3281 219.9844,1099.1094 Q219.375,1098.8906 218.75,1098.8906 Q217.9844,1098.8906 217.3438,1099.2188 Q216.7188,1099.5469 216.2188,1100.2969 Q215.7344,1101.0469 215.7344,1102.0781 L215.7344,1103.1719 Q215.7344,1104.4063 216.625,1105.2344 Q217.5156,1106.0469 219.1094,1106.0469 Q220.0469,1106.0469 220.7031,1105.7969 Q221.0938,1105.6406 221.5156,1105.2031 Q221.7813,1104.9375 221.9219,1104.8594 Q222.0781,1104.7813 222.2813,1104.7813 Q222.6094,1104.7813 222.8594,1105.0469 Q223.125,1105.2969 223.125,1105.6406 Q223.125,1105.9844 222.7813,1106.3906 Q222.2813,1106.9688 221.4844,1107.2969 Q220.4063,1107.75 219.1094,1107.75 Q217.5938,1107.75 216.3906,1107.125 Q215.4063,1106.625 214.7188,1105.5625 Q214.0313,1104.4844 214.0313,1103.2031 L214.0313,1102.0469 Q214.0313,1100.7188 214.6406,1099.5781 Q215.2656,1098.4219 216.3594,1097.8125 Q217.4531,1097.1875 218.6875,1097.1875 Q219.4219,1097.1875 220.0625,1097.3594 Q220.7188,1097.5156 221.2656,1097.875 Z " fill="#000000"/><text fill="#000000" font-family="sans-serif" font-size="12" lengthAdjust="spacing" textLength="129" x="232.5" y="1106.9102">GameDataOnPlataform</text><line style="stroke:#A80036;stroke-width:1.5;" x1="204.5" x2="363.5" y1="1118" y2="1118"/><rect fill="none" height="6" style="stroke:#C82930;stroke-width:1.0;" width="6" x="211.5" y="1126"/><text fill="#000000" font-family="sans-serif" font-size="11" lengthAdjust="spacing" textLength="76" x="223.5" y="1133.4189">plataformsId: int</text><rect fill="none" height="6" style="stroke:#C82930;stroke-width:1.0;" width="6" x="211.5" y="1139.8359"/><text fill="#000000" font-family="sans-serif" font-size="11" lengthAdjust="spacing" textLength="57" x="223.5" y="1147.2549">gamesId: int</text><rect fill="none" height="6" style="stroke:#C82930;stroke-width:1.0;" width="6" x="211.5" y="1153.6719"/><text fill="#000000" font-family="sans-serif" font-size="11" lengthAdjust="spacing" textLength="63" x="223.5" y="1161.0908">price: Double</text><rect fill="none" height="6" style="stroke:#C82930;stroke-width:1.0;" width="6" x="211.5" y="1167.5078"/><text fill="#000000" font-family="sans-serif" font-size="11" lengthAdjust="spacing" textLength="76" x="223.5" y="1174.9268">priceUnit: String</text><rect fill="none" height="6" style="stroke:#C82930;stroke-width:1.0;" width="6" x="211.5" y="1181.3438"/><text fill="#000000" font-family="sans-serif" font-size="11" lengthAdjust="spacing" textLength="70" x="223.5" y="1188.7627">discount: Float</text><rect fill="none" height="6" style="stroke:#C82930;stroke-width:1.0;" width="6" x="211.5" y="1195.1797"/><text fill="#000000" font-family="sans-serif" font-size="11" lengthAdjust="spacing" textLength="90" x="223.5" y="1202.5986">isEnabled: boolean</text><line style="stroke:#A80036;stroke-width:1.5;" x1="204.5" x2="363.5" y1="1209.0156" y2="1209.0156"/><ellipse cx="214.5" cy="1220.0156" fill="#84BE84" rx="3" ry="3" style="stroke:#038048;stroke-width:1.0;"/><text fill="#000000" font-family="sans-serif" font-size="11" lengthAdjust="spacing" textLength="42" x="223.5" y="1224.4346">getters()</text><ellipse cx="214.5" cy="1233.8516" fill="#84BE84" rx="3" ry="3" style="stroke:#038048;stroke-width:1.0;"/><text fill="#000000" font-family="sans-serif" font-size="11" lengthAdjust="spacing" textLength="42" x="223.5" y="1238.2705">setters()</text><!--MD5=[8cd2ee16af47b2bd7e7de93daa011793]
class Desktop.models.Plataforms--><rect codeLine="56" fill="#FEFECE" filter="url(#f1pnh5qeeirzkz)" height="117.1797" id="Desktop.models.Plataforms" style="stroke:#A80036;stroke-width:1.5;" width="92" x="230" y="1305"/><ellipse cx="245" cy="1321" fill="#ADD1B2" rx="11" ry="11" style="stroke:#A80036;stroke-width:1.0;"/><path d="M247.7656,1316.875 Q247.9219,1316.6563 248.1094,1316.5469 Q248.2969,1316.4375 248.5156,1316.4375 Q248.8906,1316.4375 249.125,1316.7031 Q249.3594,1316.9531 249.3594,1317.5625 L249.3594,1319.0156 Q249.3594,1319.625 249.125,1319.8906 Q248.8906,1320.1563 248.5156,1320.1563 Q248.1719,1320.1563 247.9688,1319.9531 Q247.7656,1319.7656 247.6563,1319.25 Q247.6094,1318.8906 247.4219,1318.7031 Q247.0938,1318.3281 246.4844,1318.1094 Q245.875,1317.8906 245.25,1317.8906 Q244.4844,1317.8906 243.8438,1318.2188 Q243.2188,1318.5469 242.7188,1319.2969 Q242.2344,1320.0469 242.2344,1321.0781 L242.2344,1322.1719 Q242.2344,1323.4063 243.125,1324.2344 Q244.0156,1325.0469 245.6094,1325.0469 Q246.5469,1325.0469 247.2031,1324.7969 Q247.5938,1324.6406 248.0156,1324.2031 Q248.2813,1323.9375 248.4219,1323.8594 Q248.5781,1323.7813 248.7813,1323.7813 Q249.1094,1323.7813 249.3594,1324.0469 Q249.625,1324.2969 249.625,1324.6406 Q249.625,1324.9844 249.2813,1325.3906 Q248.7813,1325.9688 247.9844,1326.2969 Q246.9063,1326.75 245.6094,1326.75 Q244.0938,1326.75 242.8906,1326.125 Q241.9063,1325.625 241.2188,1324.5625 Q240.5313,1323.4844 240.5313,1322.2031 L240.5313,1321.0469 Q240.5313,1319.7188 241.1406,1318.5781 Q241.7656,1317.4219 242.8594,1316.8125 Q243.9531,1316.1875 245.1875,1316.1875 Q245.9219,1316.1875 246.5625,1316.3594 Q247.2188,1316.5156 247.7656,1316.875 Z " fill="#000000"/><text fill="#000000" font-family="sans-serif" font-size="12" lengthAdjust="spacing" textLength="60" x="259" y="1325.9102">Plataforms</text><line style="stroke:#A80036;stroke-width:1.5;" x1="231" x2="321" y1="1337" y2="1337"/><rect fill="none" height="6" style="stroke:#C82930;stroke-width:1.0;" width="6" x="238" y="1345"/><text fill="#000000" font-family="sans-serif" font-size="11" lengthAdjust="spacing" textLength="25" x="250" y="1352.4189">id: int</text><rect fill="none" height="6" style="stroke:#C82930;stroke-width:1.0;" width="6" x="238" y="1358.8359"/><text fill="#000000" font-family="sans-serif" font-size="11" lengthAdjust="spacing" textLength="60" x="250" y="1366.2549">name: String</text><rect fill="none" height="6" style="stroke:#C82930;stroke-width:1.0;" width="6" x="238" y="1372.6719"/><text fill="#000000" font-family="sans-serif" font-size="11" lengthAdjust="spacing" textLength="31" x="250" y="1380.0908">url: Url</text><line style="stroke:#A80036;stroke-width:1.5;" x1="231" x2="321" y1="1386.5078" y2="1386.5078"/><ellipse cx="241" cy="1397.5078" fill="#84BE84" rx="3" ry="3" style="stroke:#038048;stroke-width:1.0;"/><text fill="#000000" font-family="sans-serif" font-size="11" lengthAdjust="spacing" textLength="42" x="250" y="1401.9268">getters()</text><ellipse cx="241" cy="1411.3438" fill="#84BE84" rx="3" ry="3" style="stroke:#038048;stroke-width:1.0;"/><text fill="#000000" font-family="sans-serif" font-size="11" lengthAdjust="spacing" textLength="42" x="250" y="1415.7627">setters()</text><!--MD5=[5d73a355f43f4a0978f2777ffb189052]
class Desktop.models.Users--><rect codeLine="63" fill="#FEFECE" filter="url(#f1pnh5qeeirzkz)" height="158.6875" id="Desktop.models.Users" style="stroke:#A80036;stroke-width:1.5;" width="156" x="485" y="860"/><ellipse cx="541.75" cy="876" fill="#ADD1B2" rx="11" ry="11" style="stroke:#A80036;stroke-width:1.0;"/><path d="M544.5156,871.875 Q544.6719,871.6563 544.8594,871.5469 Q545.0469,871.4375 545.2656,871.4375 Q545.6406,871.4375 545.875,871.7031 Q546.1094,871.9531 546.1094,872.5625 L546.1094,874.0156 Q546.1094,874.625 545.875,874.8906 Q545.6406,875.1563 545.2656,875.1563 Q544.9219,875.1563 544.7188,874.9531 Q544.5156,874.7656 544.4063,874.25 Q544.3594,873.8906 544.1719,873.7031 Q543.8438,873.3281 543.2344,873.1094 Q542.625,872.8906 542,872.8906 Q541.2344,872.8906 540.5938,873.2188 Q539.9688,873.5469 539.4688,874.2969 Q538.9844,875.0469 538.9844,876.0781 L538.9844,877.1719 Q538.9844,878.4063 539.875,879.2344 Q540.7656,880.0469 542.3594,880.0469 Q543.2969,880.0469 543.9531,879.7969 Q544.3438,879.6406 544.7656,879.2031 Q545.0313,878.9375 545.1719,878.8594 Q545.3281,878.7813 545.5313,878.7813 Q545.8594,878.7813 546.1094,879.0469 Q546.375,879.2969 546.375,879.6406 Q546.375,879.9844 546.0313,880.3906 Q545.5313,880.9688 544.7344,881.2969 Q543.6563,881.75 542.3594,881.75 Q540.8438,881.75 539.6406,881.125 Q538.6563,880.625 537.9688,879.5625 Q537.2813,878.4844 537.2813,877.2031 L537.2813,876.0469 Q537.2813,874.7188 537.8906,873.5781 Q538.5156,872.4219 539.6094,871.8125 Q540.7031,871.1875 541.9375,871.1875 Q542.6719,871.1875 543.3125,871.3594 Q543.9688,871.5156 544.5156,871.875 Z " fill="#000000"/><text fill="#000000" font-family="sans-serif" font-size="12" lengthAdjust="spacing" textLength="34" x="562.25" y="880.9102">Users</text><line style="stroke:#A80036;stroke-width:1.5;" x1="486" x2="640" y1="892" y2="892"/><rect fill="none" height="6" style="stroke:#C82930;stroke-width:1.0;" width="6" x="493" y="900"/><text fill="#000000" font-family="sans-serif" font-size="11" lengthAdjust="spacing" textLength="25" x="505" y="907.4189">id: int</text><rect fill="none" height="6" style="stroke:#C82930;stroke-width:1.0;" width="6" x="493" y="913.8359"/><text fill="#000000" font-family="sans-serif" font-size="11" lengthAdjust="spacing" textLength="60" x="505" y="921.2549">name: String</text><rect fill="none" height="6" style="stroke:#C82930;stroke-width:1.0;" width="6" x="493" y="927.6719"/><text fill="#000000" font-family="sans-serif" font-size="11" lengthAdjust="spacing" textLength="58" x="505" y="935.0908">email: String</text><rect fill="none" height="6" style="stroke:#C82930;stroke-width:1.0;" width="6" x="493" y="941.5078"/><text fill="#000000" font-family="sans-serif" font-size="11" lengthAdjust="spacing" textLength="84" x="505" y="948.9268">password: String</text><rect fill="none" height="6" style="stroke:#C82930;stroke-width:1.0;" width="6" x="493" y="955.3438"/><text fill="#000000" font-family="sans-serif" font-size="11" lengthAdjust="spacing" textLength="130" x="505" y="962.7627">publicityAccepted: boolean</text><rect fill="none" height="6" style="stroke:#C82930;stroke-width:1.0;" width="6" x="493" y="969.1797"/><text fill="#000000" font-family="sans-serif" font-size="11" lengthAdjust="spacing" textLength="75" x="505" y="976.5986">imageUrl: String</text><line style="stroke:#A80036;stroke-width:1.5;" x1="486" x2="640" y1="983.0156" y2="983.0156"/><ellipse cx="496" cy="994.0156" fill="#84BE84" rx="3" ry="3" style="stroke:#038048;stroke-width:1.0;"/><text fill="#000000" font-family="sans-serif" font-size="11" lengthAdjust="spacing" textLength="42" x="505" y="998.4346">getters()</text><ellipse cx="496" cy="1007.8516" fill="#84BE84" rx="3" ry="3" style="stroke:#038048;stroke-width:1.0;"/><text fill="#000000" font-family="sans-serif" font-size="11" lengthAdjust="spacing" textLength="42" x="505" y="1012.2705">setters()</text><!--MD5=[547bec64e045eb0ccc3163ab6dbd2b15]
class Desktop.factories.UsersFactory--><rect codeLine="81" fill="#FEFECE" filter="url(#f1pnh5qeeirzkz)" height="75.6719" id="Desktop.factories.UsersFactory" style="stroke:#A80036;stroke-width:1.5;" width="105" x="704.5" y="1498"/><ellipse cx="719.5" cy="1514" fill="#ADD1B2" rx="11" ry="11" style="stroke:#A80036;stroke-width:1.0;"/><path d="M722.2656,1509.875 Q722.4219,1509.6563 722.6094,1509.5469 Q722.7969,1509.4375 723.0156,1509.4375 Q723.3906,1509.4375 723.625,1509.7031 Q723.8594,1509.9531 723.8594,1510.5625 L723.8594,1512.0156 Q723.8594,1512.625 723.625,1512.8906 Q723.3906,1513.1563 723.0156,1513.1563 Q722.6719,1513.1563 722.4688,1512.9531 Q722.2656,1512.7656 722.1563,1512.25 Q722.1094,1511.8906 721.9219,1511.7031 Q721.5938,1511.3281 720.9844,1511.1094 Q720.375,1510.8906 719.75,1510.8906 Q718.9844,1510.8906 718.3438,1511.2188 Q717.7188,1511.5469 717.2188,1512.2969 Q716.7344,1513.0469 716.7344,1514.0781 L716.7344,1515.1719 Q716.7344,1516.4063 717.625,1517.2344 Q718.5156,1518.0469 720.1094,1518.0469 Q721.0469,1518.0469 721.7031,1517.7969 Q722.0938,1517.6406 722.5156,1517.2031 Q722.7813,1516.9375 722.9219,1516.8594 Q723.0781,1516.7813 723.2813,1516.7813 Q723.6094,1516.7813 723.8594,1517.0469 Q724.125,1517.2969 724.125,1517.6406 Q724.125,1517.9844 723.7813,1518.3906 Q723.2813,1518.9688 722.4844,1519.2969 Q721.4063,1519.75 720.1094,1519.75 Q718.5938,1519.75 717.3906,1519.125 Q716.4063,1518.625 715.7188,1517.5625 Q715.0313,1516.4844 715.0313,1515.2031 L715.0313,1514.0469 Q715.0313,1512.7188 715.6406,1511.5781 Q716.2656,1510.4219 717.3594,1509.8125 Q718.4531,1509.1875 719.6875,1509.1875 Q720.4219,1509.1875 721.0625,1509.3594 Q721.7188,1509.5156 722.2656,1509.875 Z " fill="#000000"/><text fill="#000000" font-family="sans-serif" font-size="12" lengthAdjust="spacing" textLength="73" x="733.5" y="1518.9102">UsersFactory</text><line style="stroke:#A80036;stroke-width:1.5;" x1="705.5" x2="808.5" y1="1530" y2="1530"/><line style="stroke:#A80036;stroke-width:1.5;" x1="705.5" x2="808.5" y1="1538" y2="1538"/><ellipse cx="715.5" cy="1549" fill="#84BE84" rx="3" ry="3" style="stroke:#038048;stroke-width:1.0;"/><text fill="#000000" font-family="sans-serif" font-size="11" lengthAdjust="spacing" textLength="59" x="724.5" y="1553.4189">parse(User)</text><ellipse cx="715.5" cy="1562.8359" fill="#84BE84" rx="3" ry="3" style="stroke:#038048;stroke-width:1.0;"/><text fill="#000000" font-family="sans-serif" font-size="11" lengthAdjust="spacing" textLength="77" x="724.5" y="1567.2549">parseAll(Users)</text><!--MD5=[ac6b9e1dc940731e74a501b2d965abd0]
class Desktop.factories.GamesFactory--><rect codeLine="86" fill="#FEFECE" filter="url(#f1pnh5qeeirzkz)" height="75.6719" id="Desktop.factories.GamesFactory" style="stroke:#A80036;stroke-width:1.5;" width="112" x="379" y="1634"/><ellipse cx="394" cy="1650" fill="#ADD1B2" rx="11" ry="11" style="stroke:#A80036;stroke-width:1.0;"/><path d="M396.7656,1645.875 Q396.9219,1645.6563 397.1094,1645.5469 Q397.2969,1645.4375 397.5156,1645.4375 Q397.8906,1645.4375 398.125,1645.7031 Q398.3594,1645.9531 398.3594,1646.5625 L398.3594,1648.0156 Q398.3594,1648.625 398.125,1648.8906 Q397.8906,1649.1563 397.5156,1649.1563 Q397.1719,1649.1563 396.9688,1648.9531 Q396.7656,1648.7656 396.6563,1648.25 Q396.6094,1647.8906 396.4219,1647.7031 Q396.0938,1647.3281 395.4844,1647.1094 Q394.875,1646.8906 394.25,1646.8906 Q393.4844,1646.8906 392.8438,1647.2188 Q392.2188,1647.5469 391.7188,1648.2969 Q391.2344,1649.0469 391.2344,1650.0781 L391.2344,1651.1719 Q391.2344,1652.4063 392.125,1653.2344 Q393.0156,1654.0469 394.6094,1654.0469 Q395.5469,1654.0469 396.2031,1653.7969 Q396.5938,1653.6406 397.0156,1653.2031 Q397.2813,1652.9375 397.4219,1652.8594 Q397.5781,1652.7813 397.7813,1652.7813 Q398.1094,1652.7813 398.3594,1653.0469 Q398.625,1653.2969 398.625,1653.6406 Q398.625,1653.9844 398.2813,1654.3906 Q397.7813,1654.9688 396.9844,1655.2969 Q395.9063,1655.75 394.6094,1655.75 Q393.0938,1655.75 391.8906,1655.125 Q390.9063,1654.625 390.2188,1653.5625 Q389.5313,1652.4844 389.5313,1651.2031 L389.5313,1650.0469 Q389.5313,1648.7188 390.1406,1647.5781 Q390.7656,1646.4219 391.8594,1645.8125 Q392.9531,1645.1875 394.1875,1645.1875 Q394.9219,1645.1875 395.5625,1645.3594 Q396.2188,1645.5156 396.7656,1645.875 Z " fill="#000000"/><text fill="#000000" font-family="sans-serif" font-size="12" lengthAdjust="spacing" textLength="80" x="408" y="1654.9102">GamesFactory</text><line style="stroke:#A80036;stroke-width:1.5;" x1="380" x2="490" y1="1666" y2="1666"/><line style="stroke:#A80036;stroke-width:1.5;" x1="380" x2="490" y1="1674" y2="1674"/><ellipse cx="390" cy="1685" fill="#84BE84" rx="3" ry="3" style="stroke:#038048;stroke-width:1.0;"/><text fill="#000000" font-family="sans-serif" font-size="11" lengthAdjust="spacing" textLength="64" x="399" y="1689.4189">parse(Game)</text><ellipse cx="390" cy="1698.8359" fill="#84BE84" rx="3" ry="3" style="stroke:#038048;stroke-width:1.0;"/><text fill="#000000" font-family="sans-serif" font-size="11" lengthAdjust="spacing" textLength="82" x="399" y="1703.2549">parseAll(Games)</text><!--MD5=[ab5f4c01ea64e11b6d26da652f2f2021]
class Desktop.factories.CategoriesFactory--><rect codeLine="91" fill="#FEFECE" filter="url(#f1pnh5qeeirzkz)" height="75.6719" id="Desktop.factories.CategoriesFactory" style="stroke:#A80036;stroke-width:1.5;" width="132" x="369" y="1498"/><ellipse cx="384" cy="1514" fill="#ADD1B2" rx="11" ry="11" style="stroke:#A80036;stroke-width:1.0;"/><path d="M386.7656,1509.875 Q386.9219,1509.6563 387.1094,1509.5469 Q387.2969,1509.4375 387.5156,1509.4375 Q387.8906,1509.4375 388.125,1509.7031 Q388.3594,1509.9531 388.3594,1510.5625 L388.3594,1512.0156 Q388.3594,1512.625 388.125,1512.8906 Q387.8906,1513.1563 387.5156,1513.1563 Q387.1719,1513.1563 386.9688,1512.9531 Q386.7656,1512.7656 386.6563,1512.25 Q386.6094,1511.8906 386.4219,1511.7031 Q386.0938,1511.3281 385.4844,1511.1094 Q384.875,1510.8906 384.25,1510.8906 Q383.4844,1510.8906 382.8438,1511.2188 Q382.2188,1511.5469 381.7188,1512.2969 Q381.2344,1513.0469 381.2344,1514.0781 L381.2344,1515.1719 Q381.2344,1516.4063 382.125,1517.2344 Q383.0156,1518.0469 384.6094,1518.0469 Q385.5469,1518.0469 386.2031,1517.7969 Q386.5938,1517.6406 387.0156,1517.2031 Q387.2813,1516.9375 387.4219,1516.8594 Q387.5781,1516.7813 387.7813,1516.7813 Q388.1094,1516.7813 388.3594,1517.0469 Q388.625,1517.2969 388.625,1517.6406 Q388.625,1517.9844 388.2813,1518.3906 Q387.7813,1518.9688 386.9844,1519.2969 Q385.9063,1519.75 384.6094,1519.75 Q383.0938,1519.75 381.8906,1519.125 Q380.9063,1518.625 380.2188,1517.5625 Q379.5313,1516.4844 379.5313,1515.2031 L379.5313,1514.0469 Q379.5313,1512.7188 380.1406,1511.5781 Q380.7656,1510.4219 381.8594,1509.8125 Q382.9531,1509.1875 384.1875,1509.1875 Q384.9219,1509.1875 385.5625,1509.3594 Q386.2188,1509.5156 386.7656,1509.875 Z " fill="#000000"/><text fill="#000000" font-family="sans-serif" font-size="12" lengthAdjust="spacing" textLength="100" x="398" y="1518.9102">CategoriesFactory</text><line style="stroke:#A80036;stroke-width:1.5;" x1="370" x2="500" y1="1530" y2="1530"/><line style="stroke:#A80036;stroke-width:1.5;" x1="370" x2="500" y1="1538" y2="1538"/><ellipse cx="380" cy="1549" fill="#84BE84" rx="3" ry="3" style="stroke:#038048;stroke-width:1.0;"/><text fill="#000000" font-family="sans-serif" font-size="11" lengthAdjust="spacing" textLength="80" x="389" y="1553.4189">parse(Category)</text><ellipse cx="380" cy="1562.8359" fill="#84BE84" rx="3" ry="3" style="stroke:#038048;stroke-width:1.0;"/><text fill="#000000" font-family="sans-serif" font-size="11" lengthAdjust="spacing" textLength="100" x="389" y="1567.2549">parseAll(Categories)</text><!--MD5=[d4c644922493839701aa4e5fbda6968f]
class Desktop.factories.MediasFactory--><rect codeLine="96" fill="#FEFECE" filter="url(#f1pnh5qeeirzkz)" height="75.6719" id="Desktop.factories.MediasFactory" style="stroke:#A80036;stroke-width:1.5;" width="111" x="56.5" y="1498"/><ellipse cx="71.5" cy="1514" fill="#ADD1B2" rx="11" ry="11" style="stroke:#A80036;stroke-width:1.0;"/><path d="M74.2656,1509.875 Q74.4219,1509.6563 74.6094,1509.5469 Q74.7969,1509.4375 75.0156,1509.4375 Q75.3906,1509.4375 75.625,1509.7031 Q75.8594,1509.9531 75.8594,1510.5625 L75.8594,1512.0156 Q75.8594,1512.625 75.625,1512.8906 Q75.3906,1513.1563 75.0156,1513.1563 Q74.6719,1513.1563 74.4688,1512.9531 Q74.2656,1512.7656 74.1563,1512.25 Q74.1094,1511.8906 73.9219,1511.7031 Q73.5938,1511.3281 72.9844,1511.1094 Q72.375,1510.8906 71.75,1510.8906 Q70.9844,1510.8906 70.3438,1511.2188 Q69.7188,1511.5469 69.2188,1512.2969 Q68.7344,1513.0469 68.7344,1514.0781 L68.7344,1515.1719 Q68.7344,1516.4063 69.625,1517.2344 Q70.5156,1518.0469 72.1094,1518.0469 Q73.0469,1518.0469 73.7031,1517.7969 Q74.0938,1517.6406 74.5156,1517.2031 Q74.7813,1516.9375 74.9219,1516.8594 Q75.0781,1516.7813 75.2813,1516.7813 Q75.6094,1516.7813 75.8594,1517.0469 Q76.125,1517.2969 76.125,1517.6406 Q76.125,1517.9844 75.7813,1518.3906 Q75.2813,1518.9688 74.4844,1519.2969 Q73.4063,1519.75 72.1094,1519.75 Q70.5938,1519.75 69.3906,1519.125 Q68.4063,1518.625 67.7188,1517.5625 Q67.0313,1516.4844 67.0313,1515.2031 L67.0313,1514.0469 Q67.0313,1512.7188 67.6406,1511.5781 Q68.2656,1510.4219 69.3594,1509.8125 Q70.4531,1509.1875 71.6875,1509.1875 Q72.4219,1509.1875 73.0625,1509.3594 Q73.7188,1509.5156 74.2656,1509.875 Z " fill="#000000"/><text fill="#000000" font-family="sans-serif" font-size="12" lengthAdjust="spacing" textLength="79" x="85.5" y="1518.9102">MediasFactory</text><line style="stroke:#A80036;stroke-width:1.5;" x1="57.5" x2="166.5" y1="1530" y2="1530"/><line style="stroke:#A80036;stroke-width:1.5;" x1="57.5" x2="166.5" y1="1538" y2="1538"/><ellipse cx="67.5" cy="1549" fill="#84BE84" rx="3" ry="3" style="stroke:#038048;stroke-width:1.0;"/><text fill="#000000" font-family="sans-serif" font-size="11" lengthAdjust="spacing" textLength="64" x="76.5" y="1553.4189">parse(Media)</text><ellipse cx="67.5" cy="1562.8359" fill="#84BE84" rx="3" ry="3" style="stroke:#038048;stroke-width:1.0;"/><text fill="#000000" font-family="sans-serif" font-size="11" lengthAdjust="spacing" textLength="82" x="76.5" y="1567.2549">parseAll(Medias)</text><!--MD5=[f8c1872ee40616e7ff3427f4cf79439d]
class Desktop.factories.CommentsFactory--><rect codeLine="101" fill="#FEFECE" filter="url(#f1pnh5qeeirzkz)" height="75.6719" id="Desktop.factories.CommentsFactory" style="stroke:#A80036;stroke-width:1.5;" width="133" x="536.5" y="1498"/><ellipse cx="551.5" cy="1514" fill="#ADD1B2" rx="11" ry="11" style="stroke:#A80036;stroke-width:1.0;"/><path d="M554.2656,1509.875 Q554.4219,1509.6563 554.6094,1509.5469 Q554.7969,1509.4375 555.0156,1509.4375 Q555.3906,1509.4375 555.625,1509.7031 Q555.8594,1509.9531 555.8594,1510.5625 L555.8594,1512.0156 Q555.8594,1512.625 555.625,1512.8906 Q555.3906,1513.1563 555.0156,1513.1563 Q554.6719,1513.1563 554.4688,1512.9531 Q554.2656,1512.7656 554.1563,1512.25 Q554.1094,1511.8906 553.9219,1511.7031 Q553.5938,1511.3281 552.9844,1511.1094 Q552.375,1510.8906 551.75,1510.8906 Q550.9844,1510.8906 550.3438,1511.2188 Q549.7188,1511.5469 549.2188,1512.2969 Q548.7344,1513.0469 548.7344,1514.0781 L548.7344,1515.1719 Q548.7344,1516.4063 549.625,1517.2344 Q550.5156,1518.0469 552.1094,1518.0469 Q553.0469,1518.0469 553.7031,1517.7969 Q554.0938,1517.6406 554.5156,1517.2031 Q554.7813,1516.9375 554.9219,1516.8594 Q555.0781,1516.7813 555.2813,1516.7813 Q555.6094,1516.7813 555.8594,1517.0469 Q556.125,1517.2969 556.125,1517.6406 Q556.125,1517.9844 555.7813,1518.3906 Q555.2813,1518.9688 554.4844,1519.2969 Q553.4063,1519.75 552.1094,1519.75 Q550.5938,1519.75 549.3906,1519.125 Q548.4063,1518.625 547.7188,1517.5625 Q547.0313,1516.4844 547.0313,1515.2031 L547.0313,1514.0469 Q547.0313,1512.7188 547.6406,1511.5781 Q548.2656,1510.4219 549.3594,1509.8125 Q550.4531,1509.1875 551.6875,1509.1875 Q552.4219,1509.1875 553.0625,1509.3594 Q553.7188,1509.5156 554.2656,1509.875 Z " fill="#000000"/><text fill="#000000" font-family="sans-serif" font-size="12" lengthAdjust="spacing" textLength="101" x="565.5" y="1518.9102">CommentsFactory</text><line style="stroke:#A80036;stroke-width:1.5;" x1="537.5" x2="668.5" y1="1530" y2="1530"/><line style="stroke:#A80036;stroke-width:1.5;" x1="537.5" x2="668.5" y1="1538" y2="1538"/><ellipse cx="547.5" cy="1549" fill="#84BE84" rx="3" ry="3" style="stroke:#038048;stroke-width:1.0;"/><text fill="#000000" font-family="sans-serif" font-size="11" lengthAdjust="spacing" textLength="80" x="556.5" y="1553.4189">parse(Comment)</text><ellipse cx="547.5" cy="1562.8359" fill="#84BE84" rx="3" ry="3" style="stroke:#038048;stroke-width:1.0;"/><text fill="#000000" font-family="sans-serif" font-size="11" lengthAdjust="spacing" textLength="98" x="556.5" y="1567.2549">parseAll(Comments)</text><!--MD5=[a5bdf3f6febe237110ef5149a6504196]
class Desktop.factories.PlataformsFactory--><rect codeLine="106" fill="#FEFECE" filter="url(#f1pnh5qeeirzkz)" height="75.6719" id="Desktop.factories.PlataformsFactory" style="stroke:#A80036;stroke-width:1.5;" width="131" x="202.5" y="1498"/><ellipse cx="217.5" cy="1514" fill="#ADD1B2" rx="11" ry="11" style="stroke:#A80036;stroke-width:1.0;"/><path d="M220.2656,1509.875 Q220.4219,1509.6563 220.6094,1509.5469 Q220.7969,1509.4375 221.0156,1509.4375 Q221.3906,1509.4375 221.625,1509.7031 Q221.8594,1509.9531 221.8594,1510.5625 L221.8594,1512.0156 Q221.8594,1512.625 221.625,1512.8906 Q221.3906,1513.1563 221.0156,1513.1563 Q220.6719,1513.1563 220.4688,1512.9531 Q220.2656,1512.7656 220.1563,1512.25 Q220.1094,1511.8906 219.9219,1511.7031 Q219.5938,1511.3281 218.9844,1511.1094 Q218.375,1510.8906 217.75,1510.8906 Q216.9844,1510.8906 216.3438,1511.2188 Q215.7188,1511.5469 215.2188,1512.2969 Q214.7344,1513.0469 214.7344,1514.0781 L214.7344,1515.1719 Q214.7344,1516.4063 215.625,1517.2344 Q216.5156,1518.0469 218.1094,1518.0469 Q219.0469,1518.0469 219.7031,1517.7969 Q220.0938,1517.6406 220.5156,1517.2031 Q220.7813,1516.9375 220.9219,1516.8594 Q221.0781,1516.7813 221.2813,1516.7813 Q221.6094,1516.7813 221.8594,1517.0469 Q222.125,1517.2969 222.125,1517.6406 Q222.125,1517.9844 221.7813,1518.3906 Q221.2813,1518.9688 220.4844,1519.2969 Q219.4063,1519.75 218.1094,1519.75 Q216.5938,1519.75 215.3906,1519.125 Q214.4063,1518.625 213.7188,1517.5625 Q213.0313,1516.4844 213.0313,1515.2031 L213.0313,1514.0469 Q213.0313,1512.7188 213.6406,1511.5781 Q214.2656,1510.4219 215.3594,1509.8125 Q216.4531,1509.1875 217.6875,1509.1875 Q218.4219,1509.1875 219.0625,1509.3594 Q219.7188,1509.5156 220.2656,1509.875 Z " fill="#000000"/><text fill="#000000" font-family="sans-serif" font-size="12" lengthAdjust="spacing" textLength="99" x="231.5" y="1518.9102">PlataformsFactory</text><line style="stroke:#A80036;stroke-width:1.5;" x1="203.5" x2="332.5" y1="1530" y2="1530"/><line style="stroke:#A80036;stroke-width:1.5;" x1="203.5" x2="332.5" y1="1538" y2="1538"/><ellipse cx="213.5" cy="1549" fill="#84BE84" rx="3" ry="3" style="stroke:#038048;stroke-width:1.0;"/><text fill="#000000" font-family="sans-serif" font-size="11" lengthAdjust="spacing" textLength="81" x="222.5" y="1553.4189">parse(Plataform)</text><ellipse cx="213.5" cy="1562.8359" fill="#84BE84" rx="3" ry="3" style="stroke:#038048;stroke-width:1.0;"/><text fill="#000000" font-family="sans-serif" font-size="11" lengthAdjust="spacing" textLength="99" x="222.5" y="1567.2549">parseAll(Plataforms)</text><!--MD5=[1a07110d53fd599024b3185980f56d8f]
class Desktop.domain.SessionManager--><rect codeLine="117" fill="#FEFECE" filter="url(#f1pnh5qeeirzkz)" height="117.1797" id="Desktop.domain.SessionManager" style="stroke:#A80036;stroke-width:1.5;" width="126" x="490" y="660"/><ellipse cx="505" cy="676" fill="#ADD1B2" rx="11" ry="11" style="stroke:#A80036;stroke-width:1.0;"/><path d="M507.7656,671.875 Q507.9219,671.6563 508.1094,671.5469 Q508.2969,671.4375 508.5156,671.4375 Q508.8906,671.4375 509.125,671.7031 Q509.3594,671.9531 509.3594,672.5625 L509.3594,674.0156 Q509.3594,674.625 509.125,674.8906 Q508.8906,675.1563 508.5156,675.1563 Q508.1719,675.1563 507.9688,674.9531 Q507.7656,674.7656 507.6563,674.25 Q507.6094,673.8906 507.4219,673.7031 Q507.0938,673.3281 506.4844,673.1094 Q505.875,672.8906 505.25,672.8906 Q504.4844,672.8906 503.8438,673.2188 Q503.2188,673.5469 502.7188,674.2969 Q502.2344,675.0469 502.2344,676.0781 L502.2344,677.1719 Q502.2344,678.4063 503.125,679.2344 Q504.0156,680.0469 505.6094,680.0469 Q506.5469,680.0469 507.2031,679.7969 Q507.5938,679.6406 508.0156,679.2031 Q508.2813,678.9375 508.4219,678.8594 Q508.5781,678.7813 508.7813,678.7813 Q509.1094,678.7813 509.3594,679.0469 Q509.625,679.2969 509.625,679.6406 Q509.625,679.9844 509.2813,680.3906 Q508.7813,680.9688 507.9844,681.2969 Q506.9063,681.75 505.6094,681.75 Q504.0938,681.75 502.8906,681.125 Q501.9063,680.625 501.2188,679.5625 Q500.5313,678.4844 500.5313,677.2031 L500.5313,676.0469 Q500.5313,674.7188 501.1406,673.5781 Q501.7656,672.4219 502.8594,671.8125 Q503.9531,671.1875 505.1875,671.1875 Q505.9219,671.1875 506.5625,671.3594 Q507.2188,671.5156 507.7656,671.875 Z " fill="#000000"/><text fill="#000000" font-family="sans-serif" font-size="12" lengthAdjust="spacing" textLength="94" x="519" y="680.9102">SessionManager</text><line style="stroke:#A80036;stroke-width:1.5;" x1="491" x2="615" y1="692" y2="692"/><line style="stroke:#A80036;stroke-width:1.5;" x1="491" x2="615" y1="700" y2="700"/><ellipse cx="501" cy="711" fill="#84BE84" rx="3" ry="3" style="stroke:#038048;stroke-width:1.0;"/><text fill="#000000" font-family="sans-serif" font-size="11" lengthAdjust="spacing" text-decoration="underline" textLength="64" x="510" y="715.4189">getInstance()</text><ellipse cx="501" cy="724.8359" fill="#84BE84" rx="3" ry="3" style="stroke:#038048;stroke-width:1.0;"/><text fill="#000000" font-family="sans-serif" font-size="11" lengthAdjust="spacing" textLength="61" x="510" y="729.2549">open(Users)</text><ellipse cx="501" cy="738.6719" fill="#84BE84" rx="3" ry="3" style="stroke:#038048;stroke-width:1.0;"/><text fill="#000000" font-family="sans-serif" font-size="11" lengthAdjust="spacing" textLength="70" x="510" y="743.0908">update(Users)</text><ellipse cx="501" cy="752.5078" fill="#84BE84" rx="3" ry="3" style="stroke:#038048;stroke-width:1.0;"/><text fill="#000000" font-family="sans-serif" font-size="11" lengthAdjust="spacing" textLength="52" x="510" y="756.9268">get(Users)</text><ellipse cx="501" cy="766.3438" fill="#84BE84" rx="3" ry="3" style="stroke:#038048;stroke-width:1.0;"/><text fill="#000000" font-family="sans-serif" font-size="11" lengthAdjust="spacing" textLength="63" x="510" y="770.7627">close(Users)</text><!--MD5=[60eb9027f33c471e752c125e06a3c35a]
class Desktop.services.AjaxRequestData--><rect codeLine="126" fill="#FEFECE" filter="url(#f1pnh5qeeirzkz)" height="117.1797" id="Desktop.services.AjaxRequestData" style="stroke:#A80036;stroke-width:1.5;" width="166" x="657" y="151"/><ellipse cx="689.55" cy="167" fill="#ADD1B2" rx="11" ry="11" style="stroke:#A80036;stroke-width:1.0;"/><path d="M692.3156,162.875 Q692.4719,162.6563 692.6594,162.5469 Q692.8469,162.4375 693.0656,162.4375 Q693.4406,162.4375 693.675,162.7031 Q693.9094,162.9531 693.9094,163.5625 L693.9094,165.0156 Q693.9094,165.625 693.675,165.8906 Q693.4406,166.1563 693.0656,166.1563 Q692.7219,166.1563 692.5188,165.9531 Q692.3156,165.7656 692.2063,165.25 Q692.1594,164.8906 691.9719,164.7031 Q691.6438,164.3281 691.0344,164.1094 Q690.425,163.8906 689.8,163.8906 Q689.0344,163.8906 688.3938,164.2188 Q687.7688,164.5469 687.2688,165.2969 Q686.7844,166.0469 686.7844,167.0781 L686.7844,168.1719 Q686.7844,169.4063 687.675,170.2344 Q688.5656,171.0469 690.1594,171.0469 Q691.0969,171.0469 691.7531,170.7969 Q692.1438,170.6406 692.5656,170.2031 Q692.8313,169.9375 692.9719,169.8594 Q693.1281,169.7813 693.3313,169.7813 Q693.6594,169.7813 693.9094,170.0469 Q694.175,170.2969 694.175,170.6406 Q694.175,170.9844 693.8313,171.3906 Q693.3313,171.9688 692.5344,172.2969 Q691.4563,172.75 690.1594,172.75 Q688.6438,172.75 687.4406,172.125 Q686.4563,171.625 685.7688,170.5625 Q685.0813,169.4844 685.0813,168.2031 L685.0813,167.0469 Q685.0813,165.7188 685.6906,164.5781 Q686.3156,163.4219 687.4094,162.8125 Q688.5031,162.1875 689.7375,162.1875 Q690.4719,162.1875 691.1125,162.3594 Q691.7688,162.5156 692.3156,162.875 Z " fill="#000000"/><text fill="#000000" font-family="sans-serif" font-size="12" lengthAdjust="spacing" textLength="95" x="707.45" y="171.9102">AjaxRequestData</text><line style="stroke:#A80036;stroke-width:1.5;" x1="658" x2="822" y1="183" y2="183"/><rect fill="none" height="6" style="stroke:#C82930;stroke-width:1.0;" width="6" x="665" y="191"/><text fill="#000000" font-family="sans-serif" font-size="11" lengthAdjust="spacing" textLength="46" x="677" y="198.4189">url: String</text><rect fill="none" height="6" style="stroke:#C82930;stroke-width:1.0;" width="6" x="665" y="204.8359"/><text fill="#000000" font-family="sans-serif" font-size="11" lengthAdjust="spacing" textLength="140" x="677" y="212.2549">headers: Map&lt;String, String&gt;</text><rect fill="none" height="6" style="stroke:#C82930;stroke-width:1.0;" width="6" x="665" y="218.6719"/><text fill="#000000" font-family="sans-serif" font-size="11" lengthAdjust="spacing" textLength="136" x="677" y="226.0908">params: Map&lt;String, String&gt;</text><line style="stroke:#A80036;stroke-width:1.5;" x1="658" x2="822" y1="232.5078" y2="232.5078"/><ellipse cx="668" cy="243.5078" fill="#84BE84" rx="3" ry="3" style="stroke:#038048;stroke-width:1.0;"/><text fill="#000000" font-family="sans-serif" font-size="11" lengthAdjust="spacing" textLength="42" x="677" y="247.9268">getters()</text><ellipse cx="668" cy="257.3438" fill="#84BE84" rx="3" ry="3" style="stroke:#038048;stroke-width:1.0;"/><text fill="#000000" font-family="sans-serif" font-size="11" lengthAdjust="spacing" textLength="42" x="677" y="261.7627">setters()</text><!--MD5=[88e013d28f17ced84392cf1d8bbde462]
class Desktop.services.AjaxService--><rect codeLine="133" fill="#FEFECE" filter="url(#f1pnh5qeeirzkz)" height="89.5078" id="Desktop.services.AjaxService" style="stroke:#A80036;stroke-width:1.5;" width="139" x="482.5" y="164.5"/><ellipse cx="517.75" cy="180.5" fill="#ADD1B2" rx="11" ry="11" style="stroke:#A80036;stroke-width:1.0;"/><path d="M520.5156,176.375 Q520.6719,176.1563 520.8594,176.0469 Q521.0469,175.9375 521.2656,175.9375 Q521.6406,175.9375 521.875,176.2031 Q522.1094,176.4531 522.1094,177.0625 L522.1094,178.5156 Q522.1094,179.125 521.875,179.3906 Q521.6406,179.6563 521.2656,179.6563 Q520.9219,179.6563 520.7188,179.4531 Q520.5156,179.2656 520.4063,178.75 Q520.3594,178.3906 520.1719,178.2031 Q519.8438,177.8281 519.2344,177.6094 Q518.625,177.3906 518,177.3906 Q517.2344,177.3906 516.5938,177.7188 Q515.9688,178.0469 515.4688,178.7969 Q514.9844,179.5469 514.9844,180.5781 L514.9844,181.6719 Q514.9844,182.9063 515.875,183.7344 Q516.7656,184.5469 518.3594,184.5469 Q519.2969,184.5469 519.9531,184.2969 Q520.3438,184.1406 520.7656,183.7031 Q521.0313,183.4375 521.1719,183.3594 Q521.3281,183.2813 521.5313,183.2813 Q521.8594,183.2813 522.1094,183.5469 Q522.375,183.7969 522.375,184.1406 Q522.375,184.4844 522.0313,184.8906 Q521.5313,185.4688 520.7344,185.7969 Q519.6563,186.25 518.3594,186.25 Q516.8438,186.25 515.6406,185.625 Q514.6563,185.125 513.9688,184.0625 Q513.2813,182.9844 513.2813,181.7031 L513.2813,180.5469 Q513.2813,179.2188 513.8906,178.0781 Q514.5156,176.9219 515.6094,176.3125 Q516.7031,175.6875 517.9375,175.6875 Q518.6719,175.6875 519.3125,175.8594 Q519.9688,176.0156 520.5156,176.375 Z " fill="#000000"/><text fill="#000000" font-family="sans-serif" font-size="12" lengthAdjust="spacing" textLength="62" x="536.25" y="185.4102">AjaxService</text><line style="stroke:#A80036;stroke-width:1.5;" x1="483.5" x2="620.5" y1="196.5" y2="196.5"/><line style="stroke:#A80036;stroke-width:1.5;" x1="483.5" x2="620.5" y1="204.5" y2="204.5"/><ellipse cx="493.5" cy="215.5" fill="#84BE84" rx="3" ry="3" style="stroke:#038048;stroke-width:1.0;"/><text fill="#000000" font-family="sans-serif" font-size="11" lengthAdjust="spacing" text-decoration="underline" textLength="64" x="502.5" y="219.9189">getInstance()</text><ellipse cx="493.5" cy="229.3359" fill="#84BE84" rx="3" ry="3" style="stroke:#038048;stroke-width:1.0;"/><text fill="#000000" font-family="sans-serif" font-size="11" lengthAdjust="spacing" textLength="113" x="502.5" y="233.7549">post(AjaxRequestData)</text><ellipse cx="493.5" cy="243.1719" fill="#84BE84" rx="3" ry="3" style="stroke:#038048;stroke-width:1.0;"/><text fill="#000000" font-family="sans-serif" font-size="11" lengthAdjust="spacing" textLength="107" x="502.5" y="247.5908">get(AjaxRequestData)</text><!--MD5=[6273c7f1a2ba4dd02f57cb2f114a97fa]
class Desktop.services.DataProvider--><rect codeLine="138" fill="#FEFECE" filter="url(#f1pnh5qeeirzkz)" height="89.5078" id="Desktop.services.DataProvider" style="stroke:#A80036;stroke-width:1.5;" width="103" x="492.5" y="328"/><ellipse cx="507.5" cy="344" fill="#ADD1B2" rx="11" ry="11" style="stroke:#A80036;stroke-width:1.0;"/><path d="M510.2656,339.875 Q510.4219,339.6563 510.6094,339.5469 Q510.7969,339.4375 511.0156,339.4375 Q511.3906,339.4375 511.625,339.7031 Q511.8594,339.9531 511.8594,340.5625 L511.8594,342.0156 Q511.8594,342.625 511.625,342.8906 Q511.3906,343.1563 511.0156,343.1563 Q510.6719,343.1563 510.4688,342.9531 Q510.2656,342.7656 510.1563,342.25 Q510.1094,341.8906 509.9219,341.7031 Q509.5938,341.3281 508.9844,341.1094 Q508.375,340.8906 507.75,340.8906 Q506.9844,340.8906 506.3438,341.2188 Q505.7188,341.5469 505.2188,342.2969 Q504.7344,343.0469 504.7344,344.0781 L504.7344,345.1719 Q504.7344,346.4063 505.625,347.2344 Q506.5156,348.0469 508.1094,348.0469 Q509.0469,348.0469 509.7031,347.7969 Q510.0938,347.6406 510.5156,347.2031 Q510.7813,346.9375 510.9219,346.8594 Q511.0781,346.7813 511.2813,346.7813 Q511.6094,346.7813 511.8594,347.0469 Q512.125,347.2969 512.125,347.6406 Q512.125,347.9844 511.7813,348.3906 Q511.2813,348.9688 510.4844,349.2969 Q509.4063,349.75 508.1094,349.75 Q506.5938,349.75 505.3906,349.125 Q504.4063,348.625 503.7188,347.5625 Q503.0313,346.4844 503.0313,345.2031 L503.0313,344.0469 Q503.0313,342.7188 503.6406,341.5781 Q504.2656,340.4219 505.3594,339.8125 Q506.4531,339.1875 507.6875,339.1875 Q508.4219,339.1875 509.0625,339.3594 Q509.7188,339.5156 510.2656,339.875 Z " fill="#000000"/><text fill="#000000" font-family="sans-serif" font-size="12" lengthAdjust="spacing" textLength="71" x="521.5" y="348.9102">DataProvider</text><line style="stroke:#A80036;stroke-width:1.5;" x1="493.5" x2="594.5" y1="360" y2="360"/><line style="stroke:#A80036;stroke-width:1.5;" x1="493.5" x2="594.5" y1="368" y2="368"/><ellipse cx="503.5" cy="379" fill="#84BE84" rx="3" ry="3" style="stroke:#038048;stroke-width:1.0;"/><text fill="#000000" font-family="sans-serif" font-size="11" lengthAdjust="spacing" text-decoration="underline" textLength="64" x="512.5" y="383.4189">getInstance()</text><ellipse cx="503.5" cy="392.8359" fill="#84BE84" rx="3" ry="3" style="stroke:#038048;stroke-width:1.0;"/><text fill="#000000" font-family="sans-serif" font-size="11" lengthAdjust="spacing" textLength="61" x="512.5" y="397.2549">supply(data)</text><ellipse cx="503.5" cy="406.6719" fill="#84BE84" rx="3" ry="3" style="stroke:#038048;stroke-width:1.0;"/><text fill="#000000" font-family="sans-serif" font-size="11" lengthAdjust="spacing" textLength="44" x="512.5" y="411.0908">provide()</text><!--MD5=[af702c804ffe1384bd303b0a6d61292d]
class Desktop.services.AjaxObserver--><rect codeLine="143" fill="#FEFECE" filter="url(#f1pnh5qeeirzkz)" height="89.5078" id="Desktop.services.AjaxObserver" style="stroke:#A80036;stroke-width:1.5;" width="192" x="631" y="328"/><ellipse cx="686.75" cy="344" fill="#ADD1B2" rx="11" ry="11" style="stroke:#A80036;stroke-width:1.0;"/><path d="M689.5156,339.875 Q689.6719,339.6563 689.8594,339.5469 Q690.0469,339.4375 690.2656,339.4375 Q690.6406,339.4375 690.875,339.7031 Q691.1094,339.9531 691.1094,340.5625 L691.1094,342.0156 Q691.1094,342.625 690.875,342.8906 Q690.6406,343.1563 690.2656,343.1563 Q689.9219,343.1563 689.7188,342.9531 Q689.5156,342.7656 689.4063,342.25 Q689.3594,341.8906 689.1719,341.7031 Q688.8438,341.3281 688.2344,341.1094 Q687.625,340.8906 687,340.8906 Q686.2344,340.8906 685.5938,341.2188 Q684.9688,341.5469 684.4688,342.2969 Q683.9844,343.0469 683.9844,344.0781 L683.9844,345.1719 Q683.9844,346.4063 684.875,347.2344 Q685.7656,348.0469 687.3594,348.0469 Q688.2969,348.0469 688.9531,347.7969 Q689.3438,347.6406 689.7656,347.2031 Q690.0313,346.9375 690.1719,346.8594 Q690.3281,346.7813 690.5313,346.7813 Q690.8594,346.7813 691.1094,347.0469 Q691.375,347.2969 691.375,347.6406 Q691.375,347.9844 691.0313,348.3906 Q690.5313,348.9688 689.7344,349.2969 Q688.6563,349.75 687.3594,349.75 Q685.8438,349.75 684.6406,349.125 Q683.6563,348.625 682.9688,347.5625 Q682.2813,346.4844 682.2813,345.2031 L682.2813,344.0469 Q682.2813,342.7188 682.8906,341.5781 Q683.5156,340.4219 684.6094,339.8125 Q685.7031,339.1875 686.9375,339.1875 Q687.6719,339.1875 688.3125,339.3594 Q688.9688,339.5156 689.5156,339.875 Z " fill="#000000"/><text fill="#000000" font-family="sans-serif" font-size="12" lengthAdjust="spacing" textLength="72" x="707.25" y="348.9102">AjaxObserver</text><line style="stroke:#A80036;stroke-width:1.5;" x1="632" x2="822" y1="360" y2="360"/><line style="stroke:#A80036;stroke-width:1.5;" x1="632" x2="822" y1="368" y2="368"/><ellipse cx="642" cy="379" fill="#84BE84" rx="3" ry="3" style="stroke:#038048;stroke-width:1.0;"/><text fill="#000000" font-family="sans-serif" font-size="11" lengthAdjust="spacing" textLength="154" x="651" y="383.4189">subscribe(callback, event): void</text><ellipse cx="642" cy="392.8359" fill="#84BE84" rx="3" ry="3" style="stroke:#038048;stroke-width:1.0;"/><text fill="#000000" font-family="sans-serif" font-size="11" lengthAdjust="spacing" textLength="166" x="651" y="397.2549">unsubscribe(callback, event): void</text><ellipse cx="642" cy="406.6719" fill="#84BE84" rx="3" ry="3" style="stroke:#038048;stroke-width:1.0;"/><text fill="#000000" font-family="sans-serif" font-size="11" lengthAdjust="spacing" textLength="88" x="651" y="411.0908">notify(event): void</text><!--MD5=[7923f0ef83cfa7fc76aa895bd44f4146]
class Api--><rect codeLine="3" fill="#FEFECE" filter="url(#f1pnh5qeeirzkz)" height="48" id="Api" style="stroke:#A80036;stroke-width:1.5;" width="49" x="527.5" y="7"/><ellipse cx="542.5" cy="23" fill="#ADD1B2" rx="11" ry="11" style="stroke:#A80036;stroke-width:1.0;"/><path d="M545.2656,18.875 Q545.4219,18.6563 545.6094,18.5469 Q545.7969,18.4375 546.0156,18.4375 Q546.3906,18.4375 546.625,18.7031 Q546.8594,18.9531 546.8594,19.5625 L546.8594,21.0156 Q546.8594,21.625 546.625,21.8906 Q546.3906,22.1563 546.0156,22.1563 Q545.6719,22.1563 545.4688,21.9531 Q545.2656,21.7656 545.1563,21.25 Q545.1094,20.8906 544.9219,20.7031 Q544.5938,20.3281 543.9844,20.1094 Q543.375,19.8906 542.75,19.8906 Q541.9844,19.8906 541.3438,20.2188 Q540.7188,20.5469 540.2188,21.2969 Q539.7344,22.0469 539.7344,23.0781 L539.7344,24.1719 Q539.7344,25.4063 540.625,26.2344 Q541.5156,27.0469 543.1094,27.0469 Q544.0469,27.0469 544.7031,26.7969 Q545.0938,26.6406 545.5156,26.2031 Q545.7813,25.9375 545.9219,25.8594 Q546.0781,25.7813 546.2813,25.7813 Q546.6094,25.7813 546.8594,26.0469 Q547.125,26.2969 547.125,26.6406 Q547.125,26.9844 546.7813,27.3906 Q546.2813,27.9688 545.4844,28.2969 Q544.4063,28.75 543.1094,28.75 Q541.5938,28.75 540.3906,28.125 Q539.4063,27.625 538.7188,26.5625 Q538.0313,25.4844 538.0313,24.2031 L538.0313,23.0469 Q538.0313,21.7188 538.6406,20.5781 Q539.2656,19.4219 540.3594,18.8125 Q541.4531,18.1875 542.6875,18.1875 Q543.4219,18.1875 544.0625,18.3594 Q544.7188,18.5156 545.2656,18.875 Z " fill="#000000"/><text fill="#000000" font-family="sans-serif" font-size="12" lengthAdjust="spacing" textLength="17" x="556.5" y="27.9102">Api</text><line style="stroke:#A80036;stroke-width:1.5;" x1="528.5" x2="575.5" y1="39" y2="39"/><line style="stroke:#A80036;stroke-width:1.5;" x1="528.5" x2="575.5" y1="47" y2="47"/><!--MD5=[914071aef27ce1d205cff174ee14915e]
link Desktop.models.Games to Desktop.models.GameDataOnPlataform--><path codeLine="73" d="M331.6723,1037.3781 C331.6723,1037.3781 317.6877,1074.6519 317.6877,1074.6519 " fill="none" id="Desktop.models.Games-Desktop.models.GameDataOnPlataform" style="stroke:#A80036;stroke-width:1.0;"/><polygon fill="#FFFFFF" points="313.48,1085.89,319.3299,1081.6735,317.6877,1074.6519,311.8378,1078.8684,313.48,1085.89" style="stroke:#A80036;stroke-width:1.0;"/><polygon fill="#A80036" points="335.88,1026.14,330.0301,1030.3565,331.6723,1037.3781,337.5222,1033.1616,335.88,1026.14" style="stroke:#A80036;stroke-width:1.0;"/><!--MD5=[f02298bc6ff1c93c5f1b66644365114e]
link Desktop.models.GameDataOnPlataform to Desktop.models.Plataforms--><path codeLine="74" d="M280.2888,1257.0795 C280.2888,1257.0795 278.8475,1292.7199 278.8475,1292.7199 " fill="none" id="Desktop.models.GameDataOnPlataform-Desktop.models.Plataforms" style="stroke:#A80036;stroke-width:1.0;"/><polygon fill="#A80036" points="278.36,1304.71,282.6005,1298.8775,278.8475,1292.7199,274.6071,1298.5525,278.36,1304.71" style="stroke:#A80036;stroke-width:1.0;"/><polygon fill="#FFFFFF" points="280.79,1245.09,276.5429,1250.9177,280.2888,1257.0795,284.5359,1251.2518,280.79,1245.09" style="stroke:#A80036;stroke-width:1.0;"/><!--MD5=[c5a1331f0e5168db59a7b38ad2802012]
link Desktop.models.Games to Desktop.models.Categories--><path codeLine="75" d="M401.7766,1037.469 C401.7766,1037.469 424.4493,1102.6055 424.4493,1102.6055 " fill="none" id="Desktop.models.Games-Desktop.models.Categories" style="stroke:#A80036;stroke-width:1.0;"/><polygon fill="#FFFFFF" points="428.39,1113.94,430.1978,1106.9592,424.4493,1102.6055,422.6415,1109.5863,428.39,1113.94" style="stroke:#A80036;stroke-width:1.0;"/><polygon fill="#FFFFFF" points="397.82,1026.14,396.022,1033.1233,401.7766,1037.469,403.5746,1030.4856,397.82,1026.14" style="stroke:#A80036;stroke-width:1.0;"/><!--MD5=[3ac57280dff5f878e1f1c1b555737c77]
link Desktop.models.Games to Desktop.models.Comments--><path codeLine="76" d="M450.1,1024.12 C469.79,1044.32 490.7,1065.88 510,1086 C512.61,1088.72 515.27,1091.51 517.96,1094.32 " fill="none" id="Desktop.models.Games-to-Desktop.models.Comments" style="stroke:#A80036;stroke-width:1.0;"/><polygon fill="#FFFFFF" points="527.14,1103.97,525.9075,1096.865,518.875,1095.27,520.1075,1102.375,527.14,1103.97" style="stroke:#A80036;stroke-width:1.0;"/><!--MD5=[66796d49378a8f4216bcb8202fbfe640]
link Desktop.models.Users to Desktop.models.Comments--><path codeLine="77" d="M570.37,1019.16 C572.43,1041.08 574.66,1064.88 576.71,1086.75 " fill="none" id="Desktop.models.Users-to-Desktop.models.Comments" style="stroke:#A80036;stroke-width:1.0;"/><polygon fill="#FFFFFF" points="577.93,1099.72,581.359,1093.3763,576.8222,1087.7712,573.3932,1094.1149,577.93,1099.72" style="stroke:#A80036;stroke-width:1.0;"/><!--MD5=[aa1b1769a6e0920d8861fdeb720c483d]
link Desktop.models.Games to Desktop.models.Medias--><path codeLine="78" d="M285.79,1002.25 C253.81,1027.28 217.38,1057.08 186,1086 C181.97,1089.71 177.9,1093.6 173.84,1097.58 " fill="none" id="Desktop.models.Games-to-Desktop.models.Medias" style="stroke:#A80036;stroke-width:1.0;"/><polygon fill="#FFFFFF" points="164.44,1106.97,171.5111,1105.5558,172.9253,1098.4847,165.8542,1099.8989,164.44,1106.97" style="stroke:#A80036;stroke-width:1.0;"/><!--MD5=[8613fcca2e6a771454ac299f392f6256]
link Desktop.factories.UsersFactory to Desktop.models.Users--><path codeLine="85" d="M753.39,1497.85 C744.77,1419.19 718.98,1231.16 658,1086 C649.09,1064.8 637.07,1043.32 624.57,1023.61 " fill="none" id="Desktop.factories.UsersFactory-to-Desktop.models.Users" style="stroke:#A80036;stroke-width:1.0;"/><polygon fill="#A80036" points="621.72,1019.17,623.1986,1028.9072,624.4136,1023.3824,629.9385,1024.5974,621.72,1019.17" style="stroke:#A80036;stroke-width:1.0;"/><!--MD5=[01d6779d8121abd7b09b739150bb779e]
reverse link Desktop.models.Games to Desktop.factories.GamesFactory--><path codeLine="90" d="M454.6,1017.91 C459.03,1020.79 463.51,1023.51 468,1026 C545.43,1068.97 591.6,1027.4 658,1086 C792.94,1205.09 788.56,1278.18 827,1454 C838.39,1506.1 859.87,1532 827,1574 C785.89,1626.52 589.39,1654.55 491.16,1665.48 " fill="none" id="Desktop.models.Games-backto-Desktop.factories.GamesFactory" style="stroke:#A80036;stroke-width:1.0;"/><polygon fill="#A80036" points="450.19,1014.98,455.4597,1023.3005,454.3503,1017.7535,459.8973,1016.6441,450.19,1014.98" style="stroke:#A80036;stroke-width:1.0;"/><!--MD5=[3da5d3b9c2ea247edafa844ff0f92c3f]
reverse link Desktop.models.Categories to Desktop.factories.CategoriesFactory--><path codeLine="95" d="M444.32,1222.74 C442.05,1298.95 438.05,1432.93 436.11,1497.77 " fill="none" id="Desktop.models.Categories-backto-Desktop.factories.CategoriesFactory" style="stroke:#A80036;stroke-width:1.0;"/><polygon fill="#A80036" points="444.48,1217.35,440.2246,1226.2321,444.3372,1222.348,448.2213,1226.4606,444.48,1217.35" style="stroke:#A80036;stroke-width:1.0;"/><!--MD5=[78e7af1f3a6beb654d21492e18c6b8be]
reverse link Desktop.models.Medias to Desktop.factories.MediasFactory--><path codeLine="100" d="M112,1229.09 C112,1306.28 112,1434.98 112,1497.98 " fill="none" id="Desktop.models.Medias-backto-Desktop.factories.MediasFactory" style="stroke:#A80036;stroke-width:1.0;"/><polygon fill="#A80036" points="112,1224.08,108,1233.08,112,1229.08,116,1233.08,112,1224.08" style="stroke:#A80036;stroke-width:1.0;"/><!--MD5=[b65c7684e2fdc1718e2867d9faad1e42]
reverse link Desktop.models.Comments to Desktop.factories.CommentsFactory--><path codeLine="105" d="M587.59,1236.17 C591.6,1313.94 597.94,1436.89 601.09,1498 " fill="none" id="Desktop.models.Comments-backto-Desktop.factories.CommentsFactory" style="stroke:#A80036;stroke-width:1.0;"/><polygon fill="#A80036" points="587.33,1231.11,583.7975,1240.3036,587.5868,1236.1034,591.787,1239.8927,587.33,1231.11" style="stroke:#A80036;stroke-width:1.0;"/><!--MD5=[ebf170a76ed7d47ea315a9ab1e8a5b74]
reverse link Desktop.models.Plataforms to Desktop.factories.PlataformsFactory--><path codeLine="110" d="M273.06,1427.25 C271.94,1451.01 270.71,1477.28 269.74,1497.93 " fill="none" id="Desktop.models.Plataforms-backto-Desktop.factories.PlataformsFactory" style="stroke:#A80036;stroke-width:1.0;"/><polygon fill="#A80036" points="273.29,1422.22,268.8832,1431.0279,273.0617,1427.2148,276.8748,1431.3933,273.29,1422.22" style="stroke:#A80036;stroke-width:1.0;"/><!--MD5=[e848bf08c6ef341891b184f62841cb64]
reverse link Desktop.factories.CategoriesFactory to Desktop.factories.GamesFactory--><path codeLine="111" d="M435,1579.65 C435,1597.08 435,1617.06 435,1633.87 " fill="none" id="Desktop.factories.CategoriesFactory-backto-Desktop.factories.GamesFactory" style="stroke:#A80036;stroke-width:1.0;"/><polygon fill="#A80036" points="435,1574.33,431,1583.33,435,1579.33,439,1583.33,435,1574.33" style="stroke:#A80036;stroke-width:1.0;"/><!--MD5=[a1508e26bb07dca698b02e664d77b92f]
reverse link Desktop.factories.MediasFactory to Desktop.factories.GamesFactory--><path codeLine="112" d="M172.2,1568.1 C176.51,1570.14 180.81,1572.13 185,1574 C250.48,1603.21 327.64,1632.38 378.75,1650.99 " fill="none" id="Desktop.factories.MediasFactory-backto-Desktop.factories.GamesFactory" style="stroke:#A80036;stroke-width:1.0;"/><polygon fill="#A80036" points="167.53,1565.86,173.9167,1573.3574,172.0387,1568.0213,177.3748,1566.1434,167.53,1565.86" style="stroke:#A80036;stroke-width:1.0;"/><!--MD5=[1f2e52e977b6c8588fd21e6688cdcdb4]
reverse link Desktop.factories.CommentsFactory to Desktop.factories.GamesFactory--><path codeLine="113" d="M552.06,1577.63 C529.63,1595.52 503.45,1616.4 481.55,1633.87 " fill="none" id="Desktop.factories.CommentsFactory-backto-Desktop.factories.GamesFactory" style="stroke:#A80036;stroke-width:1.0;"/><polygon fill="#A80036" points="556.2,1574.33,546.6712,1576.8203,552.2929,1577.45,551.6631,1583.0717,556.2,1574.33" style="stroke:#A80036;stroke-width:1.0;"/><!--MD5=[ed723edd22f946623614f8f12e53bd07]
reverse link Desktop.factories.PlataformsFactory to Desktop.factories.GamesFactory--><path codeLine="114" d="M318.64,1577.63 C340.94,1595.52 366.96,1616.4 388.73,1633.87 " fill="none" id="Desktop.factories.PlataformsFactory-backto-Desktop.factories.GamesFactory" style="stroke:#A80036;stroke-width:1.0;"/><polygon fill="#A80036" points="314.52,1574.33,319.0373,1583.0818,318.4202,1577.4587,324.0432,1576.8415,314.52,1574.33" style="stroke:#A80036;stroke-width:1.0;"/><!--MD5=[1d314e5964c82cad7ba79227a43d81c4]
link Desktop.services.AjaxService to Desktop.services.AjaxRequestData--><path codeLine="148" d="M621.77,209.5 C631.73,209.5 641.69,209.5 651.66,209.5 " fill="none" id="Desktop.services.AjaxService-to-Desktop.services.AjaxRequestData" style="stroke:#A80036;stroke-width:1.0;"/><polygon fill="#A80036" points="656.87,209.5,647.87,205.5,651.87,209.5,647.87,213.5,656.87,209.5" style="stroke:#A80036;stroke-width:1.0;"/><!--MD5=[898aac075a8f316a35cfa12291714976]
link Desktop.services.AjaxService to Desktop.services.DataProvider--><path codeLine="149" d="M549.81,254.63 C548.77,275.73 547.51,301.05 546.44,322.77 " fill="none" id="Desktop.services.AjaxService-to-Desktop.services.DataProvider" style="stroke:#A80036;stroke-width:1.0;"/><polygon fill="#A80036" points="546.18,327.92,550.637,319.1373,546.4368,322.9266,542.6475,318.7264,546.18,327.92" style="stroke:#A80036;stroke-width:1.0;"/><!--MD5=[a76526c7a5caaf48f643ef5dd7c529a1]
link Desktop.services.DataProvider to Desktop.services.AjaxObserver--><path codeLine="150" d="M595.83,373 C605.79,373 615.75,373 625.72,373 " fill="none" id="Desktop.services.DataProvider-to-Desktop.services.AjaxObserver" style="stroke:#A80036;stroke-width:1.0;"/><polygon fill="#A80036" points="630.93,373,621.93,369,625.93,373,621.93,377,630.93,373" style="stroke:#A80036;stroke-width:1.0;"/><!--MD5=[4da9713a1acb4bf1540a79acc30836f6]
link Desktop.services.AjaxObserver to Desktop.pages.Page--><path codeLine="151" d="M677.48,418.38 C652.66,440.62 622.58,467.58 597.27,490.26 " fill="none" id="Desktop.services.AjaxObserver-to-Desktop.pages.Page" style="stroke:#A80036;stroke-width:1.0;"/><polygon fill="#A80036" points="593.24,493.87,602.6055,490.8225,596.9565,490.5252,597.2538,484.8761,593.24,493.87" style="stroke:#A80036;stroke-width:1.0;"/><!--MD5=[4a35238512d121362794f66ac013d032]
reverse link Desktop.services.AjaxService to Desktop.pages.Page--><path codeLine="153" d="M511.27,258.75 C496.86,278.84 482.39,303.24 475,328 C460.51,376.55 459.47,393.77 475,442 C480.98,460.56 492.02,478.57 503.55,493.87 " fill="none" id="Desktop.services.AjaxService-backto-Desktop.pages.Page" style="stroke:#A80036;stroke-width:1.0;"/><polygon fill="#A80036" points="514.35,254.53,505.8194,259.4524,511.4074,258.5724,512.2874,264.1604,514.35,254.53" style="stroke:#A80036;stroke-width:1.0;"/><!--MD5=[9f449b519766b357e60aa25a45c8f294]
reverse link Desktop.services.DataProvider to Desktop.pages.Page--><path codeLine="154" d="M544,423.4 C544,445.82 544,472.12 544,493.87 " fill="none" id="Desktop.services.DataProvider-backto-Desktop.pages.Page" style="stroke:#A80036;stroke-width:1.0;"/><polygon fill="#A80036" points="544,418.38,540,427.38,544,423.38,548,427.38,544,418.38" style="stroke:#A80036;stroke-width:1.0;"/><!--MD5=[804a4c83d12d874c9e6cb01a6b19e91e]
link Desktop.pages.Page to Desktop.domain.SessionManager--><path codeLine="155" d="M546.25,584.33 C547.32,605.53 548.63,631.27 549.8,654.46 " fill="none" id="Desktop.pages.Page-to-Desktop.domain.SessionManager" style="stroke:#A80036;stroke-width:1.0;"/><polygon fill="#A80036" points="550.07,659.67,553.6274,650.486,549.8267,654.6759,545.6369,650.8753,550.07,659.67" style="stroke:#A80036;stroke-width:1.0;"/><!--MD5=[4d1255eb75114980c9b2867338ef0eba]
link Desktop.domain.SessionManager to Desktop.models.Users--><path codeLine="156" d="M555.63,777.04 C556.71,800.8 557.99,828.81 559.18,854.78 " fill="none" id="Desktop.domain.SessionManager-to-Desktop.models.Users" style="stroke:#A80036;stroke-width:1.0;"/><polygon fill="#A80036" points="559.41,859.94,562.9936,850.7663,559.181,854.9452,555.002,851.1326,559.41,859.94" style="stroke:#A80036;stroke-width:1.0;"/><!--MD5=[a0425fc991cf31ce5f81791f0d8fad1f]
link Desktop.App to Desktop.pages.Page--><path codeLine="162" d="M399.43,411.21 C424.39,433.1 456.34,461.12 483.86,485.25 " fill="none" id="Desktop.App-to-Desktop.pages.Page" style="stroke:#A80036;stroke-width:1.0;"/><polygon fill="#FFFFFF" points="493.77,493.95,491.8972,486.9863,484.7489,486.0367,486.6217,493.0004,493.77,493.95" style="stroke:#A80036;stroke-width:1.0;"/><!--MD5=[2a66bfdc128a1cb63c557309c0a23935]
reverse link Api to Desktop.services.AjaxService--><path codeLine="163" d="M542.37,60.13 C538.83,88.19 538.3,131.72 540.79,164.39 " fill="none" id="Api-backto-Desktop.services.AjaxService" style="stroke:#A80036;stroke-width:1.0;"/><polygon fill="#A80036" points="543.06,55.07,537.8612,63.435,542.3729,60.0226,545.7853,64.5343,543.06,55.07" style="stroke:#A80036;stroke-width:1.0;"/><!--MD5=[96092b02553e1d71f850b00adf6391df]
link Api to Desktop.services.AjaxService--><path codeLine="164" d="M561.46,55.07 C565.64,81.33 566.58,124.97 564.27,159.01 " fill="none" id="Api-to-Desktop.services.AjaxService" style="stroke:#A80036;stroke-width:1.0;"/><polygon fill="#A80036" points="563.87,164.39,568.5257,155.7111,564.2404,159.4037,560.5477,155.1184,563.87,164.39" style="stroke:#A80036;stroke-width:1.0;"/><!--MD5=[ac531fe6e09736666a68fc2eaef2bdeb]
@startuml Client Class Diagram
skinparam groupInheritance 5

class Api {}

namespace Desktop {
 namespace pages {
  interface Page {
    +update(): void
    #componentWillMount(): void
    #componentWillUnmount(): void
  }
 }
 namespace models {
  class Games {
   -id: int
   -name: String
   -description: String
   -categories: List<Categories>
   -comments: List<Comments>
   -medias: List<Medias>
   -plataforms: List<Plataforms>
   +getters()
   +setters()
  }
  class Categories {
   -id: int
   -name: String
   +getters()
   +setters()
  }
  class Comments {
   -id: int
   -gamesId: int
   -userId: int
   -description: String
   +getters()
   +setters()
  }
  class Medias {
   -id: int
   -gamesId: int
   -mediaType: String
   +getters()
   +setters()
  }
  class GameDataOnPlataform {
   -plataformsId: int
   -gamesId: int
   -price: Double
   -priceUnit: String
   -discount: Float
   -isEnabled: boolean
   +getters()
   +setters()
  }
  class Plataforms {
   -id: int
   -name: String
   -url: Url
   +getters()
   +setters()
  }
  class Users {
   -id: int
   -name: String
   -email: String
   -password: String
   -publicityAccepted: boolean
   -imageUrl: String
   +getters()
   +setters()
  }
  Games *- -o GameDataOnPlataform 
  GameDataOnPlataform o- -* Plataforms
  Games o- -o Categories
  Games - -o Comments
  Users - -o Comments
  Games - -o Medias
 }
 namespace factories {
  class UsersFactory {
   +parse(User)
   +parseAll(Users)
  }
  Desktop.models.Users <-u- UsersFactory 
  class GamesFactory {
   +parse(Game)
   +parseAll(Games)
  }
  Desktop.models.Games <- -r- - GamesFactory
  class CategoriesFactory {
   +parse(Category)
   +parseAll(Categories)
  }
  Desktop.models.Categories <-down- - CategoriesFactory 
  class MediasFactory {
   +parse(Media)
   +parseAll(Medias)
   }
  Desktop.models.Medias <-down- - MediasFactory 
  class CommentsFactory {
   +parse(Comment)
   +parseAll(Comments)
  }
  Desktop.models.Comments <-down- - CommentsFactory 
  class PlataformsFactory {
   +parse(Plataform)
   +parseAll(Plataforms)
  }
  Desktop.models.Plataforms <- - - PlataformsFactory 
  GamesFactory -u-> CategoriesFactory
  GamesFactory -u-> MediasFactory 
  GamesFactory -u-> CommentsFactory 
  GamesFactory -u-> PlataformsFactory 
 }
 namespace domain {
	class SessionManager {
		+{static} getInstance()
		+open(Users)
		+update(Users)
		+get(Users)
		+close(Users)
	}
 }
 namespace services {
	class AjaxRequestData {
          -url: String
          -headers: Map<String, String> 
          -params: Map<String, String>
          +getters()
          +setters()
        }
	class AjaxService {
		+{static} getInstance()
		+post(AjaxRequestData)
		+get(AjaxRequestData)
	}
        class DataProvider {
          +{static} getInstance()
          +supply(data)
          +provide()
        }
        class AjaxObserver {
         +subscribe(callback, event): void
         +unsubscribe(callback, event): void
         +notify(event): void
        }
	AjaxRequestData <-l- AjaxService
        AjaxService -d-> DataProvider 
        DataProvider -r-> AjaxObserver
        AjaxObserver -d-> Desktop.pages.Page
 }
 Desktop.services.AjaxService <- - Desktop.pages.Page
 Desktop.services.DataProvider <- - Desktop.pages.Page
 Desktop.domain.SessionManager <-u- Desktop.pages.Page
 Desktop.domain.SessionManager -d-> Desktop.models.Users
 
 class App {
   -displayedPage: Page
   +start()
 }
 App -d-o Desktop.pages.Page
 Desktop.services.AjaxService -u-> .Api 
 Desktop.services.AjaxService <-u- .Api 
}
@enduml

PlantUML version 1.2022.0(Tue Jan 11 17:16:42 CET 2022)
(GPL source distribution)
Java Runtime: Java(TM) SE Runtime Environment
JVM: Java HotSpot(TM) 64-Bit Server VM
Default Encoding: Cp1252
Language: es
Country: ES
--></g></svg>