<?xml version="1.0" encoding="UTF-8" standalone="no"?><svg xmlns="http://www.w3.org/2000/svg" xmlns:xlink="http://www.w3.org/1999/xlink" contentStyleType="text/css" height="761px" preserveAspectRatio="none" style="width:657px;height:761px;background:#FFFFFF;" version="1.1" viewBox="0 0 657 761" width="657px" zoomAndPan="magnify"><defs/><g><!--MD5=[7058f338f099d236033fc5161613b206]
cluster Api--><g id="cluster_Api"><rect height="748" rx="2.5" ry="2.5" style="stroke:#181818;stroke-width:1.0;fill:none;" width="252" x="399" y="7"/><text fill="#000000" font-family="sans-serif" font-size="14" font-weight="bold" lengthAdjust="spacing" textLength="26" x="512" y="21.9951">Api</text></g><!--MD5=[c0cf20ff7eeaa1f78ffce37a1e9dd751]
cluster Sessions--><g id="cluster_Sessions"><rect height="257" rx="2.5" ry="2.5" style="stroke:#181818;stroke-width:1.0;fill:none;" width="164" x="443" y="110"/><text fill="#000000" font-family="sans-serif" font-size="14" font-weight="bold" lengthAdjust="spacing" textLength="71" x="489.5" y="124.9951">Sessions</text></g><!--MD5=[3891e56d45f78215122b8c4ebb8372e6]
cluster Management--><g id="cluster_Management"><rect height="277" rx="2.5" ry="2.5" style="stroke:#181818;stroke-width:1.0;fill:none;" width="204" x="423" y="454"/><text fill="#000000" font-family="sans-serif" font-size="14" font-weight="bold" lengthAdjust="spacing" textLength="105" x="472.5" y="468.9951">Management</text></g><g id="elem_Reportar\nincidencia"><ellipse cx="524.897" cy="68.0473" fill="#F1F1F1" rx="62.397" ry="26.0473" style="stroke:#181818;stroke-width:0.5;"/><text fill="#000000" font-family="sans-serif" font-size="14" lengthAdjust="spacing" textLength="65" x="492.397" y="62.7455">Reportar</text><text fill="#000000" font-family="sans-serif" font-size="14" lengthAdjust="spacing" textLength="72" x="488.897" y="79.0424">incidencia</text></g><g id="elem_Realizar\ncomentario"><ellipse cx="525.1751" cy="412.0473" fill="#F1F1F1" rx="70.1751" ry="26.0473" style="stroke:#181818;stroke-width:0.5;"/><text fill="#000000" font-family="sans-serif" font-size="14" lengthAdjust="spacing" textLength="57" x="496.6751" y="406.7455">Realizar</text><text fill="#000000" font-family="sans-serif" font-size="14" lengthAdjust="spacing" textLength="83" x="483.6751" y="423.0424">comentario</text></g><g id="elem_Registrarse"><ellipse cx="525.113" cy="161.1226" fill="#F1F1F1" rx="66.113" ry="15.6226" style="stroke:#181818;stroke-width:0.5;"/><text fill="#000000" font-family="sans-serif" font-size="14" lengthAdjust="spacing" textLength="82" x="481.113" y="164.8702">Registrarse</text></g><g id="elem_Iniciar\nsesión"><ellipse cx="524.8051" cy="238.0473" fill="#F1F1F1" rx="43.3051" ry="26.0473" style="stroke:#181818;stroke-width:0.5;"/><text fill="#000000" font-family="sans-serif" font-size="14" lengthAdjust="spacing" textLength="43" x="503.3051" y="232.7455">Iniciar</text><text fill="#000000" font-family="sans-serif" font-size="14" lengthAdjust="spacing" textLength="45" x="502.3051" y="249.0424">sesión</text></g><g id="elem_Cerrar\nsesión"><ellipse cx="524.8051" cy="325.0473" fill="#F1F1F1" rx="43.3051" ry="26.0473" style="stroke:#181818;stroke-width:0.5;"/><text fill="#000000" font-family="sans-serif" font-size="14" lengthAdjust="spacing" textLength="45" x="502.3051" y="319.7455">Cerrar</text><text fill="#000000" font-family="sans-serif" font-size="14" lengthAdjust="spacing" textLength="45" x="502.3051" y="336.0424">sesión</text></g><g id="elem_Agregar\Editar\n Juego"><ellipse cx="525.014" cy="515.1259" fill="#F1F1F1" rx="86.014" ry="26.1259" style="stroke:#181818;stroke-width:0.5;"/><text fill="#000000" font-family="sans-serif" font-size="14" lengthAdjust="spacing" textLength="105" x="469.514" y="510.7251">Agregar\Editar</text><text fill="#000000" font-family="sans-serif" font-size="14" lengthAdjust="spacing" textLength="39" x="504.514" y="527.0219">Juego</text></g><g id="elem_Agregar\Editar\n Categoria"><ellipse cx="525.014" cy="602.1259" fill="#F1F1F1" rx="86.014" ry="26.1259" style="stroke:#181818;stroke-width:0.5;"/><text fill="#000000" font-family="sans-serif" font-size="14" lengthAdjust="spacing" textLength="105" x="469.514" y="597.7251">Agregar\Editar</text><text fill="#000000" font-family="sans-serif" font-size="14" lengthAdjust="spacing" textLength="70" x="489.014" y="614.0219">Categoria</text></g><g id="elem_Agregar\Editar\n Plataforma"><ellipse cx="525.014" cy="689.1259" fill="#F1F1F1" rx="86.014" ry="26.1259" style="stroke:#181818;stroke-width:0.5;"/><text fill="#000000" font-family="sans-serif" font-size="14" lengthAdjust="spacing" textLength="105" x="469.514" y="684.7251">Agregar\Editar</text><text fill="#000000" font-family="sans-serif" font-size="14" lengthAdjust="spacing" textLength="79" x="484.514" y="701.0219">Plataforma</text></g><!--MD5=[fee662a292a0353a69bd162820bae93b]
entity User--><g id="elem_User"><ellipse cx="363.5" cy="131.5" fill="#F1F1F1" rx="8" ry="8" style="stroke:#181818;stroke-width:0.5;"/><path d="M363.5,139.5 L363.5,166.5 M350.5,147.5 L376.5,147.5 M363.5,166.5 L350.5,181.5 M363.5,166.5 L376.5,181.5 " fill="none" style="stroke:#181818;stroke-width:0.5;"/><text fill="#000000" font-family="sans-serif" font-size="14" lengthAdjust="spacing" textLength="31" x="348" y="195.9951">User</text></g><!--MD5=[29a2165e3a2e2ffd8d8a1791f7f872fe]
entity LoggedUser--><g id="elem_LoggedUser"><ellipse cx="185" cy="339.5" fill="#F1F1F1" rx="8" ry="8" style="stroke:#181818;stroke-width:0.5;"/><path d="M185,347.5 L185,374.5 M172,355.5 L198,355.5 M185,374.5 L172,389.5 M185,374.5 L198,389.5 " fill="none" style="stroke:#181818;stroke-width:0.5;"/><text fill="#000000" font-family="sans-serif" font-size="14" lengthAdjust="spacing" textLength="84" x="143" y="403.9951">LoggedUser</text></g><!--MD5=[4bcabcf01a725d6903d664f3a7b90e27]
entity AdminUser--><g id="elem_AdminUser"><ellipse cx="44.5" cy="529.5" fill="#F1F1F1" rx="8" ry="8" style="stroke:#181818;stroke-width:0.5;"/><path d="M44.5,537.5 L44.5,564.5 M31.5,545.5 L57.5,545.5 M44.5,564.5 L31.5,579.5 M44.5,564.5 L57.5,579.5 " fill="none" style="stroke:#181818;stroke-width:0.5;"/><text fill="#000000" font-family="sans-serif" font-size="14" lengthAdjust="spacing" textLength="77" x="6" y="593.9951">AdminUser</text></g><!--MD5=[131d96e82006dd4ccf6956153e437048]
link User to Registrarse--><g id="link_User_Registrarse"><path d="M379.219,161 C396.281,161 425.629,161 453.46,161 " fill="none" id="User-to-Registrarse" style="stroke:#181818;stroke-width:1.0;"/><polygon fill="#181818" points="458.636,161,449.636,157,453.636,161,449.636,165,458.636,161" style="stroke:#181818;stroke-width:1.0;"/></g><!--MD5=[fed277fe53c2e41b11e95ec9106cc213]
link User to Iniciar\nsesión--><g id="link_User_Iniciar\nsesión"><path d="M379.155,182.961 C382.657,187.053 386.654,190.983 391,194 C417.049,212.084 451.064,223.161 478.174,229.677 " fill="none" id="User-to-Iniciar\nsesión" style="stroke:#181818;stroke-width:1.0;"/><polygon fill="#181818" points="483.152,230.842,475.2993,224.8976,478.2834,229.7034,473.4776,232.6875,483.152,230.842" style="stroke:#181818;stroke-width:1.0;"/></g><!--MD5=[cb288a9686aa168313ee46031f1bff1c]
link User to Reportar\nincidencia--><g id="link_User_Reportar\nincidencia"><path d="M379.217,140.403 C382.765,136.295 386.766,132.25 391,129 C414.904,110.655 445.21,96.214 470.854,85.997 " fill="none" id="User-to-Reportar\nincidencia" style="stroke:#181818;stroke-width:1.0;"/><polygon fill="#181818" points="475.585,84.139,465.7457,83.7044,470.9308,85.9661,468.6691,91.1512,475.585,84.139" style="stroke:#181818;stroke-width:1.0;"/></g><!--MD5=[0fd9bb432e7ccf4b7bac9fe23c96c662]
link LoggedUser to Reportar\nincidencia--><g id="link_LoggedUser_Reportar\nincidencia"><path d="M198.382,330.669 C219.339,272.231 267.556,161.681 348,105 C379.626,82.716 421.868,73.336 457.041,69.588 " fill="none" id="LoggedUser-to-Reportar\nincidencia" style="stroke:#181818;stroke-width:1.0;"/><polygon fill="#181818" points="462.177,69.075,452.8239,65.9896,457.2018,69.5721,453.6193,73.95,462.177,69.075" style="stroke:#181818;stroke-width:1.0;"/></g><!--MD5=[934ebe0e5907c712f334a76f8e433a5f]
link LoggedUser to Cerrar\nsesión--><g id="link_LoggedUser_Cerrar\nsesión"><path d="M227.263,363.168 C245.557,360.612 267.345,357.606 287,355 C352.85,346.269 429.071,336.72 476.911,330.794 " fill="none" id="LoggedUser-to-Cerrar\nsesión" style="stroke:#181818;stroke-width:1.0;"/><polygon fill="#181818" points="482.025,330.161,472.6017,327.2972,477.0629,330.7754,473.5847,335.2366,482.025,330.161" style="stroke:#181818;stroke-width:1.0;"/></g><!--MD5=[79fc2ef417ff726357c00a91f7a6a0b8]
link LoggedUser to Realizar\ncomentario--><g id="link_LoggedUser_Realizar\ncomentario"><path d="M227.108,374.23 C283.263,381.374 384.786,394.289 453.288,403.004 " fill="none" id="LoggedUser-to-Realizar\ncomentario" style="stroke:#181818;stroke-width:1.0;"/><polygon fill="#181818" points="458.573,403.676,450.1502,398.5715,453.613,403.0446,449.1399,406.5074,458.573,403.676" style="stroke:#181818;stroke-width:1.0;"/></g><!--MD5=[352b1259140c4e19051d93607a23e8cb]
link AdminUser to LoggedUser--><g id="link_AdminUser_LoggedUser"><path d="M73.5275,520.551 C93.8688,492.646 121.671,454.506 144.295,423.469 " fill="none" id="AdminUser-to-LoggedUser" style="stroke:#181818;stroke-width:1.0;"/><polygon fill="none" points="138.813,419.106,156.251,407.067,150.126,427.353,138.813,419.106" style="stroke:#181818;stroke-width:1.0;"/></g><!--MD5=[6f87f92a5104f46a3c9d327358076eae]
link AdminUser to Agregar\Editar\n Juego--><g id="link_AdminUser_Agregar\Editar\n Juego"><path d="M83.3962,552.983 C101.4171,550.269 123.284,547.189 143,545 C243.019,533.893 358.258,525.417 435.575,520.352 " fill="none" id="AdminUser-to-Agregar\Editar\n Juego" style="stroke:#181818;stroke-width:1.0;"/><polygon fill="#181818" points="440.612,520.024,431.3706,516.6187,435.6226,520.3497,431.8917,524.6017,440.612,520.024" style="stroke:#181818;stroke-width:1.0;"/></g><!--MD5=[7b9feacddd74e4bd26d0ae88fd8f4492]
link AdminUser to Agregar\Editar\n Categoria--><g id="link_AdminUser_Agregar\Editar\n Categoria"><path d="M83.0471,562.374 C158.769,569.179 331.533,584.704 436.931,594.176 " fill="none" id="AdminUser-to-Agregar\Editar\n Categoria" style="stroke:#181818;stroke-width:1.0;"/><polygon fill="#181818" points="442.21,594.65,433.6038,589.8612,437.23,594.2029,432.8883,597.8291,442.21,594.65" style="stroke:#181818;stroke-width:1.0;"/></g><!--MD5=[cc0f60df5ca9174dd6c90ded75724073]
link AdminUser to Agregar\Editar\n Plataforma--><g id="link_AdminUser_Agregar\Editar\n Plataforma"><path d="M83.0471,569.201 C163.319,591.009 352.644,642.446 455.164,670.299 " fill="none" id="AdminUser-to-Agregar\Editar\n Plataforma" style="stroke:#181818;stroke-width:1.0;"/><polygon fill="#181818" points="460.281,671.6887,452.6452,665.4682,455.456,670.3773,450.5469,673.1881,460.281,671.6887" style="stroke:#181818;stroke-width:1.0;"/></g><!--MD5=[9f8ff76a5c62a60fd2fa9b590d2568cd]
@startuml
left to right direction
rectangle Api {
 rectangle Sessions { 
  usecase (Registrarse)
  usecase (Iniciar\nsesión)
  usecase (Cerrar\nsesión)
 }

 rectangle Management {
  usecase (Agregar\Editar\n Juego)
  usecase (Agregar\Editar\n Categoria)
  usecase (Agregar\Editar\n Plataforma)
 }

 usecase (Reportar\nincidencia)
 usecase (Realizar\ncomentario)
}

:User: - -> (Registrarse)
:User: - -> (Iniciar\nsesión)
:User: - -> (Reportar\nincidencia)

:LoggedUser: - - - -> (Reportar\nincidencia)
:LoggedUser: - -> (Cerrar\nsesión)
:LoggedUser: - -> (Realizar\ncomentario)

:AdminUser: - -|> :LoggedUser:
:AdminUser: - -> (Agregar\Editar\n Juego)
:AdminUser: - -> (Agregar\Editar\n Categoria)
:AdminUser: - -> (Agregar\Editar\n Plataforma)
@enduml

PlantUML version 1.2022.6beta5(Unknown compile time)
(GPL source distribution)
Java Runtime: Java(TM) SE Runtime Environment
JVM: Java HotSpot(TM) 64-Bit Server VM
Default Encoding: UTF-8
Language: en
Country: US
--></g></svg>