<?xml version="1.0" encoding="UTF-8" standalone="no"?><svg xmlns="http://www.w3.org/2000/svg" xmlns:xlink="http://www.w3.org/1999/xlink" contentScriptType="application/ecmascript" contentStyleType="text/css" height="822px" preserveAspectRatio="none" style="width:565px;height:822px;background:#FFFFFF;" version="1.1" viewBox="0 0 565 822" width="565px" zoomAndPan="magnify"><defs><filter height="300%" id="f139xcc8oj5qfs" width="300%" x="-1" y="-1"><feGaussianBlur result="blurOut" stdDeviation="2.0"/><feColorMatrix in="blurOut" result="blurOut2" type="matrix" values="0 0 0 0 0 0 0 0 0 0 0 0 0 0 0 0 0 0 .4 0"/><feOffset dx="4.0" dy="4.0" in="blurOut2" result="blurOut3"/><feBlend in="SourceGraphic" in2="blurOut3" mode="normal"/></filter></defs><g><!--MD5=[7058f338f099d236033fc5161613b206]
cluster Api--><rect fill="#FFFFFF" filter="url(#f139xcc8oj5qfs)" height="803" style="stroke:#000000;stroke-width:1.5;" width="233" x="320" y="7"/><text fill="#000000" font-family="sans-serif" font-size="14" font-weight="bold" lengthAdjust="spacing" textLength="22" x="425.5" y="23.5332">Api</text><!--MD5=[c0cf20ff7eeaa1f78ffce37a1e9dd751]
cluster Sessions--><rect fill="#FFFFFF" filter="url(#f139xcc8oj5qfs)" height="266" style="stroke:#000000;stroke-width:1.5;" width="160" x="356.5" y="206"/><text fill="#000000" font-family="sans-serif" font-size="14" font-weight="bold" lengthAdjust="spacing" textLength="64" x="404.5" y="222.5332">Sessions</text><!--MD5=[3891e56d45f78215122b8c4ebb8372e6]
cluster Management--><rect fill="#FFFFFF" filter="url(#f139xcc8oj5qfs)" height="290" style="stroke:#000000;stroke-width:1.5;" width="185" x="344" y="496"/><text fill="#000000" font-family="sans-serif" font-size="14" font-weight="bold" lengthAdjust="spacing" textLength="91" x="391" y="512.5332">Management</text><ellipse cx="436.533" cy="161.9034" fill="#FEFECE" filter="url(#f139xcc8oj5qfs)" rx="56.033" ry="27.9034" style="stroke:#A80036;stroke-width:1.5;"/><text fill="#000000" font-family="sans-serif" font-size="14" lengthAdjust="spacing" textLength="56" x="408.533" y="156.8272">Reportar</text><text fill="#000000" font-family="sans-serif" font-size="14" lengthAdjust="spacing" textLength="63" x="405.033" y="174.4366">incidencia</text><ellipse cx="436.4828" cy="70.9034" fill="#FEFECE" filter="url(#f139xcc8oj5qfs)" rx="60.9828" ry="27.9034" style="stroke:#A80036;stroke-width:1.5;"/><text fill="#000000" font-family="sans-serif" font-size="14" lengthAdjust="spacing" textLength="51" x="410.9828" y="65.8272">Realizar</text><text fill="#000000" font-family="sans-serif" font-size="14" lengthAdjust="spacing" textLength="70" x="401.4828" y="83.4366">comentario</text><ellipse cx="436.3631" cy="258.109" fill="#FEFECE" filter="url(#f139xcc8oj5qfs)" rx="63.8631" ry="15.609" style="stroke:#A80036;stroke-width:1.5;"/><text fill="#000000" font-family="sans-serif" font-size="14" lengthAdjust="spacing" textLength="73" x="396.8631" y="262.6256">Registrarse</text><ellipse cx="436.4767" cy="336.9034" fill="#FEFECE" filter="url(#f139xcc8oj5qfs)" rx="40.4767" ry="27.9034" style="stroke:#A80036;stroke-width:1.5;"/><text fill="#000000" font-family="sans-serif" font-size="14" lengthAdjust="spacing" textLength="37" x="417.9767" y="331.8272">Iniciar</text><text fill="#000000" font-family="sans-serif" font-size="14" lengthAdjust="spacing" textLength="41" x="415.9767" y="349.4366">sesión</text><ellipse cx="436.4767" cy="427.9034" fill="#FEFECE" filter="url(#f139xcc8oj5qfs)" rx="40.4767" ry="27.9034" style="stroke:#A80036;stroke-width:1.5;"/><text fill="#000000" font-family="sans-serif" font-size="14" lengthAdjust="spacing" textLength="41" x="415.9767" y="422.8272">Cerrar</text><text fill="#000000" font-family="sans-serif" font-size="14" lengthAdjust="spacing" textLength="41" x="415.9767" y="440.4366">sesión</text><ellipse cx="436.5391" cy="559.9034" fill="#FEFECE" filter="url(#f139xcc8oj5qfs)" rx="76.5391" ry="27.9034" style="stroke:#A80036;stroke-width:1.5;"/><text fill="#000000" font-family="sans-serif" font-size="14" lengthAdjust="spacing" textLength="92" x="390.5391" y="554.8272">Agregar\Editar</text><text fill="#000000" font-family="sans-serif" font-size="14" lengthAdjust="spacing" textLength="38" x="419.5391" y="572.4366">Juego</text><ellipse cx="436.5391" cy="650.9034" fill="#FEFECE" filter="url(#f139xcc8oj5qfs)" rx="76.5391" ry="27.9034" style="stroke:#A80036;stroke-width:1.5;"/><text fill="#000000" font-family="sans-serif" font-size="14" lengthAdjust="spacing" textLength="92" x="390.5391" y="645.8272">Agregar\Editar</text><text fill="#000000" font-family="sans-serif" font-size="14" lengthAdjust="spacing" textLength="62" x="407.5391" y="663.4366">Categoria</text><ellipse cx="436.5391" cy="741.9034" fill="#FEFECE" filter="url(#f139xcc8oj5qfs)" rx="76.5391" ry="27.9034" style="stroke:#A80036;stroke-width:1.5;"/><text fill="#000000" font-family="sans-serif" font-size="14" lengthAdjust="spacing" textLength="92" x="390.5391" y="736.8272">Agregar\Editar</text><text fill="#000000" font-family="sans-serif" font-size="14" lengthAdjust="spacing" textLength="68" x="404.5391" y="754.4366">Plataforma</text><!--MD5=[fee662a292a0353a69bd162820bae93b]
entity User--><ellipse cx="285.5" cy="245" fill="#FEFECE" filter="url(#f139xcc8oj5qfs)" rx="8" ry="8" style="stroke:#A80036;stroke-width:1.5;"/><path d="M285.5,253 L285.5,280 M272.5,261 L298.5,261 M285.5,280 L272.5,295 M285.5,280 L298.5,295 " fill="none" filter="url(#f139xcc8oj5qfs)" style="stroke:#A80036;stroke-width:1.5;"/><text fill="#000000" font-family="sans-serif" font-size="14" lengthAdjust="spacing" textLength="29" x="271" y="315.0332">User</text><!--MD5=[29a2165e3a2e2ffd8d8a1791f7f872fe]
entity LoggedUser--><ellipse cx="172.5" cy="330" fill="#FEFECE" filter="url(#f139xcc8oj5qfs)" rx="8" ry="8" style="stroke:#A80036;stroke-width:1.5;"/><path d="M172.5,338 L172.5,365 M159.5,346 L185.5,346 M172.5,365 L159.5,380 M172.5,365 L185.5,380 " fill="none" filter="url(#f139xcc8oj5qfs)" style="stroke:#A80036;stroke-width:1.5;"/><text fill="#000000" font-family="sans-serif" font-size="14" lengthAdjust="spacing" textLength="77" x="134" y="400.0332">LoggedUser</text><!--MD5=[4bcabcf01a725d6903d664f3a7b90e27]
entity AdminUser--><ellipse cx="40" cy="569" fill="#FEFECE" filter="url(#f139xcc8oj5qfs)" rx="8" ry="8" style="stroke:#A80036;stroke-width:1.5;"/><path d="M40,577 L40,604 M27,585 L53,585 M40,604 L27,619 M40,604 L53,619 " fill="none" filter="url(#f139xcc8oj5qfs)" style="stroke:#A80036;stroke-width:1.5;"/><text fill="#000000" font-family="sans-serif" font-size="14" lengthAdjust="spacing" textLength="68" x="6" y="639.0332">AdminUser</text><!--MD5=[131d96e82006dd4ccf6956153e437048]
link User to Registrarse--><path d="M300.25,275.25 C317.21,273.08 347.15,269.27 374.56,265.77 " fill="none" id="User-to-Registrarse" style="stroke:#A80036;stroke-width:1.0;"/><polygon fill="#A80036" points="379.65,265.12,370.2183,262.2839,374.6897,265.749,371.2247,270.2204,379.65,265.12" style="stroke:#A80036;stroke-width:1.0;"/><!--MD5=[fed277fe53c2e41b11e95ec9106cc213]
link User to Iniciar\nsesión--><path d="M300.08,284.93 C303.88,287.02 308.05,289.19 312,291 C339.01,303.37 370.39,315.02 394.76,323.51 " fill="none" id="User-to-Iniciar\nsesión" style="stroke:#A80036;stroke-width:1.0;"/><polygon fill="#A80036" points="399.54,325.16,392.3512,318.4279,394.8169,323.5191,389.7257,325.9848,399.54,325.16" style="stroke:#A80036;stroke-width:1.0;"/><!--MD5=[cb288a9686aa168313ee46031f1bff1c]
link User to Reportar\nincidencia--><path d="M300.06,242.38 C303.38,236.47 307.34,230.72 312,226 C332.26,205.44 360.53,190.13 384.91,179.64 " fill="none" id="User-to-Reportar\nincidencia" style="stroke:#A80036;stroke-width:1.0;"/><polygon fill="#A80036" points="389.73,177.61,379.8831,177.416,385.1218,179.5503,382.9875,184.7891,389.73,177.61" style="stroke:#A80036;stroke-width:1.0;"/><!--MD5=[87f7781e214e259f4fee62a752a586ed]
link LoggedUser to User--><path d="M211.08,333.22 C225.26,322.36 241.19,310.16 254.58,299.91 " fill="none" id="LoggedUser-to-User" style="stroke:#A80036;stroke-width:1.0;"/><polygon fill="none" points="250.73,294.05,270.86,287.44,259.24,305.16,250.73,294.05" style="stroke:#A80036;stroke-width:1.0;"/><!--MD5=[934ebe0e5907c712f334a76f8e433a5f]
link LoggedUser to Cerrar\nsesión--><path d="M211.04,371.46 C259.19,383.59 342.5,404.57 392.95,417.28 " fill="none" id="LoggedUser-to-Cerrar\nsesión" style="stroke:#A80036;stroke-width:1.0;"/><polygon fill="#A80036" points="398.03,418.56,390.2689,412.4966,393.1793,417.3473,388.3286,420.2577,398.03,418.56" style="stroke:#A80036;stroke-width:1.0;"/><!--MD5=[79fc2ef417ff726357c00a91f7a6a0b8]
link LoggedUser to Realizar\ncomentario--><path d="M186.68,320.37 C205.9,266.08 246.6,171.5 312,116 C330.04,100.69 353.71,90.4 375.51,83.58 " fill="none" id="LoggedUser-to-Realizar\ncomentario" style="stroke:#A80036;stroke-width:1.0;"/><polygon fill="#A80036" points="380.42,82.09,370.6485,80.8582,375.6328,83.5333,372.9577,88.5177,380.42,82.09" style="stroke:#A80036;stroke-width:1.0;"/><!--MD5=[352b1259140c4e19051d93607a23e8cb]
link AdminUser to LoggedUser--><path d="M63.73,559.37 C84.58,521.19 115.68,464.22 139.13,421.29 " fill="none" id="AdminUser-to-LoggedUser" style="stroke:#A80036;stroke-width:1.0;"/><polygon fill="none" points="133.08,417.75,148.81,403.55,145.37,424.46,133.08,417.75" style="stroke:#A80036;stroke-width:1.0;"/><!--MD5=[6f87f92a5104f46a3c9d327358076eae]
link AdminUser to Agregar\Editar\n Juego--><path d="M74.29,597.54 C136.4,591.09 271.42,577.05 357.64,568.09 " fill="none" id="AdminUser-to-Agregar\Editar\n Juego" style="stroke:#A80036;stroke-width:1.0;"/><polygon fill="#A80036" points="362.74,567.56,353.3675,564.534,357.768,568.0886,354.2133,572.4891,362.74,567.56" style="stroke:#A80036;stroke-width:1.0;"/><!--MD5=[7b9feacddd74e4bd26d0ae88fd8f4492]
link AdminUser to Agregar\Editar\n Categoria--><path d="M74.29,605.22 C136.67,613.13 272.61,630.35 358.78,641.28 " fill="none" id="AdminUser-to-Agregar\Editar\n Categoria" style="stroke:#A80036;stroke-width:1.0;"/><polygon fill="#A80036" points="363.87,641.92,355.4447,636.8196,358.9097,641.291,354.4383,644.7561,363.87,641.92" style="stroke:#A80036;stroke-width:1.0;"/><!--MD5=[cc0f60df5ca9174dd6c90ded75724073]
link AdminUser to Agregar\Editar\n Plataforma--><path d="M74.29,612.9 C141.05,636.76 292.02,690.72 376.12,720.78 " fill="none" id="AdminUser-to-Agregar\Editar\n Plataforma" style="stroke:#A80036;stroke-width:1.0;"/><polygon fill="#A80036" points="381.06,722.54,373.914,715.7625,376.3474,720.8692,371.2407,723.3026,381.06,722.54" style="stroke:#A80036;stroke-width:1.0;"/><!--MD5=[76f353e6d6fbc241f4b5bd347ea68173]
@startuml Use Case Diagram
left to right direction
rectangle Api {
 rectangle Sessions { 
  usecase (Registrarse)
  usecase (Iniciar\nsesión)
  usecase (Cerrar\nsesión)
 }

 rectangle Management {
  usecase (Agregar\Editar\n Juego)
  usecase (Agregar\Editar\n Categoria)
  usecase (Agregar\Editar\n Plataforma)
 }

 usecase (Reportar\nincidencia)
 usecase (Realizar\ncomentario)
}

:User: - -> (Registrarse)
:User: - -> (Iniciar\nsesión)
:User: - -> (Reportar\nincidencia)

:LoggedUser: - -|> :User:
:LoggedUser: - -> (Cerrar\nsesión)
:LoggedUser: - -> (Realizar\ncomentario)

:AdminUser: - -|> :LoggedUser:
:AdminUser: - -> (Agregar\Editar\n Juego)
:AdminUser: - -> (Agregar\Editar\n Categoria)
:AdminUser: - -> (Agregar\Editar\n Plataforma)
@enduml

PlantUML version 1.2022.0(Tue Jan 11 17:16:42 CET 2022)
(GPL source distribution)
Java Runtime: Java(TM) SE Runtime Environment
JVM: Java HotSpot(TM) 64-Bit Server VM
Default Encoding: Cp1252
Language: es
Country: ES
--></g></svg>